<mxfile host="app.diagrams.net" modified="2023-06-29T01:32:30.275Z" agent="Mozilla/5.0 (Windows NT 10.0; Win64; x64) AppleWebKit/537.36 (KHTML, like Gecko) Chrome/114.0.0.0 Safari/537.36" etag="dN2hysIvHxutShIl9qoG" version="21.5.0" type="device">
  <diagram name="페이지-1" id="c0tY06ZbYQclwvLHSZpa">
    <mxGraphModel dx="126" dy="1433" grid="0" gridSize="10" guides="1" tooltips="1" connect="1" arrows="1" fold="1" page="1" pageScale="1" pageWidth="827" pageHeight="1169" math="0" shadow="0">
      <root>
        <mxCell id="0" />
        <mxCell id="1" parent="0" />
        <mxCell id="io7zwHNE9pA3boUVpFcz-211" style="edgeStyle=orthogonalEdgeStyle;rounded=0;orthogonalLoop=1;jettySize=auto;html=1;exitX=0.75;exitY=0;exitDx=0;exitDy=0;entryX=0.708;entryY=0.911;entryDx=0;entryDy=0;entryPerimeter=0;strokeWidth=5;endArrow=none;endFill=0;strokeColor=#666666;" parent="1" source="io7zwHNE9pA3boUVpFcz-208" target="io7zwHNE9pA3boUVpFcz-72" edge="1">
          <mxGeometry relative="1" as="geometry">
            <Array as="points">
              <mxPoint x="8858" y="2070" />
              <mxPoint x="5140" y="2070" />
            </Array>
          </mxGeometry>
        </mxCell>
        <mxCell id="io7zwHNE9pA3boUVpFcz-4" value="&lt;font style=&quot;font-size: 30px;&quot;&gt;&lt;b&gt;flexing-cps-product-구독&lt;/b&gt;&lt;/font&gt;" style="shape=ext;double=1;rounded=0;whiteSpace=wrap;html=1;strokeWidth=3;" parent="1" vertex="1">
          <mxGeometry x="3020" y="960" width="480" height="120" as="geometry" />
        </mxCell>
        <mxCell id="io7zwHNE9pA3boUVpFcz-5" value="" style="strokeWidth=5;html=1;shape=mxgraph.flowchart.database;whiteSpace=wrap;fillColor=#D5E8D4;strokeColor=#9AC7BF;align=left;" parent="1" vertex="1">
          <mxGeometry x="3590" y="3670" width="950" height="420" as="geometry" />
        </mxCell>
        <mxCell id="io7zwHNE9pA3boUVpFcz-6" value="&lt;div style=&quot;font-size: 22px;&quot;&gt;&lt;ol style=&quot;border-color: var(--border-color);&quot;&gt;&lt;li style=&quot;border-color: var(--border-color);&quot;&gt;&lt;span style=&quot;border-color: var(--border-color);&quot;&gt;&lt;b&gt;디스크 크기: 512GiB&lt;/b&gt;&lt;/span&gt;&lt;/li&gt;&lt;li style=&quot;border-color: var(--border-color);&quot;&gt;&lt;font style=&quot;border-color: var(--border-color); font-size: 22px;&quot;&gt;&lt;span style=&quot;border-color: var(--border-color);&quot;&gt;&lt;b&gt;스토리지 유형: 표준 HDD LRS&lt;/b&gt;&lt;/span&gt;&lt;/font&gt;&lt;/li&gt;&lt;li style=&quot;border-color: var(--border-color);&quot;&gt;&lt;font style=&quot;border-color: var(--border-color); font-size: 22px;&quot;&gt;&lt;span style=&quot;border-color: var(--border-color);&quot;&gt;&lt;b&gt;관리 파일: containers(실행 파일), volumes(mapping 파일)&lt;/b&gt;&lt;/span&gt;&lt;/font&gt;&lt;/li&gt;&lt;li style=&quot;border-color: var(--border-color);&quot;&gt;&lt;b&gt;log 파일 위치:&lt;br&gt;(server) home/docker/volumes/flexing-cps-server-rc/logs&lt;br&gt;(portal) home/docker/volumes/flexing-cps-server-rc/clientLogs&lt;br&gt;(big-data-server) home/docker/volumes/flexing-cps-big-data-server-rc/logs&amp;nbsp;&lt;/b&gt;&lt;/li&gt;&lt;/ol&gt;&lt;/div&gt;" style="text;strokeColor=none;align=left;fillColor=none;html=1;verticalAlign=middle;whiteSpace=wrap;rounded=0;" parent="1" vertex="1">
          <mxGeometry x="3646.3900000000003" y="3840" width="837.23" height="190" as="geometry" />
        </mxCell>
        <mxCell id="io7zwHNE9pA3boUVpFcz-7" value="" style="rounded=0;whiteSpace=wrap;html=1;dashed=1;dashPattern=1 1;strokeWidth=8;strokeColor=#999999;fillColor=#E6E6E6;" parent="1" vertex="1">
          <mxGeometry x="3530" y="2170" width="1070" height="1280" as="geometry" />
        </mxCell>
        <mxCell id="io7zwHNE9pA3boUVpFcz-8" value="&lt;font size=&quot;1&quot; style=&quot;&quot;&gt;&lt;b style=&quot;font-size: 30px;&quot;&gt;VM (flexing-cps-rc-servers)&lt;/b&gt;&lt;/font&gt;" style="text;strokeColor=none;align=center;fillColor=none;html=1;verticalAlign=middle;whiteSpace=wrap;rounded=0;" parent="1" vertex="1">
          <mxGeometry x="3610" y="2195.25" width="420" height="30" as="geometry" />
        </mxCell>
        <mxCell id="io7zwHNE9pA3boUVpFcz-9" value="" style="image;html=1;image=img/lib/clip_art/computers/Virtual_Machine_128x128.png" parent="1" vertex="1">
          <mxGeometry x="3560" y="2180.25" width="50" height="60" as="geometry" />
        </mxCell>
        <mxCell id="io7zwHNE9pA3boUVpFcz-10" value="&lt;div style=&quot;font-size: 20px;&quot;&gt;&lt;ol&gt;&lt;li&gt;&lt;font style=&quot;font-size: 20px;&quot;&gt;&lt;b&gt;크기: Standard E2s v3&lt;/b&gt;&lt;/font&gt;&lt;/li&gt;&lt;li&gt;&lt;b&gt;vCPU: 2&lt;/b&gt;&lt;/li&gt;&lt;li&gt;&lt;b&gt;RAM: 16GiB&lt;/b&gt;&lt;/li&gt;&lt;li&gt;&lt;b&gt;OS: Linux (ubuntu 18.04)&lt;/b&gt;&lt;/li&gt;&lt;li&gt;&lt;b&gt;공인IP: 40.82.156.232&lt;/b&gt;&lt;/li&gt;&lt;li&gt;&lt;b&gt;내부IP: 10.5.0.8&lt;/b&gt;&lt;/li&gt;&lt;/ol&gt;&lt;/div&gt;" style="rounded=0;whiteSpace=wrap;html=1;align=left;fillColor=#E6E6E6;" parent="1" vertex="1">
          <mxGeometry x="3560" y="2260" width="350" height="170" as="geometry" />
        </mxCell>
        <mxCell id="io7zwHNE9pA3boUVpFcz-11" value="" style="rounded=0;whiteSpace=wrap;html=1;fillColor=#99CCFF;fontColor=#ffffff;strokeColor=#006EAF;strokeWidth=0;" parent="1" vertex="1">
          <mxGeometry x="3560" y="2462.25" width="1010" height="957.75" as="geometry" />
        </mxCell>
        <mxCell id="io7zwHNE9pA3boUVpFcz-12" value="" style="image;sketch=0;aspect=fixed;html=1;points=[];align=center;fontSize=12;image=img/lib/mscae/Docker.svg;" parent="1" vertex="1">
          <mxGeometry x="3578.59" y="2482.25" width="131.41" height="107.75" as="geometry" />
        </mxCell>
        <mxCell id="io7zwHNE9pA3boUVpFcz-13" value="&lt;font style=&quot;&quot;&gt;&lt;font style=&quot;font-size: 24px;&quot;&gt;flexing-cps-big-data-server-rc&lt;/font&gt;&lt;br&gt;&lt;/font&gt;&lt;font color=&quot;#000000&quot; style=&quot;font-size: 20px;&quot;&gt;uvclab/flexing-cps-big-data-server-rc:0.1&lt;/font&gt;" style="rounded=1;whiteSpace=wrap;html=1;fillColor=#1ba1e2;fontColor=#ffffff;strokeColor=#006EAF;" parent="1" vertex="1">
          <mxGeometry x="4111.25" y="2730" width="387.5" height="130" as="geometry" />
        </mxCell>
        <mxCell id="io7zwHNE9pA3boUVpFcz-14" value="&lt;span style=&quot;border-color: var(--border-color); text-align: left; font-size: 19px;&quot;&gt;&lt;b&gt;&lt;font style=&quot;border-color: var(--border-color); font-size: 19px;&quot;&gt;port: 3001 (big-data-server&lt;/font&gt;&lt;span style=&quot;border-color: var(--border-color); background-color: initial;&quot;&gt;)&lt;/span&gt;&lt;/b&gt;&lt;/span&gt;" style="html=1;rounded=0;strokeWidth=3;" parent="1" vertex="1">
          <mxGeometry x="4556.25" y="2775" width="283.75" height="40" as="geometry" />
        </mxCell>
        <mxCell id="io7zwHNE9pA3boUVpFcz-15" value="" style="endArrow=none;html=1;rounded=0;align=center;verticalAlign=top;endFill=0;labelBackgroundColor=none;endSize=2;strokeWidth=3;" parent="1" edge="1">
          <mxGeometry relative="1" as="geometry">
            <mxPoint x="4498.75" y="2794.75" as="targetPoint" />
            <mxPoint x="4498.75" y="2794.75" as="sourcePoint" />
          </mxGeometry>
        </mxCell>
        <mxCell id="io7zwHNE9pA3boUVpFcz-16" value="" style="endArrow=none;html=1;rounded=0;align=center;verticalAlign=top;endFill=0;labelBackgroundColor=none;endSize=2;strokeWidth=3;" parent="1" edge="1">
          <mxGeometry relative="1" as="geometry">
            <mxPoint x="4556.25" y="2793.59375" as="sourcePoint" />
            <mxPoint x="4498.75" y="2792.78515625" as="targetPoint" />
          </mxGeometry>
        </mxCell>
        <mxCell id="io7zwHNE9pA3boUVpFcz-17" value="&lt;font style=&quot;&quot;&gt;&lt;font style=&quot;font-size: 24px;&quot;&gt;eclipse-mosquitto-cps&lt;/font&gt;&lt;br&gt;&lt;/font&gt;&lt;font color=&quot;#000000&quot; style=&quot;font-size: 20px;&quot;&gt;eclipse-mosquitto:2.0.10&lt;/font&gt;" style="rounded=1;whiteSpace=wrap;html=1;fillColor=#1ba1e2;fontColor=#ffffff;strokeColor=#006EAF;" parent="1" vertex="1">
          <mxGeometry x="3631.25" y="2730" width="387.5" height="130" as="geometry" />
        </mxCell>
        <mxCell id="io7zwHNE9pA3boUVpFcz-18" value="&lt;font style=&quot;&quot;&gt;&lt;font style=&quot;font-size: 24px;&quot;&gt;flexing-cps-server-rc&lt;/font&gt;&lt;br&gt;&lt;/font&gt;&lt;font color=&quot;#000000&quot; style=&quot;font-size: 20px;&quot;&gt;uvclab/flexing-cps-server-rc:0.2.1&lt;/font&gt;" style="rounded=1;whiteSpace=wrap;html=1;fillColor=#1ba1e2;fontColor=#ffffff;strokeColor=#006EAF;" parent="1" vertex="1">
          <mxGeometry x="3631.25" y="2970" width="387.5" height="130" as="geometry" />
        </mxCell>
        <mxCell id="io7zwHNE9pA3boUVpFcz-19" value="&lt;font style=&quot;&quot;&gt;&lt;font style=&quot;font-size: 24px;&quot;&gt;flexing-cps-portal-rc-portal&lt;/font&gt;&lt;br&gt;&lt;/font&gt;&lt;font color=&quot;#000000&quot; style=&quot;font-size: 20px;&quot;&gt;uvclab/flexing-cps-portal-rc:0.5.0&lt;/font&gt;" style="rounded=1;whiteSpace=wrap;html=1;fillColor=#1ba1e2;fontColor=#ffffff;strokeColor=#006EAF;" parent="1" vertex="1">
          <mxGeometry x="4111.25" y="2970" width="387.5" height="130" as="geometry" />
        </mxCell>
        <mxCell id="io7zwHNE9pA3boUVpFcz-20" value="&lt;font style=&quot;&quot;&gt;&lt;font style=&quot;font-size: 24px;&quot;&gt;flexing-cps-ml-server-rc&lt;/font&gt;&lt;br&gt;&lt;/font&gt;&lt;font color=&quot;#000000&quot; style=&quot;font-size: 20px;&quot;&gt;uvclab/flexing-cps-ml-server-rc&lt;/font&gt;" style="rounded=1;whiteSpace=wrap;html=1;fillColor=#1ba1e2;fontColor=#ffffff;strokeColor=#006EAF;" parent="1" vertex="1">
          <mxGeometry x="3634.37" y="3210" width="387.5" height="130" as="geometry" />
        </mxCell>
        <mxCell id="io7zwHNE9pA3boUVpFcz-21" value="&lt;font style=&quot;&quot;&gt;&lt;font style=&quot;font-size: 24px;&quot;&gt;flexing-cps-eda-server-rc&lt;/font&gt;&lt;br&gt;&lt;/font&gt;&lt;font color=&quot;#000000&quot; style=&quot;font-size: 20px;&quot;&gt;uvclab/flexing-cps-eda-server-rc&lt;/font&gt;" style="rounded=1;whiteSpace=wrap;html=1;fillColor=#1ba1e2;fontColor=#ffffff;strokeColor=#006EAF;" parent="1" vertex="1">
          <mxGeometry x="4108.12" y="3210" width="387.5" height="130" as="geometry" />
        </mxCell>
        <mxCell id="io7zwHNE9pA3boUVpFcz-22" value="&lt;font style=&quot;&quot;&gt;&lt;font style=&quot;font-size: 24px;&quot;&gt;cadvisor&lt;/font&gt;&lt;br&gt;&lt;/font&gt;&lt;font style=&quot;font-size: 20px;&quot;&gt;&lt;span style=&quot;border-color: var(--border-color); color: rgb(0, 0, 0); text-align: left;&quot;&gt;gcr.io/cadvisor/cadvisor:latest&lt;br&gt;&lt;/span&gt;&lt;/font&gt;" style="rounded=1;whiteSpace=wrap;html=1;fillColor=#1ba1e2;fontColor=#ffffff;strokeColor=#006EAF;" parent="1" vertex="1">
          <mxGeometry x="4111.25" y="2500" width="387.5" height="130" as="geometry" />
        </mxCell>
        <mxCell id="io7zwHNE9pA3boUVpFcz-23" value="&lt;span style=&quot;border-color: var(--border-color); text-align: left;&quot;&gt;&lt;b style=&quot;&quot;&gt;&lt;font style=&quot;border-color: var(--border-color); font-size: 19px;&quot;&gt;port: 8080&lt;/font&gt;&lt;/b&gt;&lt;/span&gt;" style="html=1;rounded=0;strokeWidth=3;" parent="1" vertex="1">
          <mxGeometry x="4556.25" y="2548.75" width="183.75" height="40" as="geometry" />
        </mxCell>
        <mxCell id="io7zwHNE9pA3boUVpFcz-24" value="" style="endArrow=none;html=1;rounded=0;align=center;verticalAlign=top;endFill=0;labelBackgroundColor=none;endSize=2;strokeWidth=3;" parent="1" edge="1">
          <mxGeometry relative="1" as="geometry">
            <mxPoint x="4498.75" y="2568.5" as="targetPoint" />
            <mxPoint x="4498.75" y="2568.5" as="sourcePoint" />
          </mxGeometry>
        </mxCell>
        <mxCell id="io7zwHNE9pA3boUVpFcz-25" value="" style="endArrow=none;html=1;rounded=0;align=center;verticalAlign=top;endFill=0;labelBackgroundColor=none;endSize=2;strokeWidth=3;" parent="1" edge="1">
          <mxGeometry relative="1" as="geometry">
            <mxPoint x="4556.25" y="2567.34375" as="sourcePoint" />
            <mxPoint x="4498.75" y="2566.53515625" as="targetPoint" />
          </mxGeometry>
        </mxCell>
        <mxCell id="io7zwHNE9pA3boUVpFcz-26" value="&lt;font color=&quot;#ffffff&quot; style=&quot;font-size: 17px;&quot;&gt;v0.38.6&lt;/font&gt;" style="text;strokeColor=none;align=left;fillColor=none;html=1;verticalAlign=middle;whiteSpace=wrap;rounded=0;" parent="1" vertex="1">
          <mxGeometry x="4430" y="2500" width="80" height="40" as="geometry" />
        </mxCell>
        <mxCell id="io7zwHNE9pA3boUVpFcz-27" value="&lt;span style=&quot;border-color: var(--border-color); text-align: left; font-size: 19px;&quot;&gt;&lt;b&gt;&lt;font style=&quot;border-color: var(--border-color); font-size: 19px;&quot;&gt;port: 1883 (mqtt&lt;/font&gt;&lt;span style=&quot;border-color: var(--border-color); background-color: initial;&quot;&gt;)&lt;/span&gt;&lt;/b&gt;&lt;/span&gt;" style="html=1;rounded=0;strokeWidth=3;" parent="1" vertex="1">
          <mxGeometry x="3383.75" y="2740" width="190" height="40" as="geometry" />
        </mxCell>
        <mxCell id="io7zwHNE9pA3boUVpFcz-28" value="" style="endArrow=none;html=1;rounded=0;align=center;verticalAlign=top;endFill=0;labelBackgroundColor=none;endSize=2;strokeWidth=3;" parent="1" source="io7zwHNE9pA3boUVpFcz-27" edge="1">
          <mxGeometry relative="1" as="geometry">
            <mxPoint x="3631.25" y="2760" as="targetPoint" />
          </mxGeometry>
        </mxCell>
        <mxCell id="io7zwHNE9pA3boUVpFcz-29" value="&lt;span style=&quot;border-color: var(--border-color); text-align: left; font-size: 19px;&quot;&gt;&lt;b&gt;&lt;font style=&quot;border-color: var(--border-color); font-size: 19px;&quot;&gt;port: 9001 (wss&lt;/font&gt;&lt;span style=&quot;border-color: var(--border-color); background-color: initial;&quot;&gt;)&lt;/span&gt;&lt;/b&gt;&lt;/span&gt;" style="html=1;rounded=0;strokeWidth=3;" parent="1" vertex="1">
          <mxGeometry x="3383.75" y="2810" width="190" height="40" as="geometry" />
        </mxCell>
        <mxCell id="io7zwHNE9pA3boUVpFcz-30" value="" style="endArrow=none;html=1;rounded=0;align=center;verticalAlign=top;endFill=0;labelBackgroundColor=none;endSize=2;strokeWidth=3;" parent="1" source="io7zwHNE9pA3boUVpFcz-29" edge="1">
          <mxGeometry relative="1" as="geometry">
            <mxPoint x="3631.25" y="2830" as="targetPoint" />
          </mxGeometry>
        </mxCell>
        <mxCell id="io7zwHNE9pA3boUVpFcz-31" value="&lt;span style=&quot;border-color: var(--border-color); text-align: left; font-size: 19px;&quot;&gt;&lt;b&gt;&lt;font style=&quot;border-color: var(--border-color); font-size: 19px;&quot;&gt;port: 3000 (server-http&lt;/font&gt;&lt;span style=&quot;border-color: var(--border-color); background-color: initial;&quot;&gt;)&lt;/span&gt;&lt;/b&gt;&lt;/span&gt;" style="html=1;rounded=0;strokeWidth=3;" parent="1" vertex="1">
          <mxGeometry x="3330" y="2980" width="243.75" height="40" as="geometry" />
        </mxCell>
        <mxCell id="io7zwHNE9pA3boUVpFcz-32" value="" style="endArrow=none;html=1;rounded=0;align=center;verticalAlign=top;endFill=0;labelBackgroundColor=none;endSize=2;strokeWidth=3;" parent="1" source="io7zwHNE9pA3boUVpFcz-31" edge="1">
          <mxGeometry relative="1" as="geometry">
            <mxPoint x="3631.25" y="3000" as="targetPoint" />
          </mxGeometry>
        </mxCell>
        <mxCell id="io7zwHNE9pA3boUVpFcz-33" value="&lt;span style=&quot;border-color: var(--border-color); text-align: left; font-size: 19px;&quot;&gt;&lt;b&gt;&lt;font style=&quot;border-color: var(--border-color); font-size: 19px;&quot;&gt;port: 1443 (server-https&lt;/font&gt;&lt;span style=&quot;border-color: var(--border-color); background-color: initial;&quot;&gt;)&lt;/span&gt;&lt;/b&gt;&lt;/span&gt;" style="html=1;rounded=0;strokeWidth=3;" parent="1" vertex="1">
          <mxGeometry x="3320" y="3050" width="253.75" height="40" as="geometry" />
        </mxCell>
        <mxCell id="io7zwHNE9pA3boUVpFcz-34" value="" style="endArrow=none;html=1;rounded=0;align=center;verticalAlign=top;endFill=0;labelBackgroundColor=none;endSize=2;strokeWidth=3;" parent="1" source="io7zwHNE9pA3boUVpFcz-33" edge="1">
          <mxGeometry relative="1" as="geometry">
            <mxPoint x="3631.25" y="3070" as="targetPoint" />
          </mxGeometry>
        </mxCell>
        <mxCell id="io7zwHNE9pA3boUVpFcz-35" value="&lt;span style=&quot;border-color: var(--border-color); text-align: left; font-size: 19px;&quot;&gt;&lt;b&gt;&lt;font style=&quot;border-color: var(--border-color); font-size: 19px;&quot;&gt;port: 80 (portal-http&lt;/font&gt;&lt;span style=&quot;border-color: var(--border-color); background-color: initial;&quot;&gt;)&lt;/span&gt;&lt;/b&gt;&lt;/span&gt;" style="html=1;rounded=0;strokeWidth=3;" parent="1" vertex="1">
          <mxGeometry x="4556.25" y="2980" width="223.75" height="40" as="geometry" />
        </mxCell>
        <mxCell id="io7zwHNE9pA3boUVpFcz-36" value="" style="endArrow=none;html=1;rounded=0;align=center;verticalAlign=top;endFill=0;labelBackgroundColor=none;endSize=2;strokeWidth=3;" parent="1" source="io7zwHNE9pA3boUVpFcz-35" edge="1">
          <mxGeometry relative="1" as="geometry">
            <mxPoint x="4498.75" y="2999.75" as="targetPoint" />
          </mxGeometry>
        </mxCell>
        <mxCell id="io7zwHNE9pA3boUVpFcz-37" value="&lt;span style=&quot;border-color: var(--border-color); text-align: left; font-size: 19px;&quot;&gt;&lt;b&gt;&lt;font style=&quot;border-color: var(--border-color); font-size: 19px;&quot;&gt;port: 443 (portal-https&lt;/font&gt;&lt;span style=&quot;border-color: var(--border-color); background-color: initial;&quot;&gt;)&lt;/span&gt;&lt;/b&gt;&lt;/span&gt;" style="html=1;rounded=0;strokeWidth=3;" parent="1" vertex="1">
          <mxGeometry x="4556.25" y="3050" width="233.75" height="40" as="geometry" />
        </mxCell>
        <mxCell id="io7zwHNE9pA3boUVpFcz-38" value="" style="endArrow=none;html=1;rounded=0;align=center;verticalAlign=top;endFill=0;labelBackgroundColor=none;endSize=2;strokeWidth=3;" parent="1" edge="1">
          <mxGeometry relative="1" as="geometry">
            <mxPoint x="4498.75" y="3069.75" as="sourcePoint" />
            <mxPoint x="4498.75" y="3069.75" as="targetPoint" />
          </mxGeometry>
        </mxCell>
        <mxCell id="io7zwHNE9pA3boUVpFcz-39" value="" style="endArrow=none;html=1;rounded=0;align=center;verticalAlign=top;endFill=0;labelBackgroundColor=none;endSize=2;strokeWidth=3;" parent="1" source="io7zwHNE9pA3boUVpFcz-37" edge="1">
          <mxGeometry relative="1" as="geometry">
            <mxPoint x="4556.75" y="3069.75" as="sourcePoint" />
            <mxPoint x="4498.75" y="3067.7837331334335" as="targetPoint" />
          </mxGeometry>
        </mxCell>
        <mxCell id="io7zwHNE9pA3boUVpFcz-40" value="&lt;span style=&quot;border-color: var(--border-color); text-align: left; font-size: 19px;&quot;&gt;&lt;b&gt;&lt;font style=&quot;border-color: var(--border-color); font-size: 19px;&quot;&gt;port: 5001 (eda-server&lt;/font&gt;&lt;span style=&quot;border-color: var(--border-color); background-color: initial;&quot;&gt;)&lt;/span&gt;&lt;/b&gt;&lt;/span&gt;" style="html=1;rounded=0;strokeWidth=3;" parent="1" vertex="1">
          <mxGeometry x="4553.12" y="3255" width="236.88" height="40" as="geometry" />
        </mxCell>
        <mxCell id="io7zwHNE9pA3boUVpFcz-41" value="" style="endArrow=none;html=1;rounded=0;align=center;verticalAlign=top;endFill=0;labelBackgroundColor=none;endSize=2;strokeWidth=3;" parent="1" edge="1">
          <mxGeometry relative="1" as="geometry">
            <mxPoint x="4495.62" y="3274.75" as="targetPoint" />
            <mxPoint x="4495.62" y="3274.75" as="sourcePoint" />
          </mxGeometry>
        </mxCell>
        <mxCell id="io7zwHNE9pA3boUVpFcz-42" value="" style="endArrow=none;html=1;rounded=0;align=center;verticalAlign=top;endFill=0;labelBackgroundColor=none;endSize=2;strokeWidth=3;" parent="1" source="io7zwHNE9pA3boUVpFcz-40" edge="1">
          <mxGeometry relative="1" as="geometry">
            <mxPoint x="4553.62" y="3274.75" as="sourcePoint" />
            <mxPoint x="4495.62" y="3272.7837331334335" as="targetPoint" />
          </mxGeometry>
        </mxCell>
        <mxCell id="io7zwHNE9pA3boUVpFcz-43" value="&lt;span style=&quot;border-color: var(--border-color); text-align: left; font-size: 19px;&quot;&gt;&lt;b&gt;&lt;font style=&quot;border-color: var(--border-color); font-size: 19px;&quot;&gt;port: 5000 (machine-learning-server&lt;/font&gt;&lt;span style=&quot;border-color: var(--border-color); background-color: initial;&quot;&gt;)&lt;/span&gt;&lt;/b&gt;&lt;/span&gt;" style="html=1;rounded=0;strokeWidth=3;" parent="1" vertex="1">
          <mxGeometry x="3220" y="3255" width="359.88" height="40" as="geometry" />
        </mxCell>
        <mxCell id="io7zwHNE9pA3boUVpFcz-44" value="" style="endArrow=none;html=1;rounded=0;align=center;verticalAlign=top;endFill=0;labelBackgroundColor=none;endSize=2;strokeWidth=3;" parent="1" source="io7zwHNE9pA3boUVpFcz-43" edge="1">
          <mxGeometry relative="1" as="geometry">
            <mxPoint x="3637.38" y="3275" as="targetPoint" />
          </mxGeometry>
        </mxCell>
        <mxCell id="io7zwHNE9pA3boUVpFcz-45" value="" style="rounded=0;whiteSpace=wrap;html=1;dashed=1;dashPattern=1 1;strokeWidth=8;strokeColor=#999999;fillColor=#E6E6E6;" parent="1" vertex="1">
          <mxGeometry x="4970" y="2170" width="1070" height="1280" as="geometry" />
        </mxCell>
        <mxCell id="io7zwHNE9pA3boUVpFcz-46" value="&lt;font size=&quot;1&quot; style=&quot;&quot;&gt;&lt;b style=&quot;font-size: 30px;&quot;&gt;VM (flexing-cps-rc-influxdb)&lt;/b&gt;&lt;/font&gt;" style="text;strokeColor=none;align=center;fillColor=none;html=1;verticalAlign=middle;whiteSpace=wrap;rounded=0;" parent="1" vertex="1">
          <mxGeometry x="5050" y="2195.25" width="420" height="30" as="geometry" />
        </mxCell>
        <mxCell id="io7zwHNE9pA3boUVpFcz-47" value="" style="image;html=1;image=img/lib/clip_art/computers/Virtual_Machine_128x128.png" parent="1" vertex="1">
          <mxGeometry x="5000" y="2180.25" width="50" height="60" as="geometry" />
        </mxCell>
        <mxCell id="io7zwHNE9pA3boUVpFcz-48" value="&lt;div style=&quot;font-size: 20px;&quot;&gt;&lt;ol&gt;&lt;li&gt;&lt;font style=&quot;font-size: 20px;&quot;&gt;&lt;b&gt;크기: Standard E2s v3&lt;/b&gt;&lt;/font&gt;&lt;/li&gt;&lt;li&gt;&lt;b&gt;vCPU: 2&lt;/b&gt;&lt;/li&gt;&lt;li&gt;&lt;b&gt;RAM: 16GiB&lt;/b&gt;&lt;/li&gt;&lt;li&gt;&lt;b&gt;OS: Linux (ubuntu 18.04)&lt;/b&gt;&lt;/li&gt;&lt;li&gt;&lt;b&gt;공인IP: 40.82.159.212&lt;/b&gt;&lt;/li&gt;&lt;li&gt;&lt;b&gt;내부IP: 10.5.0.9&lt;/b&gt;&lt;/li&gt;&lt;/ol&gt;&lt;/div&gt;" style="rounded=0;whiteSpace=wrap;html=1;align=left;fillColor=#E6E6E6;" parent="1" vertex="1">
          <mxGeometry x="5000" y="2260" width="350" height="170" as="geometry" />
        </mxCell>
        <mxCell id="io7zwHNE9pA3boUVpFcz-49" value="" style="rounded=0;whiteSpace=wrap;html=1;fillColor=#99CCFF;fontColor=#ffffff;strokeColor=#006EAF;strokeWidth=0;" parent="1" vertex="1">
          <mxGeometry x="5000" y="2462.25" width="1010" height="437.75" as="geometry" />
        </mxCell>
        <mxCell id="io7zwHNE9pA3boUVpFcz-50" value="" style="image;sketch=0;aspect=fixed;html=1;points=[];align=center;fontSize=12;image=img/lib/mscae/Docker.svg;" parent="1" vertex="1">
          <mxGeometry x="5018.59" y="2482.25" width="131.41" height="107.75" as="geometry" />
        </mxCell>
        <mxCell id="io7zwHNE9pA3boUVpFcz-51" value="&lt;font style=&quot;&quot;&gt;&lt;font style=&quot;font-size: 24px;&quot;&gt;influxdb-cps&lt;/font&gt;&lt;br&gt;&lt;/font&gt;&lt;font color=&quot;#000000&quot; style=&quot;font-size: 20px;&quot;&gt;influxdb:1.8&lt;/font&gt;" style="rounded=1;whiteSpace=wrap;html=1;fillColor=#1ba1e2;fontColor=#ffffff;strokeColor=#006EAF;" parent="1" vertex="1">
          <mxGeometry x="5551.25" y="2730" width="387.5" height="130" as="geometry" />
        </mxCell>
        <mxCell id="io7zwHNE9pA3boUVpFcz-52" value="" style="endArrow=none;html=1;rounded=0;align=center;verticalAlign=top;endFill=0;labelBackgroundColor=none;endSize=2;strokeWidth=3;" parent="1" edge="1">
          <mxGeometry relative="1" as="geometry">
            <mxPoint x="5938.75" y="2794.75" as="targetPoint" />
            <mxPoint x="5938.75" y="2794.75" as="sourcePoint" />
          </mxGeometry>
        </mxCell>
        <mxCell id="io7zwHNE9pA3boUVpFcz-53" value="&lt;font style=&quot;&quot;&gt;&lt;font style=&quot;font-size: 24px;&quot;&gt;cadvisor&lt;/font&gt;&lt;br&gt;&lt;/font&gt;&lt;font style=&quot;font-size: 20px;&quot;&gt;&lt;span style=&quot;border-color: var(--border-color); color: rgb(0, 0, 0); text-align: left;&quot;&gt;gcr.io/cadvisor/cadvisor:latest&lt;br&gt;&lt;/span&gt;&lt;/font&gt;" style="rounded=1;whiteSpace=wrap;html=1;fillColor=#1ba1e2;fontColor=#ffffff;strokeColor=#006EAF;" parent="1" vertex="1">
          <mxGeometry x="5551.25" y="2500" width="387.5" height="130" as="geometry" />
        </mxCell>
        <mxCell id="io7zwHNE9pA3boUVpFcz-54" value="" style="endArrow=none;html=1;rounded=0;align=center;verticalAlign=top;endFill=0;labelBackgroundColor=none;endSize=2;strokeWidth=3;" parent="1" edge="1">
          <mxGeometry relative="1" as="geometry">
            <mxPoint x="5938.75" y="2559.75" as="targetPoint" />
            <mxPoint x="5938.75" y="2559.75" as="sourcePoint" />
          </mxGeometry>
        </mxCell>
        <mxCell id="io7zwHNE9pA3boUVpFcz-55" value="&lt;font color=&quot;#ffffff&quot; style=&quot;font-size: 17px;&quot;&gt;v0.38.6&lt;/font&gt;" style="text;strokeColor=none;align=left;fillColor=none;html=1;verticalAlign=middle;whiteSpace=wrap;rounded=0;" parent="1" vertex="1">
          <mxGeometry x="5870" y="2500" width="80" height="40" as="geometry" />
        </mxCell>
        <mxCell id="io7zwHNE9pA3boUVpFcz-56" value="&lt;span style=&quot;border-color: var(--border-color); text-align: left;&quot;&gt;&lt;b style=&quot;&quot;&gt;&lt;font style=&quot;border-color: var(--border-color); font-size: 19px;&quot;&gt;port: 8080&lt;/font&gt;&lt;/b&gt;&lt;/span&gt;" style="html=1;rounded=0;strokeWidth=3;" parent="1" vertex="1">
          <mxGeometry x="5997.5" y="2548.75" width="183.75" height="40" as="geometry" />
        </mxCell>
        <mxCell id="io7zwHNE9pA3boUVpFcz-57" value="" style="endArrow=none;html=1;rounded=0;align=center;verticalAlign=top;endFill=0;labelBackgroundColor=none;endSize=2;strokeWidth=3;" parent="1" edge="1">
          <mxGeometry relative="1" as="geometry">
            <mxPoint x="5940" y="2568.5" as="targetPoint" />
            <mxPoint x="5940" y="2568.5" as="sourcePoint" />
          </mxGeometry>
        </mxCell>
        <mxCell id="io7zwHNE9pA3boUVpFcz-58" value="" style="endArrow=none;html=1;rounded=0;align=center;verticalAlign=top;endFill=0;labelBackgroundColor=none;endSize=2;strokeWidth=3;" parent="1" edge="1">
          <mxGeometry relative="1" as="geometry">
            <mxPoint x="5997.5" y="2567.34375" as="sourcePoint" />
            <mxPoint x="5940" y="2566.53515625" as="targetPoint" />
          </mxGeometry>
        </mxCell>
        <mxCell id="io7zwHNE9pA3boUVpFcz-59" value="&lt;span style=&quot;border-color: var(--border-color); text-align: left; font-size: 19px;&quot;&gt;&lt;b&gt;&lt;font style=&quot;border-color: var(--border-color); font-size: 19px;&quot;&gt;port: 8086 (influxdb&lt;/font&gt;&lt;span style=&quot;border-color: var(--border-color); background-color: initial;&quot;&gt;)&lt;/span&gt;&lt;/b&gt;&lt;/span&gt;" style="html=1;rounded=0;strokeWidth=3;" parent="1" vertex="1">
          <mxGeometry x="5996.25" y="2775" width="213.75" height="40" as="geometry" />
        </mxCell>
        <mxCell id="io7zwHNE9pA3boUVpFcz-60" value="" style="endArrow=none;html=1;rounded=0;align=center;verticalAlign=top;endFill=0;labelBackgroundColor=none;endSize=2;strokeWidth=3;" parent="1" edge="1">
          <mxGeometry relative="1" as="geometry">
            <mxPoint x="5938.75" y="2794.75" as="targetPoint" />
            <mxPoint x="5938.75" y="2794.75" as="sourcePoint" />
          </mxGeometry>
        </mxCell>
        <mxCell id="io7zwHNE9pA3boUVpFcz-61" value="" style="endArrow=none;html=1;rounded=0;align=center;verticalAlign=top;endFill=0;labelBackgroundColor=none;endSize=2;strokeWidth=3;" parent="1" edge="1">
          <mxGeometry relative="1" as="geometry">
            <mxPoint x="5996.25" y="2793.59375" as="sourcePoint" />
            <mxPoint x="5938.75" y="2792.78515625" as="targetPoint" />
          </mxGeometry>
        </mxCell>
        <mxCell id="io7zwHNE9pA3boUVpFcz-62" value="" style="rounded=0;whiteSpace=wrap;html=1;strokeColor=#C3ABD0;strokeWidth=8;fillColor=#E1D5E7;" parent="1" vertex="1">
          <mxGeometry x="4800" y="1270" width="1080" height="670" as="geometry" />
        </mxCell>
        <mxCell id="io7zwHNE9pA3boUVpFcz-63" value="&lt;b style=&quot;&quot;&gt;&lt;font style=&quot;font-size: 30px;&quot;&gt;사내 서버 (220.90.135.177) 사내 랙&lt;/font&gt;&lt;/b&gt;" style="text;strokeColor=none;align=center;fillColor=none;html=1;verticalAlign=middle;whiteSpace=wrap;rounded=0;" parent="1" vertex="1">
          <mxGeometry x="4895.63" y="1300" width="374.37" height="30" as="geometry" />
        </mxCell>
        <mxCell id="io7zwHNE9pA3boUVpFcz-64" value="" style="sketch=0;aspect=fixed;pointerEvents=1;shadow=0;dashed=0;html=1;strokeColor=none;labelPosition=center;verticalLabelPosition=bottom;verticalAlign=top;align=center;fillColor=#00188D;shape=mxgraph.azure.server_rack" parent="1" vertex="1">
          <mxGeometry x="4840" y="1290" width="50" height="50" as="geometry" />
        </mxCell>
        <mxCell id="io7zwHNE9pA3boUVpFcz-65" value="" style="endArrow=none;html=1;rounded=0;strokeWidth=5;endSize=8;strokeColor=#666666;" parent="1" edge="1">
          <mxGeometry width="50" height="50" relative="1" as="geometry">
            <mxPoint x="6130" y="2068" as="sourcePoint" />
            <mxPoint x="4680" y="2068" as="targetPoint" />
          </mxGeometry>
        </mxCell>
        <mxCell id="io7zwHNE9pA3boUVpFcz-66" value="" style="endArrow=classic;html=1;rounded=0;strokeWidth=5;endSize=8;strokeColor=#666666;entryX=0.706;entryY=1.033;entryDx=0;entryDy=0;entryPerimeter=0;" parent="1" target="io7zwHNE9pA3boUVpFcz-72" edge="1">
          <mxGeometry width="50" height="50" relative="1" as="geometry">
            <mxPoint x="5140" y="2070" as="sourcePoint" />
            <mxPoint x="5140" y="2000" as="targetPoint" />
          </mxGeometry>
        </mxCell>
        <mxCell id="io7zwHNE9pA3boUVpFcz-67" value="" style="rounded=0;whiteSpace=wrap;html=1;fillColor=#99CCFF;fontColor=#ffffff;strokeColor=#006EAF;strokeWidth=0;" parent="1" vertex="1">
          <mxGeometry x="4830" y="1376.12" width="1020" height="529" as="geometry" />
        </mxCell>
        <mxCell id="io7zwHNE9pA3boUVpFcz-69" value="&lt;font color=&quot;#ffffff&quot; style=&quot;font-size: 17px;&quot;&gt;1.8&lt;/font&gt;" style="text;strokeColor=none;align=center;fillColor=none;html=1;verticalAlign=middle;whiteSpace=wrap;rounded=0;" parent="1" vertex="1">
          <mxGeometry x="5870" y="2730" width="80" height="40" as="geometry" />
        </mxCell>
        <mxCell id="io7zwHNE9pA3boUVpFcz-70" style="edgeStyle=orthogonalEdgeStyle;rounded=0;orthogonalLoop=1;jettySize=auto;html=1;entryX=0;entryY=0.5;entryDx=0;entryDy=0;" parent="1" source="io7zwHNE9pA3boUVpFcz-71" target="io7zwHNE9pA3boUVpFcz-75" edge="1">
          <mxGeometry relative="1" as="geometry" />
        </mxCell>
        <mxCell id="io7zwHNE9pA3boUVpFcz-71" value="&lt;font style=&quot;&quot;&gt;&lt;span style=&quot;font-size: 24px;&quot;&gt;&lt;font color=&quot;#ffffff&quot;&gt;prometheus&lt;/font&gt;&lt;/span&gt;&lt;br&gt;&lt;font style=&quot;font-size: 20px;&quot;&gt;prom/prometheus&lt;/font&gt;&lt;br&gt;&lt;/font&gt;" style="rounded=1;whiteSpace=wrap;html=1;strokeColor=none;strokeWidth=0;fillColor=#1BA1E2;" parent="1" vertex="1">
          <mxGeometry x="4933.5" y="1717.9899999999998" width="346.5" height="142.01" as="geometry" />
        </mxCell>
        <mxCell id="io7zwHNE9pA3boUVpFcz-72" value="&lt;span style=&quot;border-color: var(--border-color); text-align: left;&quot;&gt;&lt;b style=&quot;&quot;&gt;&lt;font style=&quot;border-color: var(--border-color); font-size: 19px;&quot;&gt;port: 9090&lt;/font&gt;&lt;/b&gt;&lt;/span&gt;" style="html=1;rounded=0;strokeWidth=3;" parent="1" vertex="1">
          <mxGeometry x="5026.75" y="1953.58" width="160" height="40" as="geometry" />
        </mxCell>
        <mxCell id="io7zwHNE9pA3boUVpFcz-73" value="" style="endArrow=none;html=1;rounded=0;align=center;verticalAlign=top;endFill=0;labelBackgroundColor=none;endSize=2;strokeWidth=3;entryX=0.5;entryY=1;entryDx=0;entryDy=0;" parent="1" source="io7zwHNE9pA3boUVpFcz-72" target="io7zwHNE9pA3boUVpFcz-71" edge="1">
          <mxGeometry relative="1" as="geometry">
            <mxPoint x="5106.75" y="1870.2499999999995" as="targetPoint" />
          </mxGeometry>
        </mxCell>
        <mxCell id="io7zwHNE9pA3boUVpFcz-74" value="" style="shape=image;verticalLabelPosition=bottom;labelBackgroundColor=default;verticalAlign=top;aspect=fixed;imageAspect=0;image=data:image/png,iVBORw0KGgoAAAANSUhEUgAAAgAAAAIACAMAAADDpiTIAAAC/VBMVEUAAAD/AADmUi3mUizmUizmUyv/QEDfUDDlUizmUizmUSv/ZjPlUizmUizmUizmUSzmUiznUivnUSvmUizmUizmUSzlUS3mUS3mUizjVTnmUiznUizlUizmUivmUiznVTHnUi3oUS7mUizmUizoXS7mUizlUivmUiznUy3nUC3rTifmUiznUCvnUizpUCzmUC3mUizoVS7nUSvoTy3nUizkUS3/gADmUyzlUSzmUS3mUyzmUizmUizmUizlUyrmUizmUizjUynmUizlUyznUyvlUivmUizpTiziTifmUSzmUSvmUSznUizmUizmUizmTTPmUSzlUS3nUSzmUi3mUyzbSSToUS7mUiznUizlUSvpUy3nUi3mUyzmUS3mUizhSy3lUizmUi3mVSvmUizmUi7nUy3uVTPmUyzmUizmUy3mUizVVSvmUizmUSznUSvlUSzmUSzmUy3mUy3jVSvmUizmUizmUyzmUyzrUinmUizmUi3mUy3mUizlUivmUi3lUyzmUizlUi3mUizmUy3mUyzlVCzmUivmUizmUSznUizmUivlUy3/VVXkUS/lTyzmUizlUyvmUizmUiznUizmVC7mUi3nUivkUi7mUyzmUyzlUyznUizmUivlVS7mUizmUi3oUSvmUizjVSvlUy3mUizlUSvmUizmUSzmUizlUS3oUSzmUSzmUyvnUizmUizqVSvmUSvmUSvmUiznUyzmUSzmTSblUivoUyrmUivlUSzqVSvnUizmUinmUiznUyzmUiznUSznUyrmUiznUi3nUDDmUivnUizmUizmUizmUyvnUyvnUi3jVS/nUyzmUizmUizmUiznUS3nUivfYCDmUyvnUivmVCzmUivmUi3mUy3mUizlUizmUyvmUizkUCvlUy3mUizkUSjnUi3mUiznUS3mUSzoUi7mUizjUyznUivkVC7mUizlUizmUizkUSvmUSvmUSvmUizmUizmUyznVSvmUyztSSTmUizmUivmUizmUSvmUi3nVCzlUyvmUiySg1UNAAAA/nRSTlMAAT6MuLYEEIDgSAVt7L4p00Fe9MqQYaDyCa6nV4L+FWAs9aEL13ZdSkkN4jaSIzP9IbwtSzkCz0Vbe6LAyTHwliXvYl+f3BcaaGW5svn2ClJPndTuBxZRqIEisVymuhHHyB7LMn4PzPdQ3gavbmuKo3goEvzkrW8Z6LdmwTvOs+e90JrSOnyF8XPZlAMmHfhN2vPRPYM1HKqXi9vfJ+1aQuskROpYhr/md0yEsJ76GDxx1nXYFE43makMfx/NacR0K6TlIKXGeZxTiIkbVuHjtFWTCI5URmSPcsOVR/swbN0TfbU/1TibLmpDrGO7L8KNxemRKjQOmHB6h2dAWdI+yysAABYQSURBVHja7d15nBTVuQbgbpBFBmQXMFIqi7IzgBlQUARRQWDYEVGZoLLIEBRFuIqAouKoA4OAAWULGDFKBEQWQzCAEhUU0RBcruIKasg1GvGamxutX5ilZ3qp5VTV6Xq76rzP36dOV33vNzM9tZyKRIiIiIiIiIiIiIiIiIiIiIiIiIiIiIiIiIiIiIiIiIiIMlm0UuVTqlRF7wWBVKt+qq7rNdC7QRhZNWudjF8/Db0fhFG7jl6iLnpHCKJe/dL8G6B3hBCiDfUyp6N3hQCqNorl37gJel/If1lnxPLXf4beF/JftPznX9fPRO8M+a9pRf7aWeidId+dXZG/Xge9M+S7c5rFNUBz9N6Q31q0jMtfPxe9O+S35vH56+ehd4d81iohf701en/IX23aJjZAO/QOkb/aJ+avd0DvEPmqY3ZSA3RC7xH5qnNS/noX9B6Rn85Pzl//OXqXyEc5XVMaoBt6n8hHF6Tkz2tBSkn9BaBfiN4n8k/r1Pz17uidIv/0MGiAi9A7Rb652CB/vSd6r8g3lxg1gN4LvVvkkya9DRvgUvR+kU/6GOavX4beL/JJD+MGuBy9X+SPK7KNG0Dvi94z8kU/k/z1K9F7Rr7ob9YAA9B7Rn6oNtCsAXIHofeNfDBYNzUEvW/kg/bmDTAUvW/kg2HmDTB8BHrnKO1GauYNwL8BCrjKIn99FHrvKO2utmqAZm28TB0djT44sneNVQPo13qYecR1tdEHR/ZOtWyAMe4nzvvFWPSxkb1qmmUDZF/vduK8G/R+6IMjezfq1sa5nHf8BH1iNfTBkb2bbBpgUtTVtPmddX0y+thIwC9tGsDdaqEla01NQR8bCbjZrgFucTPr1OItb0UfGwnobtcAubc5n7TutJMb3o4+NBIx3a4B9BmO5/yvO4q344MlgXCnbQMMczpltErJdjPRh0Yi7rJtAH2Wwyn7uduMIBrYN4DDBQM7lS027+K7A/lvtn0DOPwaOKd0q7vRR0ZCuto3gP5LJxPG7jC7B31kJGSuQAPUcTDfoNhic/eij4yE3CfQAPr94vPNi23zAPrISEgdkQZoJDzdyILYNg+ij4yEPCTSALnC1/UeLt/mbPSRqahwfpbTTdqKNIBeU3C2BUXlmyxEF0NJjyya3M3Z9dtaQg2wWHC2uJUmlqBroaRHi7+zn+9ki1yhBtB/JTTZ0iI2ANatJbVfJn7mJkcTa4DHhGZ7XGcDgC0vKf6KlaLj24jlr/cUeU500PC4LSqhS6Gme0urv0p0od9Ogg0g9P6QhIUG2AAQq8vK31jwWpzdPaHl7rKfK5rwlOGv0aVQU99Y/desFRr/hGgDaPaLxiXONRhdCkX9JhbA5ULvfXxStAH0dbZzzUkYz/VlMJ4qT6BzjsDwKcIN8NuqNlN1SFxr6ml0JRRVcS5W6Gz8OuEG0J+xmWp94vCb0ZVQ1IyKCCaeYz+8kXgD/M56puikxOHPoiuhqDPjMuhqf2VgjHgDbNhoOdOmpOG8IQSjUnwIz9kO3yzeAPrzljM9ljT6VHQlFLUyPoTetv8J9HTQAFusLjPlJ19VmpaPLoWaliakYHcKf6uD/HV9k8VM21JGC5+OJplGJv4Y2rz8b7ujBnjBYqbfp4xuhS6FmsYnprDMevQFgtGXslg1bkduyuip6FKoaUdiCtnWj+j+wVED6FeZTmSwzIBN71F6nJUUg/X9nLc4a4DpphMNTR3M1w1A7EyKYYPlO6BfdNYAA83uNMm5O3WwloeuhZJuTc6hocXgwlyB1OOZXeFpZzT41+haKGlWcgy9Le7lme8wf72HyUSPGg12u74UeZG68ms988GDbRNPYrZqnOEThqeha6GkP6bksMt88DinDaDvNpxngWY0NpdrjQM0TQ1ij+ng3zluAOP3yV5pPJg3BgO8lJrD46aDX3bcANpeo3n+ZDyYXwIALkrNoa3ZRZylunO7jSYyaSS+fhpglUEQ203GWr4qwMHfgJUmY7Ot7yCgNDC8vFfZZPADLhrA6G/ATLPBfPuw77oZ5WD2N6CH7sLu1HmuMxt7Broc6tltGITx34ARuW4awOBvgOl3yfot0PVQjvH38eqGY2fpbmg7k+exOJ94JroeytlimMMrhmNfddUAqa+BuNJ8LFeM99lWzTCHaYZX8exXiTV0TfI8r5mPLeI7I/y1zSSIfQZj8xe5a4BFyWd4rRYaOxtdEcXsN8nB6G6+uu7yT3nwe8c0i7ECDxWTRGNNcphkMPZ1tw2QdLNfJaux2nx0SZSSZ/rD+Ebq4MVuG2BO4jznWg7ej66JUg6Y5jA4ZWxfzW0DrEo8r7TMcvDdjheuI/eGmuaQekXwSt21xLPBb1oPPoAuikoOmsaQelfIW+4bIOFB8StsBu8S3nvyao95DEXJ/7vtmOi+ARK+BdawGy22xCBJ8JxFDO2Sxr7tPn/9pfiJnrcb7fCFI+TeKRYxJJ/A/ZNdbhbmxk/U3G70wKXouqiijdVv9T8njj3k5LnwZEXxywXZv3LkL+jCqMLySc+kO/oP2MZmJe6Bw6r23yXqb0VXRhGW74CslTh2sqcGOFwxUW2B4VejK6OGFs0sU+gbPzavSCA3cxdWzCTyq6SAvwL8cNg6hXfix77rKf/4F0I1FRn/Hro2SviZdQjvx4/9b28N0L9iJqG/JUV7nR4MOXaowDqED+LGzte8NcCWiqnElhnjuYD022aTQZW4sTd7y1/PLb8cVCj2ZSK7i4sjIkeus8lgc8XQqncLpWZhZGyq0YIbzHFzSOTAjvrCP7WunghKVH5i+UPRLbqhCxR219pGUPGcVmfPDVB+IqCm6BYr+IhAelWxjaD8LTJ7NM8NsDs2V3vhTV5HVyjczjpim8Dq2NjHBOKyUf6Pvfit5Uc+Qtco1D4W/6nNs/u2IGBU7HM/Ed+mgcgLLMilV+wDiL3BYbf9UFuxS0tVpznYiC+RSZ/Rmn39LysdmiX2tmBrD5V97l4nG9X6FF2m8PpMoP6flw69VEL+ekHZ5x51tFVD18dHNrYIlL9BycicYzIaQC/7p66eo42O8HxgmnwhUv7SV3g4XhrQWIfSD57nbKsqHo6RLHwgUv3c4pHRG+Q0wKbSD/7S4WZH0ZUKp5TXtRgr/rVtd8lIVNmpwDEON3vF03GSCcFz+xtP/gKwv4VTTM3STxb57pFgCLpWoXSGWPFP/t3eJyl/fX3JB0dznW43rBBdrBD6dKBY8b+K5NSR1QCvlX6y8w2fRFcrhP4qWPsvIn1k5a+/VfLJXznf8BhPCEv3C8HaHz/0prQGmFDyycJ3A8S5CV2u0OmlCZZ+m8tlwYzcXvLRZ7vYcnbU4/FSEqEbs4vN8PI4WJINJb/JXXVUDXTBQia6QrTyd8jLX9dLnvUQvx0kzhh0xUKmkpsQvCt5Nf3fXG36Fbpk4eL0bKwkTxR/tsBdCAa+RJcsVJpI/MPuxLXFH+7gfqA4ubbvNCdxZ2LyL73BrMDdtq+iixYmA0ANULzs2AiX207iySBpqnl7ztu9W05++BtuNz6OLlt4/A8of/3rkx/+d7cbj/J83FRmDKoB6pz88ONuNx7Ir4GSjLR/HiRN1kS8LDQ0A124sBB4HiRNtPxIZIrrrceiCxcW38AaQF8gdjO6ibXoyoXDgmxcAyyJRL51v/Vn6NKFw/u4/PU+kci97rduiS5dOPwD2AB/iERGedicz4hIMNLJo5myNYpEPvewOf8GSOBxtT9vvvG22NwEdPHCYA6yAQ5GInM9bK4tQFcv+AY18xCAZ9kjXF4NLvMxunzB532xL0/mR37jZfPP0eULPttXNaTXwoinK5H1R3ivgNoK12AbYGq+t+35pLBHoLtBy73k4sGweOvRBQy69eAG6NrJ2/a8IOTRWG/192zDdm/bT2uDrmCwjYfdChDzoMfteWOYJ0PQ+etezgQXG4cuYbC5eixLqkUet+/vvQgqE3tVRyYr4GohHvRFxyfBHnQRg8zZEo2Z6QJ0EYOsETo9CSqjixhky9HpSdAZXcQA26qh05Oglvc6KOt8dHhS9PVeCFWhLwTIURddxuDqj85Oin7oMgbXd+jspOBLpd0Kw2kgne8PcK8GOjo5HkHXMbCmoqOTYyJXDXWpOzo6SbhQhEsXoZOT5GJ0IYOqNzo5SbahCxlQI9HByfJHdCUDahY6OFl4V5g7q9HByXICXcmAOhcdnCwvoSsZUCfQwclyJ7qSATUdHZwsDdCVDCjk2kBSbUZXMqAcv7AzU61AVzKgPK3MkEnuQFcyoDagg5OlMbqSwdQGnZs0R9ClDKaN6NzkQZcymK5Hx8YGwFqLjo0NgPU9OjY2ANbf0bGxAbD2oGOTJhtdymAajc5Nmlx0KYMpJE8FnNQTXcpgykPnJs136FIGU5aGDk6WN9GlDKiw3BSsz0VXMqDCsDxIidPQlQyoV9DByTIdXcmAugYdnCyvoSsZUH9GByfLo+hKBtRudHCyzERXMqAOo4OTpQa6kgH1v+jgZDkHXcmA+kFDJyeHxndGuNQWHZ0cB9F1DKwq6OjkGIOuY2A9jo5OjvboOgbWtejo5OD6EG7NR0cnx6/QdQysaC10djIM5NtjXTsFHZ4ME9BVDLDq6PBk+Ce6igF2FB2eDNeiqxhg+fXR6UlwPbqKQRaCFwYsR9cw0J5Hx+cd7wbxojY6Pu/eRtcw2B5C5+fVhmroEgZbZXSAXvGtgd4sQQfo1f+hKxhwOQfRCXqjdUJXMOgCfkn4FXT9Au8jdITezEDXL/jqoDP0IpuvjfXsOXSIXnyNrl4IVGuGTtGDA+jqhUFzdIrureG9IBL8HB2je4+jaxcODdA5upW9Fl26cHgbHaRbZ6ArFxKFQV0qZBO6cmExBZ2kO3xVkCxNXkZn6co+dN3CYwo6SzeG5aDLFh75k9BpujAYXbUweRedpnNzo+iihUnhfeg8HWuFrlkmOTqlbp63Gd5B5+nUPTLqNrLGv4ags5Pi/pMVWXHGq8fHu5/iLXSizmRf7LFkC4ZUH3C7HpZHi6Nlp3K0lt0/3u7uAsnKgehMHWnuoVgd3v7/U2IvzfwkJN8kxsXVZmCDh/vUdv4v0qPoTJ3oudFVmQq/v+Dbp3rGT7QOnZwke7WkCjXetX/hp46mGNESnaoDUxxXqOqeeid2pT4K+RU6OVm+MSrTJ91ndBT/VXBUsyt7xrih0EltsoqzzzWcqCU6N2lM/5Hv2b96a8H/EF5D5yrqyI2iZWmzZEaj+46Yz1QdnZs0P+RaVUzsV0GLoFwVvFqkIuM3zeh+LNtmpu/Ruckzyq5qBWOutvtVsMSuXpmha5ZNLTa2unD6CpGZFqNTk6iuyAFrLS+b2cXi7+fN6GxFDLT64rbzpqZviV/bfB6dmkzC9/cXfN201W3Gc+SPRacr4EHjfY/2OrB/jLNlz4q2okOT6d9ODl3b0qjfR1VTJ9m5Ch2vrTkGp25a/Djv8+HOp7oFnZlULRxXoP5dr1+V/GTNMxo6YBttk89u7Pyp/YQj7uaahc5MLneP+h+cfOGH8TV9AJ2wtQ3xoVV7Z96AO9zPFaavgMVGu/8OP2nZucfLvhbkTEZnbCm2LvChdlOat9TkzBUaA7zV47dz9tfbE43smIsO2cKzkbITe0Xe51r0Azow2bpJqPDwe7690OVfVB+8+GNNyxN7jlyCzku6aCb/7Gae0FwHqhDYR3wQwviekZxAL/bgs6PotNLhAnRVgyOciwsVBn7dR9+E9GWTp6PrGhSzQ3IvYLKsID7ig3ATOql0mYmubDAcC+1zhfmXo2sbCD+hc0ofngsQ0NLRTaUBswtd3QBYiA4pnbZr6PJmvKfQGaXXMnR9M112R3RE6dVJwqXSUHsWnVC6vYeucGbLXYAOKN0+dXF/pEKEHisJtr+ia5zJXm6Bjif9coJwez/K6eh0/NBlA7rMGatHSK8CJQn4m4DSp6g2Ohp/DOJVQWNT0cn4pTW60plpsd2DxeExHV3rTHQk5OcA473RG13tDPQ6OhU/8QbRFJMUOAUQ5/foemea7B/RkfirWlt0xTNMWNYEFPaEhi55RrlInf8AYk6ga55Jeiv4nvFDfFSsQojvAzXXMVgrQKfTC+gsMGqi654phg1CRwES4BcDyzQxhIsBiNkxDF37jNAHnQNOr57eyxd4N6NTQBqiocsPd2eYHwSy9y26/mibPbxKKQyyvvFewyBbMxqdANrWR9AZIG2oi64/3q2r0CkA/Rtd/UxwVN0zgpXRtc8MT2roIECah3YpEIeqo5PAmFzVe+nCIarkOeGv3b1FNZTyn0Kn4b9dql4BMjReuZsDFnt8o3rY7PXwco0gesTd+4VDrMtMpSxF15uIiIiIiIiIiIiIiIiIiIiIiIiIiEi+Th2UouDCkDbqo+/U91d9dL0zDhtAcWwAxbEBFMcGUBwbQHFsAMWxARTHBlAcG0BxbADFsQEUxwZQHBtAcWwAxbEBFMcGUBwbQHFsAMWxARTHBlAcG0BxbADFsQEUxwZQHBtAcWwAxbEBFMcGUBwbQHFsAMWxARTHBlAcG0BxbADFsQEUxwZQHBtAcWwAxbEBFMcGUBwbQHFsAMX9VE8pP6HrTURERERERERERERERERERERERJQhPpuQYf6FrohiLkHf1pusIboiivkLOvBk+9EVUUxTdODJ5qEropgp6MCTvYuuiGIOowNP9gy6Ior5Ah14shvRFVFMHjrwJNoOdEVU8x068kRt0fVQzj3oyBPdia6HctahI09UHV0P5QxBR56oNboeyjkrG515vGl56HqoZwI69Hj/QFdDQevRoccbh66GgtqhQ4/3EboaKlqOTr3CFnQtlPQAOvYK/CcQoUPG/B+grUXXQk1fo4OPqYKuhKIGo4OPWYiuhKIKt6CTL7U5B10JVV2Kjr7Ueeg6KCtrEjr7YsurouugrtXo8IsdRldBYdEb0Onr+tgougoqm6Wh88/ejq6B2u5FN8AH6Aoo7rY7sPm/PB5dAdV9qCHz11qhj59eQDZAe/TRU6TFMFz+c5ugj54ikV49Ufn37oA+dip2Fei6cPY29JFTqacxDfA++rgpBvJF8GH0UVO5wlH+5/83XgPKIFlz/M7/lHz0MVO8JlX8zX/OIfQRU6L8ZX7mPyoLfbyUrPBL//L/ZyH6aMnADJ/OB2h8DCBDnbnIj/wXHUAfJ5lZuTj9+R87B32UZO7QiXTn330Q+hjJ0r60XhpqvBp9fGRn5V3py79HL/TRkb1ovTQtIbdqJm8ADoa8E2n4h1DrvhV9XCTs/q6y8599P/qYyInowhdlxj+sHs/9BY3EFmD8wZRzWMofgtn7+N0vsDq+4PHs8MRlT6CPgTxpM9PDipLHnr4Nvf/k3Y3r6rhJ/751fAlEaOydOafISfjTdj29Er3PJNcPgxvecEQk/CMN3hv8A3pvKS1abKo5dEKBefYFE4Z+PKsFei8pzTZWOm9q++mnzZ40fPjEk9/zhw//5MXTprefel6lK9B7RkRERERERERERERERERERERERERERERERERERERERERk4D87E7XzQL1cJAAAAABJRU5ErkJggg==;" parent="1" vertex="1">
          <mxGeometry x="4900" y="1692.6199999999997" width="75.12" height="75.12" as="geometry" />
        </mxCell>
        <mxCell id="io7zwHNE9pA3boUVpFcz-75" value="&lt;font style=&quot;&quot;&gt;&lt;span style=&quot;font-size: 24px;&quot;&gt;&lt;font color=&quot;#ffffff&quot;&gt;grafana(사용않하고 있음)&lt;/font&gt;&lt;/span&gt;&lt;br&gt;&lt;font style=&quot;font-size: 20px;&quot;&gt;grafana/grafana&lt;/font&gt;&lt;br&gt;&lt;/font&gt;" style="rounded=1;whiteSpace=wrap;html=1;strokeWidth=0;strokeColor=none;fillColor=#1BA1E2;" parent="1" vertex="1">
          <mxGeometry x="5400.650000000001" y="1717.6599999999999" width="352.48" height="142" as="geometry" />
        </mxCell>
        <mxCell id="io7zwHNE9pA3boUVpFcz-76" value="&lt;font style=&quot;&quot;&gt;&lt;span style=&quot;font-size: 24px;&quot;&gt;&lt;font color=&quot;#ffffff&quot;&gt;alertmanager&lt;/font&gt;&lt;/span&gt;&lt;br&gt;&lt;font style=&quot;font-size: 20px;&quot;&gt;prom/alertmanager&lt;/font&gt;&lt;br&gt;&lt;/font&gt;" style="rounded=1;whiteSpace=wrap;html=1;strokeWidth=0;fillColor=#1BA1E2;strokeColor=none;" parent="1" vertex="1">
          <mxGeometry x="5400" y="1520.56" width="353.13" height="142.75" as="geometry" />
        </mxCell>
        <mxCell id="io7zwHNE9pA3boUVpFcz-77" value="" style="sketch=0;pointerEvents=1;shadow=0;dashed=0;html=1;strokeColor=none;labelPosition=center;verticalLabelPosition=bottom;verticalAlign=top;align=center;fillColor=#505050;shape=mxgraph.mscae.oms.alerts" parent="1" vertex="1">
          <mxGeometry x="5390" y="1510.25" width="42.25" height="50" as="geometry" />
        </mxCell>
        <mxCell id="io7zwHNE9pA3boUVpFcz-78" value="" style="image;aspect=fixed;html=1;points=[];align=center;fontSize=12;image=img/lib/azure2/other/Grafana.svg;" parent="1" vertex="1">
          <mxGeometry x="5383.129999999999" y="1709.9099999999996" width="65.04" height="50.5" as="geometry" />
        </mxCell>
        <mxCell id="io7zwHNE9pA3boUVpFcz-79" value="" style="sketch=0;outlineConnect=0;fontColor=#232F3E;gradientColor=none;fillColor=#BF0816;strokeColor=none;dashed=0;verticalLabelPosition=bottom;verticalAlign=top;align=center;html=1;fontSize=12;fontStyle=0;aspect=fixed;shape=mxgraph.aws4.email;" parent="1" vertex="1">
          <mxGeometry x="5953.249999999999" y="1424.24" width="78" height="69" as="geometry" />
        </mxCell>
        <mxCell id="io7zwHNE9pA3boUVpFcz-80" value="" style="endArrow=classic;html=1;rounded=0;strokeWidth=5;endSize=8;strokeColor=#666666;exitX=0.795;exitY=-0.007;exitDx=0;exitDy=0;exitPerimeter=0;" parent="1" source="io7zwHNE9pA3boUVpFcz-86" target="io7zwHNE9pA3boUVpFcz-79" edge="1">
          <mxGeometry width="50" height="50" relative="1" as="geometry">
            <mxPoint x="6119" y="1650.69" as="sourcePoint" />
            <mxPoint x="6502.679999999999" y="1610.69" as="targetPoint" />
          </mxGeometry>
        </mxCell>
        <mxCell id="io7zwHNE9pA3boUVpFcz-81" value="&lt;font color=&quot;#ffffff&quot; style=&quot;font-size: 17px;&quot;&gt;5.4.2&lt;/font&gt;" style="text;strokeColor=none;align=center;fillColor=none;html=1;verticalAlign=middle;whiteSpace=wrap;rounded=0;" parent="1" vertex="1">
          <mxGeometry x="5680" y="1720.4099999999999" width="80" height="40" as="geometry" />
        </mxCell>
        <mxCell id="io7zwHNE9pA3boUVpFcz-82" value="&lt;font color=&quot;#ffffff&quot; style=&quot;font-size: 17px;&quot;&gt;v2.29.2&lt;/font&gt;" style="text;strokeColor=none;align=left;fillColor=none;html=1;verticalAlign=middle;whiteSpace=wrap;rounded=0;" parent="1" vertex="1">
          <mxGeometry x="5210" y="1720.4099999999999" width="80" height="40" as="geometry" />
        </mxCell>
        <mxCell id="io7zwHNE9pA3boUVpFcz-83" value="&lt;font color=&quot;#ffffff&quot; style=&quot;font-size: 17px;&quot;&gt;v0.12.0&lt;/font&gt;" style="text;strokeColor=none;align=center;fillColor=none;html=1;verticalAlign=middle;whiteSpace=wrap;rounded=0;" parent="1" vertex="1">
          <mxGeometry x="5673.13" y="1520.56" width="80" height="40" as="geometry" />
        </mxCell>
        <mxCell id="io7zwHNE9pA3boUVpFcz-84" value="" style="image;sketch=0;aspect=fixed;html=1;points=[];align=center;fontSize=12;image=img/lib/mscae/Docker.svg;" parent="1" vertex="1">
          <mxGeometry x="4850" y="1404.87" width="131.41" height="107.75" as="geometry" />
        </mxCell>
        <mxCell id="io7zwHNE9pA3boUVpFcz-85" value="" style="endArrow=none;html=1;rounded=0;align=center;verticalAlign=top;endFill=0;labelBackgroundColor=none;endSize=2;strokeWidth=3;" parent="1" edge="1">
          <mxGeometry relative="1" as="geometry">
            <mxPoint x="5788.75" y="1582.93" as="targetPoint" />
            <mxPoint x="5788.75" y="1582.93" as="sourcePoint" />
          </mxGeometry>
        </mxCell>
        <mxCell id="io7zwHNE9pA3boUVpFcz-86" value="&lt;span style=&quot;border-color: var(--border-color); text-align: left;&quot;&gt;&lt;b style=&quot;&quot;&gt;&lt;font style=&quot;border-color: var(--border-color); font-size: 19px;&quot;&gt;port: 8080&lt;/font&gt;&lt;/b&gt;&lt;/span&gt;" style="html=1;rounded=0;strokeWidth=3;" parent="1" vertex="1">
          <mxGeometry x="5847.5" y="1571.93" width="183.75" height="40" as="geometry" />
        </mxCell>
        <mxCell id="io7zwHNE9pA3boUVpFcz-87" value="" style="endArrow=none;html=1;rounded=0;align=center;verticalAlign=top;endFill=0;labelBackgroundColor=none;endSize=2;strokeWidth=3;" parent="1" edge="1">
          <mxGeometry relative="1" as="geometry">
            <mxPoint x="5790" y="1591.68" as="targetPoint" />
            <mxPoint x="5790" y="1591.68" as="sourcePoint" />
          </mxGeometry>
        </mxCell>
        <mxCell id="io7zwHNE9pA3boUVpFcz-88" value="" style="endArrow=none;html=1;rounded=0;align=center;verticalAlign=top;endFill=0;labelBackgroundColor=none;endSize=2;strokeWidth=3;" parent="1" target="io7zwHNE9pA3boUVpFcz-76" edge="1">
          <mxGeometry relative="1" as="geometry">
            <mxPoint x="5847.5" y="1590.52375" as="sourcePoint" />
            <mxPoint x="5790" y="1589.71515625" as="targetPoint" />
          </mxGeometry>
        </mxCell>
        <mxCell id="io7zwHNE9pA3boUVpFcz-89" value="" style="rounded=0;whiteSpace=wrap;html=1;strokeWidth=8;strokeColor=#7EA6E0;fillColor=#A9C4EB;" parent="1" vertex="1">
          <mxGeometry x="3530" y="1730" width="610" height="276.38" as="geometry" />
        </mxCell>
        <mxCell id="io7zwHNE9pA3boUVpFcz-90" value="&lt;font size=&quot;1&quot; style=&quot;&quot;&gt;&lt;b style=&quot;font-size: 30px;&quot;&gt;flexing-cps-rc-postgres&lt;/b&gt;&lt;/font&gt;" style="text;strokeColor=none;align=center;fillColor=none;html=1;verticalAlign=middle;whiteSpace=wrap;rounded=0;" parent="1" vertex="1">
          <mxGeometry x="3620" y="1766.63" width="340" height="30" as="geometry" />
        </mxCell>
        <mxCell id="io7zwHNE9pA3boUVpFcz-91" value="" style="shape=image;verticalLabelPosition=bottom;labelBackgroundColor=#ffffff;verticalAlign=top;aspect=fixed;imageAspect=0;image=data:image/svg+xml,PHN2ZyB4bWxuczpkYz0iaHR0cDovL3B1cmwub3JnL2RjL2VsZW1lbnRzLzEuMS8iIHhtbG5zOmNjPSJodHRwOi8vY3JlYXRpdmVjb21tb25zLm9yZy9ucyMiIHhtbG5zOnJkZj0iaHR0cDovL3d3dy53My5vcmcvMTk5OS8wMi8yMi1yZGYtc3ludGF4LW5zIyIgeG1sbnM6c3ZnPSJodHRwOi8vd3d3LnczLm9yZy8yMDAwL3N2ZyIgeG1sbnM9Imh0dHA6Ly93d3cudzMub3JnLzIwMDAvc3ZnIiB4bWxuczp4bGluaz0iaHR0cDovL3d3dy53My5vcmcvMTk5OS94bGluayIgeG1sbnM6c29kaXBvZGk9Imh0dHA6Ly9zb2RpcG9kaS5zb3VyY2Vmb3JnZS5uZXQvRFREL3NvZGlwb2RpLTAuZHRkIiB4bWxuczppbmtzY2FwZT0iaHR0cDovL3d3dy5pbmtzY2FwZS5vcmcvbmFtZXNwYWNlcy9pbmtzY2FwZSIgdmVyc2lvbj0iMS4xIiBpZD0iTGF5ZXJfMSIgeD0iMHB4IiB5PSIwcHgiIHZpZXdCb3g9IjAgMCA0Mi43NyA0NC4xMTAwMDEiIHhtbDpzcGFjZT0icHJlc2VydmUiIHNvZGlwb2RpOmRvY25hbWU9InNhcF9zZV9wb3N0cmVzcWwuc3ZnIiB3aWR0aD0iNDIuNzciIGhlaWdodD0iNDQuMTEwMDAxIiBpbmtzY2FwZTp2ZXJzaW9uPSIwLjkyLjMgKDI0MDU1NDYsIDIwMTgtMDMtMTEpIj48bWV0YWRhdGEgaWQ9Im1ldGFkYXRhNjA0NDkiPjxyZGY6UkRGPjxjYzpXb3JrIHJkZjphYm91dD0iIj48ZGM6Zm9ybWF0PmltYWdlL3N2Zyt4bWw8L2RjOmZvcm1hdD48ZGM6dHlwZSByZGY6cmVzb3VyY2U9Imh0dHA6Ly9wdXJsLm9yZy9kYy9kY21pdHlwZS9TdGlsbEltYWdlIi8+PGRjOnRpdGxlLz48L2NjOldvcms+PC9yZGY6UkRGPjwvbWV0YWRhdGE+PGRlZnMgaWQ9ImRlZnM2MDQ0NyIvPjxzb2RpcG9kaTpuYW1lZHZpZXcgcGFnZWNvbG9yPSIjZmZmZmZmIiBib3JkZXJjb2xvcj0iIzY2NjY2NiIgYm9yZGVyb3BhY2l0eT0iMSIgb2JqZWN0dG9sZXJhbmNlPSIxMCIgZ3JpZHRvbGVyYW5jZT0iMTAiIGd1aWRldG9sZXJhbmNlPSIxMCIgaW5rc2NhcGU6cGFnZW9wYWNpdHk9IjAiIGlua3NjYXBlOnBhZ2VzaGFkb3c9IjIiIGlua3NjYXBlOndpbmRvdy13aWR0aD0iMTkyMCIgaW5rc2NhcGU6d2luZG93LWhlaWdodD0iMTAxNyIgaWQ9Im5hbWVkdmlldzYwNDQ1IiBzaG93Z3JpZD0iZmFsc2UiIGZpdC1tYXJnaW4tdG9wPSIwIiBmaXQtbWFyZ2luLWxlZnQ9IjAiIGZpdC1tYXJnaW4tcmlnaHQ9IjAiIGZpdC1tYXJnaW4tYm90dG9tPSIwIiBpbmtzY2FwZTp6b29tPSIxLjAzMDMwMyIgaW5rc2NhcGU6Y3g9Ii0xOC4xNzUiIGlua3NjYXBlOmN5PSItMTc3LjIyIiBpbmtzY2FwZTp3aW5kb3cteD0iLTgiIGlua3NjYXBlOndpbmRvdy15PSItOCIgaW5rc2NhcGU6d2luZG93LW1heGltaXplZD0iMSIgaW5rc2NhcGU6Y3VycmVudC1sYXllcj0iTGF5ZXJfMSIvPiYjeGE7JiN4YTs8ZyBpZD0iZzYwNDQyIiB0cmFuc2Zvcm09InRyYW5zbGF0ZSgtMzE1LjU1LC0xOTkuNDIpIj4mI3hhOwk8ZGVmcyBpZD0iZGVmczYwNDAxIj4mI3hhOwkJPHJlY3QgaWQ9IlNWR0lEXzNfIiB4PSIzMTUuNSIgeT0iMTk5LjQyIiB3aWR0aD0iNDIuOTU5OTk5IiBoZWlnaHQ9IjQ0LjM2MDAwMSIvPiYjeGE7CTwvZGVmcz4mI3hhOwk8Y2xpcFBhdGggaWQ9IlNWR0lEXzRfIj4mI3hhOwkJPHVzZSB4bGluazpocmVmPSIjU1ZHSURfM18iIHN0eWxlPSJvdmVyZmxvdzp2aXNpYmxlIiBpZD0idXNlNjA0MDMiIHg9IjAiIHk9IjAiIHdpZHRoPSIxMDAlIiBoZWlnaHQ9IjEwMCUiLz4mI3hhOwk8L2NsaXBQYXRoPiYjeGE7CTxnIGNsaXAtcGF0aD0idXJsKCNTVkdJRF80XykiIGlkPSJnNjA0NDAiPiYjeGE7CQk8ZGVmcyBpZD0iZGVmczYwNDA3Ij4mI3hhOwkJCTxyZWN0IGlkPSJTVkdJRF81XyIgeD0iMzE1LjUiIHk9IjE5OS40MiIgd2lkdGg9IjQyLjk1OTk5OSIgaGVpZ2h0PSI0NC4zNjAwMDEiLz4mI3hhOwkJPC9kZWZzPiYjeGE7CQk8Y2xpcFBhdGggaWQ9IlNWR0lEXzZfIj4mI3hhOwkJCTx1c2UgeGxpbms6aHJlZj0iI1NWR0lEXzVfIiBzdHlsZT0ib3ZlcmZsb3c6dmlzaWJsZSIgaWQ9InVzZTYwNDA5IiB4PSIwIiB5PSIwIiB3aWR0aD0iMTAwJSIgaGVpZ2h0PSIxMDAlIi8+JiN4YTsJCTwvY2xpcFBhdGg+JiN4YTsJCTxwYXRoIGQ9Im0gMzQ3LjUxLDIzMS41MyBjIDAuMjgsLTIuMzQgMC4yLC0yLjY4IDEuOTQsLTIuMzEgbCAwLjQ0LDAuMDQgYyAxLjM0LDAuMDYgMy4wOSwtMC4yMSA0LjEyLC0wLjcgMi4yMiwtMS4wMyAzLjUzLC0yLjc0IDEuMzQsLTIuMjkgLTQuOTgsMS4wMiAtNS4zMiwtMC42NiAtNS4zMiwtMC42NiA1LjI2LC03LjgxIDcuNDYsLTE3LjcxIDUuNTYsLTIwLjE0IC01LjE4LC02LjYxIC0xNC4xNCwtMy40OSAtMTQuMjksLTMuNCBsIC0wLjA1LDAuMDEgYyAtMC45OSwtMC4yIC0yLjA5LC0wLjMzIC0zLjMyLC0wLjM0IC0yLjI2LC0wLjA0IC0zLjk2LDAuNTkgLTUuMjYsMS41NyAwLDAgLTE1Ljk4LC02LjU4IC0xNS4yNCw4LjI4IDAuMTYsMy4xNiA0LjUzLDIzLjkzIDkuNzUsMTcuNjYgMS45MSwtMi4yOSAzLjc2LC00LjI0IDMuNzYsLTQuMjQgMC45MiwwLjYxIDIuMDEsMC45MiAzLjE2LDAuODEgbCAwLjA5LC0wLjA4IGMgLTAuMDIsMC4yOSAtMC4wMSwwLjU2IDAuMDQsMC45IC0xLjM0LDEuNSAtMC45NCwxLjc2IC0zLjY0LDIuMzIgLTIuNzIsMC41NiAtMS4xMiwxLjU2IC0wLjA4LDEuODIgMS4yNywwLjMxIDQuMTksMC43NyA2LjE3LC0yIGwgLTAuMDgsMC4zMSBjIDAuNTIsMC40MiAwLjQ5LDMuMDMgMC41Niw0LjkgMC4wOCwxLjg3IDAuMiwzLjYxIDAuNTgsNC42NCAwLjM4LDEuMDIgMC44MywzLjY3IDQuMzYsMi45MSAyLjk0LC0wLjYzIDUuMiwtMS41NCA1LjQxLC0xMC4wMSIgY2xpcC1wYXRoPSJ1cmwoI1NWR0lEXzZfKSIgaWQ9InBhdGg2MDQxMiIgaW5rc2NhcGU6Y29ubmVjdG9yLWN1cnZhdHVyZT0iMCIvPiYjeGE7CQk8cG9seWdvbiBwb2ludHM9IjM0NS43MiwyMzAuOSAzNDUuNzIsMjMwLjkxIDM0NS43NCwyMzAuNzIgMzQ1Ljc0LDIzMC43MSAzNDUuNzYsMjMwLjUzIDM0NS43OSwyMzAuMzUgMzQ1Ljc5LDIzMC4zNCAzNDUuODEsMjMwLjE5IDM0NS44MSwyMzAuMTUgMzQ1LjgzLDIzMCAzNDUuODQsMjI5Ljk4IDM0NS44NiwyMjkuODUgMzQ1Ljg2LDIyOS44MSAzNDUuODksMjI5LjY5IDM0NS44OSwyMjkuNjQgMzQ1LjkyLDIyOS41MiAzNDUuOTMsMjI5LjQ2IDM0NS45NiwyMjkuMzUgMzQ1Ljk4LDIyOS4yNyAzNDYuMDEsMjI5LjE3IDM0Ni4wNCwyMjkuMDggMzQ2LjA3LDIyOC45OSAzNDYuMTEsMjI4Ljg4IDM0Ni4xNCwyMjguNzkgMzQ2LjIsMjI4LjY3IDM0Ni4yMywyMjguNiAzNDYuMzIsMjI4LjQ0IDM0Ni4zNiwyMjguMzggMzQ2LjQ3LDIyOC4yMiAzNDYuNTIsMjI4LjE2IDM0Ni42NywyMjcuOTkgMzQ2LjcyLDIyNy45NCAzNDYuODksMjI3Ljc5IDM0Ni45NSwyMjcuNzUgMzQ3LjE2LDIyNy42IDM0Ny4yMiwyMjcuNTcgMzQ3LjQxLDIyNy40OCAzNDcuNDcsMjI3LjQ1IDM0Ny42OSwyMjcuMzcgMzQ3Ljc2LDIyNy4zNSAzNDcuOTMsMjI3LjMxIDM0OC4wMSwyMjcuMjkgMzQ4LjE3LDIyNy4yNyAzNDguMjYsMjI3LjI2IDM0OC4zOSwyMjcuMjUgMzQ4LjQ5LDIyNy4yNSAzNDguNiwyMjcuMjUgMzQ4LjcsMjI3LjI1IDM0OC44LDIyNy4yNiAzNDguOTEsMjI3LjI2IDM0OC45NiwyMjcuMjcgMzQ5LjA4LDIyNy4yOCAzNDkuMTUsMjI3LjI5IDM0OS4yOCwyMjcuMzEgMzQ5LjMyLDIyNy4zMiAzNDkuNDYsMjI3LjM0IDM0OS41LDIyNy4zNSAzNDkuNjUsMjI3LjM4IDM0OS42NiwyMjcuMzggMzQ5LjgyLDIyNy40MSAzNDkuNjIsMjI3LjM4IDM1MC4wNiwyMjcuNDMgMzQ5Ljk0LDIyNy40MiAzNTAuMiwyMjcuNDMgMzUwLjE0LDIyNy40MiAzNTAuNCwyMjcuNDIgMzUwLjM2LDIyNy40MiAzNTAuNjIsMjI3LjQyIDM1MC41OCwyMjcuNDIgMzUwLjg1LDIyNy40IDM1MC44LDIyNy40MSAzNTEuMDgsMjI3LjM5IDM1MS4wNCwyMjcuMzkgMzUxLjMyLDIyNy4zNiAzNTEuMjcsMjI3LjM3IDM1MS41NSwyMjcuMzMgMzUxLjUxLDIyNy4zNCAzNTEuNzgsMjI3LjI5IDM1MS43NCwyMjcuMyAzNTIuMDEsMjI3LjI1IDM1MS45NiwyMjcuMjYgMzUyLjIzLDIyNy4yMSAzNTIuMTgsMjI3LjIyIDM1Mi40NCwyMjcuMTYgMzUyLjQsMjI3LjE3IDM1Mi42NSwyMjcuMSAzNTIuNTksMjI3LjEyIDM1Mi44MywyMjcuMDUgMzUyLjc3LDIyNy4wNyAzNTMsMjI2Ljk5IDM1Mi45MiwyMjcuMDIgMzUzLjE0LDIyNi45MyAzNTMuMDcsMjI2Ljk2IDM1My4yNywyMjYuODggMzUzLjIxLDIyNi45IDM1My40MSwyMjYuODEgMzUzLjM3LDIyNi44MyAzNTMuNTcsMjI2LjczIDM1My41MywyMjYuNzUgMzUzLjcyLDIyNi42NCAzNTMuNjgsMjI2LjY3IDM1My44NiwyMjYuNTYgMzUzLjgzLDIyNi41OCAzNTQsMjI2LjQ3IDM1My45NywyMjYuNDkgMzU0LjE0LDIyNi4zOCAzNTQuMSwyMjYuNDEgMzU0LjI2LDIyNi4zIDM1NC4yMiwyMjYuMzMgMzU0LjM3LDIyNi4yMiAzNTQuMzMsMjI2LjI1IDM1NC40OCwyMjYuMTQgMzU0LjQ0LDIyNi4xNyAzNTQuNTgsMjI2LjA2IDM1NC41MiwyMjYuMSAzNTQuNjUsMjI1Ljk5IDM1NC42MSwyMjYuMDMgMzU0LjcyLDIyNS45MiAzNTQuNjYsMjI1Ljk4IDM1NC43NywyMjUuODcgMzU0LjcxLDIyNS45NCAzNTQuOCwyMjUuODMgMzU0Ljc1LDIyNS45IDM1NC44MywyMjUuOCAzNTQuNzUsMjI1LjkgMzU0LjgyLDIyNS44IDM1NC43NSwyMjUuOTEgMzU0LjgsMjI1LjgyIDM1NC43MiwyMjUuOTcgMzU0Ljc2LDIyNS44OSAzNTQuNjgsMjI2LjA5IDM1NC43MSwyMjYuMDEgMzU0LjYzLDIyNi4yOCAzNTQuNjUsMjI2LjIgMzU0LjYyLDIyNi41NCAzNTQuNjIsMjI2LjQ3IDM1NC42OCwyMjYuOTQgMzU0LjY2LDIyNi44OCAzNTQuODUsMjI3LjMzIDM1NC44MiwyMjcuMjggMzU1LjEzLDIyNy42OCAzNTUuMDgsMjI3LjY0IDM1NS40NCwyMjcuOSAzNTUuMzcsMjI3Ljg3IDM1NS42OSwyMjguMDEgMzU1LjYxLDIyNy45OSAzNTUuOCwyMjguMDQgMzU1Ljc2LDIyOC4wMyAzNTUuODksMjI4LjA2IDM1NS44NCwyMjguMDUgMzU1LjkzLDIyOC4wNiAzNTUuODgsMjI4LjA2IDM1NS45NiwyMjguMDYgMzU1LjksMjI4LjA2IDM1NS45OSwyMjguMDYgMzU1LjkyLDIyOC4wNiAzNTYsMjI4LjA2IDM1NS45MywyMjguMDYgMzU1Ljk4LDIyOC4wNiAzNTUuOTEsMjI4LjA3IDM1NS45NywyMjguMDYgMzU1Ljg5LDIyOC4wNyAzNTUuOTQsMjI4LjA2IDM1NS44NiwyMjguMDcgMzU1LjkxLDIyOC4wNyAzNTUuODIsMjI4LjA4IDM1NS44NywyMjguMDcgMzU1Ljc4LDIyOC4wOSAzNTUuOCwyMjguMDggMzU1LjcsMjI4LjEgMzU1LjcxLDIyOC4xIDM1NS40OCwyMjguMTUgMzU1LjQ2LDIyOC4xNSAzNTUuMjQsMjI4LjE5IDM1NS4yMSwyMjguMiAzNTUsMjI4LjIzIDM1NC45OCwyMjguMjQgMzU0Ljc3LDIyOC4yNyAzNTQuNzUsMjI4LjI4IDM1NC41NCwyMjguMzEgMzU0LjUyLDIyOC4zMSAzNTQuMzIsMjI4LjM0IDM1NC4zLDIyOC4zNCAzNTQuMTEsMjI4LjM3IDM1NC4wOCwyMjguMzcgMzUzLjksMjI4LjM5IDM1My44NywyMjguMzkgMzUzLjY5LDIyOC40MSAzNTMuNjcsMjI4LjQxIDM1My41LDIyOC40MyAzNTMuNDcsMjI4LjQzIDM1My4zLDIyOC40NCAzNTMuMjcsMjI4LjQ0IDM1My4xMSwyMjguNDUgMzUzLjA4LDIyOC40NSAzNTIuOTIsMjI4LjQ2IDM1Mi45LDIyOC40NiAzNTIuNzUsMjI4LjQ2IDM1Mi43MiwyMjguNDYgMzUyLjU4LDIyOC40NyAzNTIuNTQsMjI4LjQ3IDM1Mi40LDIyOC40NiAzNTIuMzcsMjI4LjQ2IDM1Mi4yMywyMjguNDYgMzUyLjIsMjI4LjQ2IDM1Mi4wNywyMjguNDUgMzUyLjAzLDIyOC40NSAzNTEuOTEsMjI4LjQ0IDM1MS44NywyMjguNDQgMzUxLjc1LDIyOC40MyAzNTEuNzEsMjI4LjQzIDM1MS41OSwyMjguNDEgMzUxLjU2LDIyOC40MSAzNTEuNDUsMjI4LjQgMzUxLjQxLDIyOC4zOSAzNTEuMzEsMjI4LjM3IDM1MS4yNywyMjguMzcgMzUxLjE3LDIyOC4zNSAzNTEuMSwyMjguMzQgMzUwLjkxLDIyOC4zIDM1MC44MiwyMjguMjggMzUwLjY1LDIyOC4yMyAzNTAuNTYsMjI4LjIxIDM1MC40MSwyMjguMTYgMzUwLjMsMjI4LjEyIDM1MC4xNiwyMjguMDcgMzUwLjA2LDIyOC4wMyAzNDkuOTQsMjI3Ljk3IDM0OS44NCwyMjcuOTIgMzQ5LjczLDIyNy44NyAzNDkuNjIsMjI3LjgxIDM0OS41MiwyMjcuNzUgMzQ5LjQzLDIyNy42OCAzNDkuMzQsMjI3LjYyIDM0OS4yNCwyMjcuNTUgMzQ5LjE3LDIyNy40OSAzNDkuMDcsMjI3LjQxIDM0OS4wMSwyMjcuMzUgMzQ4LjkyLDIyNy4yNiAzNDguODYsMjI3LjIgMzQ4Ljc4LDIyNy4xIDM0OC43MywyMjcuMDUgMzQ4LjY2LDIyNi45NiAzNDguNjMsMjI2LjkxIDM0OC41NiwyMjYuODEgMzQ4LjUzLDIyNi43NyAzNDguNDcsMjI2LjY2IDM0OC40NCwyMjYuNjIgMzQ4LjM5LDIyNi41IDM0OC4zNywyMjYuNDcgMzQ4LjM0LDIyNi4zOCAzNDguMzIsMjI2LjM1IDM0OC4yOSwyMjYuMjUgMzQ4LjI4LDIyNi4yMyAzNDguMjcsMjI2LjIgMzQ4LjI3LDIyNi4xOSAzNDguMjEsMjI1Ljk0IDM0OC4yLDIyNS45MyAzNDguNDgsMjI0LjYxIDM0OC45NywyMjMuODcgMzQ4Ljk0LDIyMy45MSAzNDkuNDEsMjIzLjE2IDM0OS4zOSwyMjMuMiAzNDkuODMsMjIyLjQ0IDM0OS44MSwyMjIuNDggMzUwLjI0LDIyMS43MSAzNTAuMjIsMjIxLjc1IDM1MC42MywyMjAuOTggMzUwLjYyLDIyMS4wMSAzNTEuMDEsMjIwLjI0IDM1MC45OSwyMjAuMjcgMzUxLjM2LDIxOS41IDM1MS4zNSwyMTkuNTMgMzUxLjcsMjE4Ljc2IDM1MS42OSwyMTguNzkgMzUyLjAyLDIxOC4wMiAzNTIsMjE4LjA1IDM1Mi4zMiwyMTcuMjggMzUyLjMxLDIxNy4zMiAzNTIuNiwyMTYuNTUgMzUyLjU5LDIxNi41OSAzNTIuODYsMjE1LjgzIDM1Mi44NSwyMTUuODcgMzUzLjEsMjE1LjEyIDM1My4wOSwyMTUuMTYgMzUzLjMyLDIxNC40MiAzNTMuMzEsMjE0LjQ1IDM1My41MywyMTMuNzMgMzUzLjUxLDIxMy43NyAzNTMuNzEsMjEzLjA1IDM1My43LDIxMy4wOSAzNTMuODcsMjEyLjQgMzUzLjg2LDIxMi40NCAzNTQuMDEsMjExLjc2IDM1NCwyMTEuODEgMzU0LjEzLDIxMS4xNSAzNTQuMTIsMjExLjIgMzU0LjIyLDIxMC41NiAzNTQuMjIsMjEwLjYxIDM1NC4zLDIxMCAzNTQuMywyMTAuMDUgMzU0LjM2LDIwOS40NiAzNTQuMzUsMjA5LjUzIDM1NC4zOSwyMDguOTYgMzU0LjM5LDIwOS4wMyAzNTQuNDEsMjA4LjQ5IDM1NC40MSwyMDguNTcgMzU0LjQxLDIwOC4wNyAzNTQuNDEsMjA4LjE1IDM1NC4zOCwyMDcuNjggMzU0LjM5LDIwNy43OCAzNTQuMzQsMjA3LjM0IDM1NC4zNiwyMDcuNDYgMzU0LjI5LDIwNy4wNSAzNTQuMzIsMjA3LjE5IDM1NC4yMiwyMDYuODIgMzU0LjI3LDIwNi45OCAzNTQuMTUsMjA2LjY1IDM1NC4yMywyMDYuODQgMzU0LjA5LDIwNi41NSAzNTQuMjEsMjA2Ljc2IDM1NC4wNSwyMDYuNTIgMzU0LjE1LDIwNi42NSAzNTMuOSwyMDYuMzUgMzUzLjk0LDIwNi40IDM1My42OSwyMDYuMTEgMzUzLjczLDIwNi4xNiAzNTMuNDgsMjA1Ljg4IDM1My41MiwyMDUuOTIgMzUzLjI2LDIwNS42NiAzNTMuMzEsMjA1LjcxIDM1My4wNCwyMDUuNDYgMzUzLjA5LDIwNS41IDM1Mi44MiwyMDUuMjYgMzUyLjg3LDIwNS4zIDM1Mi42LDIwNS4wOCAzNTIuNjUsMjA1LjEyIDM1Mi4zNywyMDQuOTEgMzUyLjQyLDIwNC45NSAzNTIuMTQsMjA0Ljc1IDM1Mi4xOSwyMDQuNzggMzUxLjkxLDIwNC41OSAzNTEuOTgsMjA0LjY0IDM1MS40MSwyMDQuMyAzNTEuNTEsMjA0LjM2IDM1MC45MywyMDQuMDYgMzUxLjAzLDIwNC4xMSAzNTAuNDUsMjAzLjg1IDM1MC41NSwyMDMuODkgMzQ5Ljk2LDIwMy42NyAzNTAuMDUsMjAzLjcgMzQ5LjQ2LDIwMy41MiAzNDkuNTUsMjAzLjU0IDM0OC45NiwyMDMuMzkgMzQ5LjA1LDIwMy40MSAzNDguNDYsMjAzLjMgMzQ4LjU1LDIwMy4zMSAzNDcuOTcsMjAzLjIyIDM0OC4wNSwyMDMuMjMgMzQ3LjQ4LDIwMy4xNyAzNDcuNTUsMjAzLjE4IDM0Ni45OCwyMDMuMTQgMzQ3LjA1LDIwMy4xNCAzNDYuNSwyMDMuMTIgMzQ2LjU3LDIwMy4xMiAzNDYuMDMsMjAzLjEzIDM0Ni4wOSwyMDMuMTMgMzQ1LjU3LDIwMy4xNSAzNDUuNjMsMjAzLjE0IDM0NS4xMywyMDMuMTggMzQ1LjE4LDIwMy4xNyAzNDQuNzEsMjAzLjIyIDM0NC43NiwyMDMuMjIgMzQ0LjMsMjAzLjI3IDM0NC4zNSwyMDMuMjcgMzQzLjkyLDIwMy4zMyAzNDMuOTYsMjAzLjMzIDM0My41NiwyMDMuNCAzNDMuNjEsMjAzLjM5IDM0My4yNCwyMDMuNDYgMzQzLjI3LDIwMy40NiAzNDIuOTQsMjAzLjUzIDM0Mi45NywyMDMuNTIgMzQyLjY3LDIwMy42IDM0Mi43MSwyMDMuNTkgMzQyLjQ1LDIwMy42NiAzNDIuNDgsMjAzLjY1IDM0Mi4yNiwyMDMuNzEgMzQyLjI5LDIwMy43IDM0Mi4xMSwyMDMuNzYgMzQyLjE0LDIwMy43NSAzNDIuMDEsMjAzLjc5IDM0Mi4wNSwyMDMuNzggMzQyLDIwMy43OSAzNDIuMDEsMjAzLjc5IDM0MS45OCwyMDMuOCAzNDIuMDMsMjAzLjc4IDM0MiwyMDMuNzkgMzQyLjA3LDIwMy43NyAzNDIuMDUsMjAzLjc3IDM0MS41MywyMDMuOTIgMzQxLjQ4LDIwMy45MiAzNDAuOSwyMDMuOTEgMzQwLjUzLDIwMy44MyAzNDAuNTcsMjAzLjg0IDM0MC4xOSwyMDMuNzggMzQwLjIzLDIwMy43OCAzMzkuODMsMjAzLjczIDMzOS44OCwyMDMuNzMgMzM5LjQ3LDIwMy42OCAzMzkuNTEsMjAzLjY5IDMzOS4wOSwyMDMuNjUgMzM5LjEzLDIwMy42NSAzMzguNywyMDMuNjIgMzM4Ljc1LDIwMy42MyAzMzguMywyMDMuNiAzMzguMzQsMjAzLjYxIDMzNy44OCwyMDMuNTkgMzM3LjkzLDIwMy41OSAzMzcuNTIsMjAzLjYgMzM3LjU5LDIwMy41OSAzMzcuMTksMjAzLjYxIDMzNy4yNSwyMDMuNjEgMzM2Ljg2LDIwMy42NCAzMzYuOTMsMjAzLjYzIDMzNi41NiwyMDMuNjcgMzM2LjYzLDIwMy42NiAzMzYuMjcsMjAzLjcyIDMzNi4zNCwyMDMuNzEgMzM1Ljk4LDIwMy43OCAzMzYuMDYsMjAzLjc2IDMzNS43MSwyMDMuODUgMzM1Ljc5LDIwMy44MyAzMzUuNDYsMjAzLjkyIDMzNS41NCwyMDMuOSAzMzUuMjIsMjA0LjAxIDMzNS4yOSwyMDMuOTggMzM0Ljk4LDIwNC4xIDMzNS4wNSwyMDQuMDcgMzM0Ljc1LDIwNC4yIDMzNC44MywyMDQuMTcgMzM0LjU0LDIwNC4zMSAzMzQuNjEsMjA0LjI4IDMzNC4zMywyMDQuNDMgMzM0LjQsMjA0LjM5IDMzNC4xMywyMDQuNTUgMzM0LjIsMjA0LjUxIDMzMy45NCwyMDQuNjggMzM0LDIwNC42NCAzMzMuNzUsMjA0LjgyIDMzMi4wMiwyMDUuMDUgMzMyLjAxLDIwNS4wNSAzMzEuOTUsMjA1LjAyIDMzMS45MSwyMDUuMDEgMzMxLjkzLDIwNS4wMiAzMzEuODgsMjA1IDMzMS45LDIwNS4wMSAzMzEuODIsMjA0Ljk4IDMzMS44NCwyMDQuOTggMzMxLjc1LDIwNC45NSAzMzEuNjMsMjA0LjkgMzMxLjY1LDIwNC45MSAzMzEuNTEsMjA0Ljg2IDMzMS41MiwyMDQuODcgMzMxLjM3LDIwNC44MSAzMzEuMzgsMjA0LjgyIDMzMS4yMSwyMDQuNzYgMzMxLjIzLDIwNC43NiAzMzEuMDQsMjA0LjcgMzMxLjA1LDIwNC43IDMzMC44NSwyMDQuNjQgMzMwLjg3LDIwNC42NCAzMzAuNjUsMjA0LjU4IDMzMC42NiwyMDQuNTggMzMwLjQzLDIwNC41MSAzMzAuNDUsMjA0LjUyIDMzMC4yLDIwNC40NSAzMzAuMjIsMjA0LjQ1IDMyOS45NiwyMDQuMzggMzI5Ljk4LDIwNC4zOCAzMjkuNzEsMjA0LjMxIDMyOS43NCwyMDQuMzIgMzI5LjE2LDIwNC4xOCAzMjkuMjEsMjA0LjE5IDMyOC41OSwyMDQuMDUgMzI4LjY0LDIwNC4wNiAzMjcuOTksMjAzLjk0IDMyOC4wNSwyMDMuOTUgMzI3LjM3LDIwMy44NSAzMjcuNDQsMjAzLjg2IDMyNi43MywyMDMuNzggMzI2LjgxLDIwMy43OCAzMjYuMDksMjAzLjczIDMyNi4xOCwyMDMuNzQgMzI1LjQ1LDIwMy43MiAzMjUuNTUsMjAzLjcyIDMyNC44MSwyMDMuNzQgMzI0LjksMjAzLjczIDMyNC41MywyMDMuNzYgMzI0LjU5LDIwMy43NSAzMjQuMjIsMjAzLjc5IDMyNC4yOSwyMDMuNzggMzIzLjkyLDIwMy44MyAzMjMuOTksMjAzLjgyIDMyMy42MywyMDMuODggMzIzLjcsMjAzLjg3IDMyMy4zNCwyMDMuOTQgMzIzLjQyLDIwMy45MyAzMjMuMDcsMjA0LjAyIDMyMy4xNCwyMDQgMzIyLjc5LDIwNC4xIDMyMi44NywyMDQuMDcgMzIyLjUzLDIwNC4xOSAzMjIuNjIsMjA0LjE2IDMyMi4yOCwyMDQuMyAzMjIuMzcsMjA0LjI2IDMyMi4wNCwyMDQuNDEgMzIyLjEzLDIwNC4zNyAzMjEuODEsMjA0LjU0IDMyMS45LDIwNC40OSAzMjEuNTksMjA0LjY4IDMyMS42OCwyMDQuNjIgMzIxLjM4LDIwNC44MiAzMjEuNDcsMjA0Ljc2IDMyMS4xOCwyMDQuOTkgMzIxLjI2LDIwNC45MSAzMjAuOTgsMjA1LjE2IDMyMS4wNiwyMDUuMDggMzIwLjgsMjA1LjM1IDMyMC44OCwyMDUuMjYgMzIwLjYyLDIwNS41NSAzMjAuNywyMDUuNDYgMzIwLjQ1LDIwNS43NyAzMjAuNTIsMjA1LjY4IDMyMC4yOSwyMDYuMDEgMzIwLjM2LDIwNS45MiAzMjAuMTQsMjA2LjI3IDMyMC4yLDIwNi4xNyAzMjAsMjA2LjU1IDMyMC4wNSwyMDYuNDUgMzE5Ljg3LDIwNi44NiAzMTkuOTEsMjA2Ljc2IDMxOS43NCwyMDcuMTkgMzE5Ljc4LDIwNy4wOSAzMTkuNjMsMjA3LjU1IDMxOS42NSwyMDcuNDYgMzE5LjUzLDIwNy45NCAzMTkuNTUsMjA3Ljg0IDMxOS40NCwyMDguMzUgMzE5LjQ2LDIwOC4yNyAzMTkuMzcsMjA4LjggMzE5LjM4LDIwOC43MiAzMTkuMzEsMjA5LjI4IDMxOS4zMiwyMDkuMiAzMTkuMjcsMjA5LjggMzE5LjI4LDIwOS43MiAzMTkuMjUsMjEwLjM0IDMxOS4yNSwyMTAuMjcgMzE5LjI1LDIxMC45MiAzMTkuMjUsMjEwLjg2IDMxOS4yOCwyMTEuNTQgMzE5LjI3LDIxMS40OCAzMTkuMjgsMjExLjY0IDMxOS4yOCwyMTEuNTkgMzE5LjMsMjExLjc4IDMxOS4yOSwyMTEuNzUgMzE5LjMyLDIxMS45NiAzMTkuMzEsMjExLjkzIDMxOS4zNCwyMTIuMTYgMzE5LjM0LDIxMi4xNCAzMTkuMzcsMjEyLjQgMzE5LjM3LDIxMi4zNyAzMTkuNDEsMjEyLjY0IDMxOS40MSwyMTIuNjMgMzE5LjQ1LDIxMi45MyAzMTkuNDUsMjEyLjkxIDMxOS41LDIxMy4yMyAzMTkuNSwyMTMuMjEgMzE5LjU2LDIxMy41NCAzMTkuNTYsMjEzLjUzIDMxOS42MiwyMTMuODggMzE5LjYxLDIxMy44NiAzMTkuNjgsMjE0LjIyIDMxOS42OCwyMTQuMjEgMzE5Ljc1LDIxNC41OSAzMTkuNzUsMjE0LjU4IDMxOS44MywyMTQuOTcgMzE5LjgzLDIxNC45NiAzMTkuOTEsMjE1LjM2IDMxOS45MSwyMTUuMzQgMzIwLjA5LDIxNi4xOCAzMjAuMDksMjE2LjE2IDMyMC4yOSwyMTcuMDQgMzIwLjI4LDIxNy4wMSAzMjAuNTEsMjE3LjkyIDMyMC41LDIxNy45IDMyMC43NCwyMTguODMgMzIwLjczLDIxOC44IDMyMC45OSwyMTkuNzQgMzIwLjk4LDIxOS43MiAzMjEuMjYsMjIwLjY2IDMyMS4yNSwyMjAuNjMgMzIxLjU0LDIyMS41NyAzMjEuNTMsMjIxLjU0IDMyMS44NCwyMjIuNDggMzIxLjgzLDIyMi40NCAzMjIuMTUsMjIzLjM1IDMyMi4xMywyMjMuMzEgMzIyLjQ3LDIyNC4xOSAzMjIuNDUsMjI0LjE1IDMyMi44MSwyMjUgMzIyLjc5LDIyNC45NSAzMjIuOTcsMjI1LjM2IDMyMi45NSwyMjUuMzMgMzIzLjE0LDIyNS43MyAzMjMuMTIsMjI1LjcgMzIzLjMxLDIyNi4wOCAzMjMuMjksMjI2LjA0IDMyMy40OCwyMjYuNDEgMzIzLjQ2LDIyNi4zNyAzMjMuNjYsMjI2LjczIDMyMy42NCwyMjYuNjkgMzIzLjgzLDIyNy4wMyAzMjMuOCwyMjYuOTggMzI0LDIyNy4zIDMyMy45NywyMjcuMjUgMzI0LjE3LDIyNy41NSAzMjQuMTMsMjI3LjQ5IDMyNC4zNCwyMjcuNzggMzI0LjI5LDIyNy43MiAzMjQuNSwyMjcuOTggMzI0LjQ1LDIyNy45MSAzMjQuNjYsMjI4LjE2IDMyNC41OSwyMjguMDggMzI0LjgsMjI4LjMgMzI0LjcyLDIyOC4yMyAzMjQuOTQsMjI4LjQyIDMyNC44NCwyMjguMzQgMzI1LjA2LDIyOC41MSAzMjQuOTQsMjI4LjQyIDMyNS4xNiwyMjguNTcgMzI1LjAyLDIyOC40OCAzMjUuMjQsMjI4LjYxIDMyNS4wNiwyMjguNTIgMzI1LjI5LDIyOC42MiAzMjUuMSwyMjguNTUgMzI1LjMyLDIyOC42MSAzMjUuMDksMjI4LjU2IDMyNS4zMiwyMjguNiAzMjUuMDgsMjI4LjU4IDMyNS4zMSwyMjguNTggMzI1LjA3LDIyOC41OSAzMjUuMywyMjguNTcgMzI1LjA2LDIyOC42MSAzMjUuMjksMjI4LjU1IDMyNS4wNiwyMjguNjMgMzI1LjMsMjI4LjUzIDMyNS4xMSwyMjguNjIgMzI1LjM0LDIyOC41IDMyNS4xNywyMjguNiAzMjUuNDEsMjI4LjQ0IDMyNS4yNywyMjguNTQgMzI1LjUxLDIyOC4zNCAzMjUuNCwyMjguNDQgMzI1LjY0LDIyOC4yMSAzMjUuNTUsMjI4LjMxIDMyNS43OSwyMjguMDMgMzI1Ljc2LDIyOC4wNyAzMjYuMTEsMjI3LjY1IDMyNi4xMiwyMjcuNjQgMzI2LjQ4LDIyNy4yMiAzMjYuNDgsMjI3LjIxIDMyNi44MywyMjYuODEgMzI2LjgzLDIyNi44MSAzMjcuMTcsMjI2LjQyIDMyNy4xOCwyMjYuNDEgMzI3LjM0LDIyNi4yMyAzMjcuMzUsMjI2LjIyIDMyNy41MSwyMjYuMDQgMzI3LjY2LDIyNS44NiAzMjcuODIsMjI1LjY4IDMyNy44MywyMjUuNjggMzI3Ljk3LDIyNS41MSAzMjguMTIsMjI1LjM1IDMyOC4yNiwyMjUuMiAzMjguMjcsMjI1LjE5IDMyOC40LDIyNS4wNCAzMjguNTMsMjI0LjkgMzI4LjY1LDIyNC43NiAzMjguNzcsMjI0LjYzIDMyOC43NywyMjQuNjMgMzI4Ljg4LDIyNC41MSAzMjguOTksMjI0LjQgMzI4Ljk5LDIyNC4zOSAzMjkuMDksMjI0LjI5IDMyOS4wOCwyMjQuMjkgMzI5LjE3LDIyNC4yIDMyOS4xOCwyMjQuMTkgMzI5LjI2LDIyNC4xIDMyOS4zMywyMjQuMDMgMzI5LjQsMjIzLjk2IDMyOS40NSwyMjMuOSAzMjkuNSwyMjMuODUgMzI5LjU0LDIyMy44MSAzMjkuNTcsMjIzLjc4IDMyOS42LDIyMy43NCAzMjkuNjIsMjIzLjcyIDMyOS41MywyMjMuODEgMzI5LjU0LDIyMy44MSAzMzEuOTMsMjIzLjQ3IDMzMi4xLDIyMy41OCAzMzIuMDQsMjIzLjU0IDMzMi4yMiwyMjMuNjQgMzMyLjE1LDIyMy42IDMzMi4zMywyMjMuNyAzMzIuMjcsMjIzLjY3IDMzMi40NSwyMjMuNzYgMzMyLjM4LDIyMy43MiAzMzIuNTcsMjIzLjgxIDMzMi41LDIyMy43OCAzMzIuNjksMjIzLjg1IDMzMi42MiwyMjMuODIgMzMyLjgxLDIyMy44OSAzMzIuNzMsMjIzLjg3IDMzMi45MywyMjMuOTIgMzMyLjg2LDIyMy45IDMzMy4wNiwyMjMuOTUgMzMyLjk4LDIyMy45MyAzMzMuMTgsMjIzLjk3IDMzMy4xLDIyMy45NiAzMzMuMywyMjMuOTkgMzMzLjIyLDIyMy45OCAzMzMuNDMsMjI0IDMzMy4zNSwyMjMuOTkgMzMzLjU2LDIyNC4wMSAzMzMuNDcsMjI0IDMzMy42OSwyMjQuMDEgMzMzLjYsMjI0LjAxIDMzMy44MSwyMjQgMzMzLjczLDIyNCAzMzMuOTUsMjIzLjk5IDMzMi44OCwyMjQuNDMgMzMyLjk2LDIyNC4zNiAzMzYuMDIsMjI1Ljg1IDMzNi4wMSwyMjYuMDcgMzM2LjAyLDIyNS45NSAzMzYuMDIsMjI2LjE3IDMzNi4wMSwyMjYuMDYgMzM2LjAzLDIyNi4yOSAzMzYuMDIsMjI2LjIyIDMzNi4wNCwyMjYuMzMgMzM2LjAzLDIyNi4yOSAzMzYuMDUsMjI2LjQxIDMzNS42LDIyNy44OCAzMzUuNDgsMjI4LjAyIDMzNS41LDIyOCAzMzUuMzgsMjI4LjEyIDMzNS40LDIyOC4xMSAzMzUuMywyMjguMjMgMzM1LjMxLDIyOC4yMiAzMzUuMjEsMjI4LjM0IDMzNS4yMiwyMjguMzIgMzM1LjEzLDIyOC40MyAzMzUuMTUsMjI4LjQyIDMzNS4wNiwyMjguNTIgMzM1LjA2LDIyOC41MiAzMzQuOTksMjI4LjYyIDMzNC45OCwyMjguNjMgMzM0LjkxLDIyOC43MiAzMzQuOSwyMjguNzMgMzM0LjgzLDIyOC44MiAzMzQuODIsMjI4LjgzIDMzNC43NSwyMjguOTEgMzM0LjcyLDIyOC45NSAzMzQuNTgsMjI5LjExIDMzNC41MSwyMjkuMTkgMzM0LjM3LDIyOS4zMyAzMzQuMjYsMjI5LjQzIDMzNC4xMiwyMjkuNTYgMzM0LjAyLDIyOS42NCAzMzMuOTQsMjI5LjcgMzMzLjg2LDIyOS43NiAzMzMuNzgsMjI5LjgxIDMzMy43MiwyMjkuODYgMzMzLjYzLDIyOS45MSAzMzMuNTQsMjI5Ljk2IDMzMy40NCwyMzAuMDEgMzMzLjM4LDIzMC4wNSAzMzMuMjgsMjMwLjEgMzMzLjIxLDIzMC4xMyAzMzMuMSwyMzAuMTggMzMzLjAzLDIzMC4yMSAzMzIuOTEsMjMwLjI2IDMzMi44NiwyMzAuMjggMzMyLjczLDIzMC4zMyAzMzIuNjgsMjMwLjM0IDMzMi41NCwyMzAuMzkgMzMyLjQ5LDIzMC40IDMzMi4zNCwyMzAuNDUgMzMyLjMsMjMwLjQ2IDMzMi4xMywyMzAuNTEgMzMyLjEsMjMwLjUyIDMzMS45MiwyMzAuNTcgMzMxLjg5LDIzMC41NyAzMzEuNjksMjMwLjYyIDMzMS42OCwyMzAuNjIgMzMxLjQ2LDIzMC42NyAzMzEuNDQsMjMwLjY4IDMzMS4yMSwyMzAuNzMgMzMxLjIsMjMwLjczIDMzMS4wOCwyMzAuNzYgMzMwLjk1LDIzMC43OCAzMzAuOTcsMjMwLjc4IDMzMC44NCwyMzAuODEgMzMwLjg2LDIzMC44IDMzMC43NCwyMzAuODMgMzMwLjc3LDIzMC44MiAzMzAuNjYsMjMwLjg1IDMzMC43MSwyMzAuODQgMzMwLjYxLDIzMC44NyAzMzAuNjIsMjMwLjg2IDMzMC41MiwyMzAuODkgMzMwLjU3LDIzMC44OCAzMzAuNDgsMjMwLjkgMzMwLjUxLDIzMC44OSAzMzAuNDIsMjMwLjkyIDMzMC40NywyMzAuOTEgMzMwLjM5LDIzMC45NCAzMzAuNDMsMjMwLjkyIDMzMC4zNSwyMzAuOTUgMzMwLjQxLDIzMC45MyAzMzAuMzQsMjMwLjk2IDMzMC4zOCwyMzAuOTQgMzMwLjMxLDIzMC45NyAzMzAuMzgsMjMwLjk0IDMzMC4zMiwyMzAuOTcgMzMwLjM3LDIzMC45NCAzMzAuMzIsMjMwLjk3IDMzMC40LDIzMC45MiAzMzAuMzUsMjMwLjk2IDMzMC40MSwyMzAuOTEgMzMwLjM2LDIzMC45NSAzMzAuNDMsMjMwLjkgMzMwLjM5LDIzMC45MyAzMzAuNSwyMzAuODQgMzMwLjQ2LDIzMC44OCAzMzAuNTQsMjMwLjggMzMwLjUxLDIzMC44MyAzMzAuNjMsMjMwLjcgMzMwLjU3LDIzMC43NiAzMzAuNzUsMjMwLjUxIDMzMC43MSwyMzAuNTcgMzMwLjg2LDIzMC4yNSAzMzAuODMsMjMwLjMyIDMzMC45MiwyMjkuOTUgMzMwLjkxLDIzMC4wMSAzMzAuOTIsMjI5LjY1IDMzMC45MywyMjkuNzIgMzMwLjg2LDIyOS4zNyAzMzAuODgsMjI5LjQ0IDMzMC43OSwyMjkuMTcgMzMwLjgyLDIyOS4yMyAzMzAuNywyMjkuMDEgMzMwLjc0LDIyOS4wOCAzMzAuNjIsMjI4LjkxIDMzMC42NywyMjguOTcgMzMwLjU2LDIyOC44NCAzMzAuNjIsMjI4LjkxIDMzMC41MSwyMjguOCAzMzAuNTgsMjI4Ljg3IDMzMC41LDIyOC44IDMzMC41OCwyMjguODYgMzMwLjQ5LDIyOC43OSAzMzAuNTcsMjI4Ljg1IDMzMC41LDIyOC44IDMzMC41OCwyMjguODUgMzMwLjUyLDIyOC44MiAzMzAuNjEsMjI4Ljg3IDMzMC41MiwyMjguODIgMzMwLjcyLDIyOC45MiAzMzAuNjEsMjI4Ljg3IDMzMC44MSwyMjguOTUgMzMwLjcxLDIyOC45MiAzMzAuOTIsMjI4Ljk5IDMzMC44MSwyMjguOTUgMzMxLjAxLDIyOS4wMSAzMzAuOTMsMjI4Ljk5IDMzMS4wNSwyMjkuMDIgMzMxLjAzLDIyOS4wMiAzMzEuMTcsMjI5LjA1IDMzMS4xMywyMjkuMDQgMzMxLjI3LDIyOS4wNyAzMzEuMjUsMjI5LjA2IDMzMS40LDIyOS4wOSAzMzEuMzYsMjI5LjA4IDMzMS41MSwyMjkuMTEgMzMxLjQ4LDIyOS4xIDMzMS42NCwyMjkuMTMgMzMxLjYsMjI5LjEyIDMzMS43NywyMjkuMTQgMzMxLjczLDIyOS4xNCAzMzEuOTEsMjI5LjE2IDMzMS44NiwyMjkuMTUgMzMyLjA0LDIyOS4xNyAzMzEuOTksMjI5LjE2IDMzMi4xOCwyMjkuMTcgMzMyLjEzLDIyOS4xNyAzMzIuMzMsMjI5LjE4IDMzMi4yNywyMjkuMTggMzMyLjQ2LDIyOS4xNyAzMzIuNDEsMjI5LjE3IDMzMi42MSwyMjkuMTcgMzMyLjU1LDIyOS4xNyAzMzIuNzUsMjI5LjE1IDMzMi42OCwyMjkuMTYgMzMyLjg5LDIyOS4xNCAzMzIuODMsMjI5LjE1IDMzMy4wNCwyMjkuMTEgMzMyLjk3LDIyOS4xMyAzMzMuMTgsMjI5LjA5IDMzMy4xMSwyMjkuMSAzMzMuMzIsMjI5LjA1IDMzMy4yNCwyMjkuMDcgMzMzLjQ2LDIyOS4wMSAzMzMuMzgsMjI5LjAzIDMzMy42LDIyOC45NiAzMzMuNTIsMjI4Ljk5IDMzMy43NCwyMjguOTEgMzMzLjY2LDIyOC45NCAzMzMuODcsMjI4Ljg1IDMzMy43OCwyMjguODkgMzM0LDIyOC43OCAzMzMuOTIsMjI4LjgyIDMzNC4xNCwyMjguNyAzMzQuMDUsMjI4Ljc1IDMzNC4yNywyMjguNjIgMzM0LjE5LDIyOC42NyAzMzQuNCwyMjguNTIgMzM0LjMyLDIyOC41NyAzMzQuNTMsMjI4LjQxIDMzNC40NiwyMjguNDcgMzM0LjY2LDIyOC4yOSAzMzQuNTksMjI4LjM2IDMzNC43OSwyMjguMTYgMzM0LjczLDIyOC4yMyAzMzQuOTIsMjI4LjAyIDMzNC44OCwyMjguMDcgMzM0Ljk4LDIyNy45NSAzMzQuOTUsMjI3Ljk4IDMzNS4wNSwyMjcuODcgMzM1LjAxLDIyNy45MSAzMzUuMTEsMjI3Ljc5IDMzNS4wOCwyMjcuODIgMzM1LjE3LDIyNy42OSAzMzguNDYsMjI5LjIzIDMzOC4zOSwyMjkuNTQgMzM3Ljg4LDIyNy43NyAzMzcuOTIsMjI3LjgyIDMzOC4xMSwyMjguMDMgMzM4LjE2LDIyOC4wOSAzMzguMjcsMjI4LjI2IDMzOC4zMSwyMjguMzMgMzM4LjM5LDIyOC40OCAzMzguNDMsMjI4LjU2IDMzOC40OSwyMjguNyAzMzguNTMsMjI4Ljc5IDMzOC41NSwyMjguODcgMzM4LjU5LDIyOC45NyAzMzguNjEsMjI5LjA2IDMzOC42NSwyMjkuMTcgMzM4LjY2LDIyOS4yNSAzMzguNjksMjI5LjM3IDMzOC43LDIyOS40MiAzMzguNzMsMjI5LjU1IDMzOC43NCwyMjkuNjEgMzM4Ljc2LDIyOS43NCAzMzguNzcsMjI5Ljc4IDMzOC43OSwyMjkuOTIgMzM4Ljc5LDIyOS45NiAzMzguODEsMjMwLjExIDMzOC44MiwyMzAuMTQgMzM4LjgzLDIzMC4yOSAzMzguODQsMjMwLjMyIDMzOC44NSwyMzAuNDggMzM4Ljg1LDIzMC41MSAzMzguODcsMjMwLjY4IDMzOC44NywyMzAuNjkgMzM4Ljg4LDIzMC44NyAzMzguODksMjMwLjg5IDMzOC45MSwyMzEuMjUgMzM4LjkxLDIzMS4yOCAzMzguOTMsMjMxLjY1IDMzOC45MywyMzEuNjcgMzM4Ljk0LDIzMi4wNSAzMzguOTQsMjMyLjA2IDMzOC45NiwyMzIuNDQgMzM4Ljk3LDIzMi44MyAzMzguOTcsMjMyLjg0IDMzOC45OCwyMzMuMjIgMzM4Ljk4LDIzMy4yMSAzMzguOTksMjMzLjU4IDMzOC45OSwyMzMuNTcgMzM5LDIzMy45MyAzMzksMjMzLjkyIDMzOS4wMiwyMzQuMjcgMzM5LjAyLDIzNC4yNiAzMzkuMDMsMjM0LjYgMzM5LjA1LDIzNC45MyAzMzkuMDUsMjM0LjkyIDMzOS4wNywyMzUuMjUgMzM5LjA3LDIzNS4yNCAzMzkuMDksMjM1LjU2IDMzOS4wOSwyMzUuNTUgMzM5LjEyLDIzNS44NyAzMzkuMTIsMjM1Ljg1IDMzOS4xNCwyMzYuMTYgMzM5LjE0LDIzNi4xNCAzMzkuMTcsMjM2LjQ0IDMzOS4xNywyMzYuNDEgMzM5LjIsMjM2LjcxIDMzOS4yLDIzNi42NyAzMzkuMjQsMjM2Ljk2IDMzOS4yMywyMzYuOTIgMzM5LjI4LDIzNy4xOSAzMzkuMjcsMjM3LjE0IDMzOS4zMiwyMzcuNCAzMzkuMzEsMjM3LjM1IDMzOS4zNiwyMzcuNiAzMzkuMzQsMjM3LjU0IDMzOS40LDIzNy43NyAzMzkuMzgsMjM3LjcgMzM5LjQ1LDIzNy45MiAzMzkuNDIsMjM3Ljg0IDMzOS40OSwyMzguMDQgMzM5LjQ4LDIzOC4wMSAzMzkuNTIsMjM4LjExIDMzOS41MiwyMzguMTQgMzM5LjU2LDIzOC4yNSAzMzkuNTcsMjM4LjI2IDMzOS42LDIzOC4zOCAzMzkuNjEsMjM4LjM5IDMzOS42NSwyMzguNTEgMzM5LjY0LDIzOC41IDMzOS42OSwyMzguNjMgMzM5LjY4LDIzOC42MSAzMzkuNzMsMjM4Ljc1IDMzOS43MiwyMzguNzIgMzM5Ljc3LDIzOC44NiAzMzkuNzUsMjM4LjgyIDMzOS44MSwyMzguOTYgMzM5Ljc5LDIzOC45MiAzMzkuODUsMjM5LjA3IDMzOS44MywyMzkuMDIgMzM5Ljg5LDIzOS4xNiAzMzkuODcsMjM5LjExIDMzOS45NCwyMzkuMjYgMzM5LjkxLDIzOS4xOSAzMzkuOTgsMjM5LjM0IDMzOS45NSwyMzkuMjYgMzQwLjAzLDIzOS40MSAzMzkuOTgsMjM5LjM0IDM0MC4wOCwyMzkuNDggMzQwLjAyLDIzOS40IDM0MC4xMiwyMzkuNTMgMzQwLjA2LDIzOS40NiAzNDAuMTcsMjM5LjU5IDM0MC4xLDIzOS41IDM0MC4yMSwyMzkuNjMgMzQwLjEzLDIzOS41NCAzNDAuMjUsMjM5LjY2IDM0MC4xNiwyMzkuNTggMzQwLjMsMjM5LjcgMzQwLjE5LDIzOS42MiAzNDAuMzQsMjM5LjcyIDM0MC4yMywyMzkuNjQgMzQwLjM5LDIzOS43NCAzNDAuMjYsMjM5LjY3IDM0MC40NCwyMzkuNzYgMzQwLjMxLDIzOS43IDM0MC40OSwyMzkuNzggMzQwLjM2LDIzOS43MyAzNDAuNTYsMjM5LjggMzQwLjQyLDIzOS43NiAzNDAuNjQsMjM5LjgxIDM0MC41LDIzOS43OCAzNDAuNzIsMjM5LjgyIDM0MC42LDIzOS44IDM0MC44NCwyMzkuODMgMzQwLjcyLDIzOS44MiAzNDAuOTgsMjM5LjgzIDM0MC44NiwyMzkuODMgMzQxLjEzLDIzOS44MiAzNDEuMDUsMjM5LjgzIDM0MS4xOSwyMzkuODIgMzQxLjE0LDIzOS44MiAzNDEuMjksMjM5LjgxIDM0MS4yMywyMzkuODEgMzQxLjM4LDIzOS43OSAzNDEuMzQsMjM5LjggMzQxLjUsMjM5Ljc4IDM0MS40NCwyMzkuNzggMzQxLjYsMjM5Ljc2IDM0MS41NiwyMzkuNzYgMzQxLjczLDIzOS43MyAzNDEuNjksMjM5Ljc0IDM0MS45NywyMzkuNjggMzQxLjk0LDIzOS42OCAzNDIuMjIsMjM5LjYyIDM0Mi4xOCwyMzkuNjMgMzQyLjQ0LDIzOS41NiAzNDIuNDEsMjM5LjU3IDM0Mi42NywyMzkuNSAzNDIuNiwyMzkuNTIgMzQyLjg2LDIzOS40MyAzNDIuOCwyMzkuNDUgMzQzLjA2LDIzOS4zNiAzNDIuOTgsMjM5LjM5IDM0My4yMywyMzkuMjkgMzQzLjE1LDIzOS4zMyAzNDMuMzksMjM5LjIyIDM0My4zLDIzOS4yNiAzNDMuNTMsMjM5LjE0IDM0My40NCwyMzkuMTkgMzQzLjY3LDIzOS4wNiAzNDMuNTcsMjM5LjEyIDM0My43OSwyMzguOTcgMzQzLjcsMjM5LjAzIDM0My45MiwyMzguODcgMzQzLjg0LDIzOC45MyAzNDMuOTQsMjM4Ljg0IDM0My45LDIzOC44OCAzNDQsMjM4Ljc4IDM0My45NiwyMzguODMgMzQ0LjA2LDIzOC43MyAzNDQuMDEsMjM4Ljc3IDM0NC4xMSwyMzguNjcgMzQ0LjA3LDIzOC43MSAzNDQuMTcsMjM4LjYgMzQ0LjEyLDIzOC42NiAzNDQuMjIsMjM4LjU0IDM0NC4xOSwyMzguNTggMzQ0LjI4LDIzOC40NiAzNDQuMjQsMjM4LjUxIDM0NC4zMywyMzguMzkgMzQ0LjMsMjM4LjQzIDM0NC4zOSwyMzguMyAzNDQuMzYsMjM4LjM1IDM0NC40NCwyMzguMjIgMzQ0LjQxLDIzOC4yNyAzNDQuNSwyMzguMTIgMzQ0LjQ3LDIzOC4xNyAzNDQuNTYsMjM4LjAyIDM0NC41MywyMzguMDYgMzQ0LjYxLDIzNy45MSAzNDQuNTksMjM3Ljk1IDM0NC42NywyMzcuNzkgMzQ0LjY0LDIzNy44NCAzNDQuNzIsMjM3LjY3IDM0NC43LDIzNy43MSAzNDQuNzgsMjM3LjUzIDM0NC43NiwyMzcuNTggMzQ0LjgzLDIzNy40IDM0NC44MiwyMzcuNDMgMzQ0Ljg5LDIzNy4yNCAzNDQuODcsMjM3LjI5IDM0NC45NCwyMzcuMDkgMzQ0LjkzLDIzNy4xMiAzNDQuOTksMjM2LjkyIDM0NC45OCwyMzYuOTYgMzQ1LjA0LDIzNi43NSAzNDUuMDMsMjM2Ljc4IDM0NS4wOSwyMzYuNTYgMzQ1LjA4LDIzNi41OSAzNDUuMTQsMjM2LjM2IDM0NS4xMywyMzYuNCAzNDUuMTksMjM2LjE2IDM0NS4xOCwyMzYuMTkgMzQ1LjIzLDIzNS45NSAzNDUuMjMsMjM1Ljk4IDM0NS4yOCwyMzUuNzIgMzQ1LjI3LDIzNS43NSAzNDUuMzIsMjM1LjQ5IDM0NS4zMiwyMzUuNTIgMzQ1LjM2LDIzNS4yNSAzNDUuMzYsMjM1LjI3IDM0NS40LDIzNC45OSAzNDUuNCwyMzUuMDEgMzQ1LjQzLDIzNC43MiAzNDUuNDMsMjM0Ljc1IDM0NS40NywyMzQuNDUgMzQ1LjQ3LDIzNC40NyAzNDUuNSwyMzQuMTYgMzQ1LjUsMjM0LjE5IDM0NS41MywyMzMuODcgMzQ1LjUzLDIzMy44OSAzNDUuNTYsMjMzLjU2IDM0NS41NSwyMzMuNTggMzQ1LjU4LDIzMy4yNCAzNDUuNTgsMjMzLjI2IDM0NS42LDIzMi45MSAzNDUuNiwyMzIuOTMgMzQ1LjYyLDIzMi41NyAzNDUuNjIsMjMyLjU5IDM0NS42NCwyMzIuMjIgMzQ1LjY0LDIzMi4yNCAzNDUuNjUsMjMxLjg2IDM0NS42NSwyMzEuODcgMzQ1LjY2LDIzMS40OCAzNDkuMzYsMjMxLjU5IDM0OS4zNSwyMzEuOTggMzQ5LjM1LDIzMS45OSAzNDkuMzQsMjMyLjM3IDM0OS4zNCwyMzIuMzkgMzQ5LjMyLDIzMi43NiAzNDkuMzIsMjMyLjc4IDM0OS4zLDIzMy4xNCAzNDkuMywyMzMuMTYgMzQ5LjI3LDIzMy41IDM0OS4yNywyMzMuNTIgMzQ5LjI0LDIzMy44NiAzNDkuMjQsMjMzLjg4IDM0OS4yMSwyMzQuMjEgMzQ5LjIxLDIzNC4yMyAzNDkuMTgsMjM0LjU1IDM0OS4xOCwyMzQuNTcgMzQ5LjE0LDIzNC44OCAzNDkuMTQsMjM0LjkgMzQ5LjExLDIzNS4yIDM0OS4xLDIzNS4yMyAzNDkuMDYsMjM1LjUyIDM0OS4wNiwyMzUuNTQgMzQ5LjAyLDIzNS44MiAzNDkuMDEsMjM1Ljg1IDM0OC45NywyMzYuMTIgMzQ4Ljk2LDIzNi4xNSAzNDguOTIsMjM2LjQxIDM0OC45MSwyMzYuNDQgMzQ4Ljg2LDIzNi42OSAzNDguODUsMjM2LjcyIDM0OC44LDIzNi45NyAzNDguNzksMjM3IDM0OC43NCwyMzcuMjQgMzQ4LjczLDIzNy4yNyAzNDguNjcsMjM3LjUgMzQ4LjY3LDIzNy41MyAzNDguNjEsMjM3Ljc1IDM0OC42LDIzNy43OSAzNDguNTMsMjM4IDM0OC41MiwyMzguMDQgMzQ4LjQ1LDIzOC4yNSAzNDguNDQsMjM4LjI4IDM0OC4zOCwyMzguNDggMzQ4LjM2LDIzOC41MiAzNDguMjksMjM4LjcxIDM0OC4yOCwyMzguNzQgMzQ4LjIxLDIzOC45MyAzNDguMTksMjM4Ljk3IDM0OC4xMSwyMzkuMTUgMzQ4LjEsMjM5LjE5IDM0OC4wMiwyMzkuMzYgMzQ4LDIzOS40MSAzNDcuOTIsMjM5LjU3IDM0Ny45LDIzOS42MSAzNDcuODIsMjM5Ljc3IDM0Ny43OSwyMzkuODIgMzQ3LjcxLDIzOS45NiAzNDcuNjksMjQwLjAxIDM0Ny42LDI0MC4xNSAzNDcuNTcsMjQwLjIgMzQ3LjQ4LDI0MC4zNCAzNDcuNDUsMjQwLjM5IDM0Ny4zNiwyNDAuNTIgMzQ3LjMzLDI0MC41NiAzNDcuMjQsMjQwLjY5IDM0Ny4yLDI0MC43NCAzNDcuMSwyNDAuODYgMzQ3LjA3LDI0MC45IDM0Ni45OCwyNDEuMDEgMzQ2LjkzLDI0MS4wNyAzNDYuODQsMjQxLjE4IDM0Ni44LDI0MS4yMiAzNDYuNywyNDEuMzIgMzQ2LjY2LDI0MS4zNyAzNDYuNTYsMjQxLjQ3IDM0Ni41MSwyNDEuNTEgMzQ2LjQxLDI0MS42IDM0Ni4zNiwyNDEuNjQgMzQ2LjI2LDI0MS43MyAzNDYuMTgsMjQxLjc5IDM0NS45NywyNDEuOTYgMzQ1Ljg4LDI0Mi4wMyAzNDUuNjYsMjQyLjE4IDM0NS41NiwyNDIuMjQgMzQ1LjMzLDI0Mi4zNyAzNDUuMjQsMjQyLjQyIDM0NS4wMSwyNDIuNTQgMzQ0LjkyLDI0Mi41OSAzNDQuNjgsMjQyLjcgMzQ0LjYsMjQyLjczIDM0NC4zNiwyNDIuODMgMzQ0LjI5LDI0Mi44NiAzNDQuMDMsMjQyLjk1IDM0My45OCwyNDIuOTYgMzQzLjcyLDI0My4wNCAzNDMuNjYsMjQzLjA2IDM0My40LDI0My4xNCAzNDMuMzYsMjQzLjE1IDM0My4xLDI0My4yMSAzNDMuMDYsMjQzLjIyIDM0Mi43OSwyNDMuMjkgMzQyLjc3LDI0My4yOSAzNDIuNDksMjQzLjM1IDM0Mi40NSwyNDMuMzYgMzQyLjI5LDI0My4zOSAzNDIuMjUsMjQzLjQgMzQyLjA5LDI0My40MyAzNDIuMDQsMjQzLjQ0IDM0MS44OSwyNDMuNDYgMzQxLjg1LDI0My40NyAzNDEuNywyNDMuNDggMzQxLjY0LDI0My40OSAzNDEuNSwyNDMuNTEgMzQxLjQ1LDI0My41MSAzNDEuMywyNDMuNTIgMzQxLjIyLDI0My41MiAzNDAuOTUsMjQzLjUzIDM0MC44NCwyNDMuNTMgMzQwLjU4LDI0My41MiAzNDAuNDYsMjQzLjUxIDM0MC4yMiwyNDMuNDkgMzQwLjEsMjQzLjQ3IDMzOS44NywyNDMuNDMgMzM5Ljc0LDI0My40IDMzOS41MywyNDMuMzUgMzM5LjM5LDI0My4zMSAzMzkuMiwyNDMuMjQgMzM5LjA2LDI0My4xOSAzMzguODgsMjQzLjEyIDMzOC43NSwyNDMuMDYgMzM4LjU4LDI0Mi45NyAzMzguNDYsMjQyLjkgMzM4LjMsMjQyLjgxIDMzOC4xOCwyNDIuNzMgMzM4LjAzLDI0Mi42MiAzMzcuOTMsMjQyLjU0IDMzNy43OSwyNDIuNDMgMzM3LjcsMjQyLjM0IDMzNy41NywyNDIuMjIgMzM3LjQ5LDI0Mi4xNCAzMzcuMzcsMjQyLjAxIDMzNy4yOSwyNDEuOTIgMzM3LjE5LDI0MS43OSAzMzcuMTMsMjQxLjcxIDMzNy4wMywyNDEuNTggMzM2Ljk3LDI0MS41IDMzNi44OCwyNDEuMzYgMzM2Ljg0LDI0MS4yOCAzMzYuNzYsMjQxLjE0IDMzNi43MSwyNDEuMDcgMzM2LjY0LDI0MC45MyAzMzYuNjEsMjQwLjg2IDMzNi41NCwyNDAuNzIgMzM2LjUxLDI0MC42NyAzMzYuNDUsMjQwLjUyIDMzNi40MywyNDAuNDcgMzM2LjM3LDI0MC4zMyAzMzYuMzUsMjQwLjI5IDMzNi4zLDI0MC4xNSAzMzYuMjgsMjQwLjExIDMzNi4yNCwyMzkuOTcgMzM2LjIzLDIzOS45NSAzMzYuMTgsMjM5LjgxIDMzNi4xNywyMzkuOCAzMzYuMTMsMjM5LjY3IDMzNi4xMywyMzkuNjYgMzM2LjA5LDIzOS41MyAzMzYuMDksMjM5LjU0IDMzNi4wNSwyMzkuNDMgMzM2LjA2LDIzOS40NCAzMzYuMDIsMjM5LjMzIDMzNi4wMywyMzkuMzUgMzM1Ljk5LDIzOS4yNSAzMzUuOTgsMjM5LjIzIDMzNS45MSwyMzkuMDMgMzM1Ljg5LDIzOC45NSAzMzUuODMsMjM4LjczIDMzNS44MSwyMzguNjYgMzM1Ljc1LDIzOC40MyAzMzUuNzQsMjM4LjM3IDMzNS42OCwyMzguMTIgMzM1LjY3LDIzOC4wNyAzMzUuNjMsMjM3LjgxIDMzNS42MiwyMzcuNzcgMzM1LjU4LDIzNy41IDMzNS41NywyMzcuNDYgMzM1LjUzLDIzNy4xNyAzMzUuNTMsMjM3LjE0IDMzNS40OSwyMzYuODUgMzM1LjQ5LDIzNi44MiAzMzUuNDYsMjM2LjUyIDMzNS40NiwyMzYuNDkgMzM1LjQzLDIzNi4xOCAzMzUuNDMsMjM2LjE2IDMzNS40LDIzNS44NCAzMzUuNCwyMzUuODIgMzM1LjM4LDIzNS40OSAzMzUuMzgsMjM1LjQ4IDMzNS4zNiwyMzUuMTQgMzM1LjM1LDIzNS4xMyAzMzUuMzQsMjM0Ljc4IDMzNS4zMiwyMzQuNDQgMzM1LjMyLDIzNC40MyAzMzUuMywyMzQuMDggMzM1LjMsMjM0LjA3IDMzNS4yOSwyMzMuNzEgMzM1LjI5LDIzMy43IDMzNS4yOCwyMzMuMzMgMzM1LjI4LDIzMy4zMiAzMzUuMjcsMjMyLjk0IDMzNS4yNywyMzIuOTUgMzM1LjI2LDIzMi41NyAzMzUuMjQsMjMyLjE4IDMzNS4yNCwyMzIuMTkgMzM1LjIzLDIzMS44MSAzMzUuMjMsMjMxLjgzIDMzNS4yMSwyMzEuNDYgMzM1LjIxLDIzMS40OCAzMzUuMTksMjMxLjEyIDMzNS4xOSwyMzEuMTUgMzM1LjE4LDIzMC45OCAzMzUuMTgsMjMwLjk5IDMzNS4xNywyMzAuODIgMzM1LjE3LDIzMC44NSAzMzUuMTUsMjMwLjY5IDMzNS4xNSwyMzAuNzEgMzM1LjE0LDIzMC41NSAzMzUuMTQsMjMwLjU4IDMzNS4xMiwyMzAuNDMgMzM1LjEzLDIzMC40NyAzMzUuMTEsMjMwLjMyIDMzNS4xMSwyMzAuMzYgMzM1LjA5LDIzMC4yMiAzMzUuMSwyMzAuMjggMzM1LjA3LDIzMC4xNSAzMzUuMDgsMjMwLjE5IDMzNS4wNSwyMzAuMDcgMzM1LjA3LDIzMC4xNSAzMzUuMDQsMjMwLjA0IDMzNS4wNywyMzAuMTMgMzM1LjA0LDIzMC4wMyAzMzUuMDYsMjMwLjEgMzM1LjAzLDIzMC4wMSAzMzUuMDksMjMwLjE1IDMzNS4wNSwyMzAuMDcgMzM1LjEzLDIzMC4yMiAzMzUuMDksMjMwLjE1IDMzNS4yLDIzMC4zMiAzMzUuMTYsMjMwLjI3IDMzNS4zNSwyMzAuNDggMzM1LjMsMjMwLjQzIDMzNC43OSwyMjguNjYgMzM0Ljg3LDIyOC4zNSAzMzguMTYsMjI5Ljg4IDMzOC4wNywyMzAuMDEgMzM4LjA0LDIzMC4wNCAzMzcuOTQsMjMwLjE3IDMzNy45MSwyMzAuMjEgMzM3LjgyLDIzMC4zMyAzMzcuNzksMjMwLjM2IDMzNy42OSwyMzAuNDcgMzM3LjY1LDIzMC41MiAzMzcuNDUsMjMwLjc0IDMzNy4zOCwyMzAuODEgMzM3LjE4LDIzMSAzMzcuMTEsMjMxLjA3IDMzNi45LDIzMS4yNSAzMzYuODMsMjMxLjMxIDMzNi42MiwyMzEuNDggMzM2LjU0LDIzMS41NCAzMzYuMzMsMjMxLjY5IDMzNi4yNSwyMzEuNzQgMzM2LjA0LDIzMS44OCAzMzUuOTUsMjMxLjkzIDMzNS43NCwyMzIuMDUgMzM1LjY2LDIzMi4wOSAzMzUuNDQsMjMyLjIgMzM1LjM1LDIzMi4yNCAzMzUuMTQsMjMyLjMzIDMzNS4wNiwyMzIuMzcgMzM0Ljg0LDIzMi40NSAzMzQuNzYsMjMyLjQ4IDMzNC41NCwyMzIuNTUgMzM0LjQ2LDIzMi41NyAzMzQuMjUsMjMyLjY0IDMzNC4xNywyMzIuNjYgMzMzLjk1LDIzMi43MSAzMzMuODgsMjMyLjcyIDMzMy42NiwyMzIuNzYgMzMzLjU5LDIzMi43OCAzMzMuMzgsMjMyLjgxIDMzMy4zMSwyMzIuODIgMzMzLjEsMjMyLjg0IDMzMy4wMywyMzIuODUgMzMyLjgzLDIzMi44NiAzMzIuNzYsMjMyLjg3IDMzMi41NiwyMzIuODcgMzMyLjUsMjMyLjg4IDMzMi4zMSwyMzIuODggMzMyLjI0LDIzMi44OCAzMzIuMDUsMjMyLjg3IDMzMiwyMzIuODcgMzMxLjgxLDIzMi44NiAzMzEuNzYsMjMyLjg2IDMzMS41OCwyMzIuODUgMzMxLjUzLDIzMi44NCAzMzEuMzUsMjMyLjgyIDMzMS4zMSwyMzIuODIgMzMxLjE0LDIzMi44IDMzMS4xLDIzMi43OSAzMzAuOTMsMjMyLjc3IDMzMC44OSwyMzIuNzYgMzMwLjc0LDIzMi43MyAzMzAuNjksMjMyLjczIDMzMC41NCwyMzIuNyAzMzAuNTIsMjMyLjY5IDMzMC4zOCwyMzIuNjYgMzMwLjM0LDIzMi42NSAzMzAuMjEsMjMyLjYyIDMzMC4xOSwyMzIuNjIgMzMwLjA2LDIzMi41OSAzMjkuOTksMjMyLjU3IDMyOS43OSwyMzIuNTEgMzI5LjY4LDIzMi40OCAzMjkuNDcsMjMyLjQgMzI5LjM3LDIzMi4zNiAzMjkuMTcsMjMyLjI4IDMyOS4wNiwyMzIuMjMgMzI4Ljg2LDIzMi4xMyAzMjguNzcsMjMyLjA4IDMyOC42NywyMzIuMDMgMzI4LjYxLDIzMS45OSAzMjguNTIsMjMxLjkzIDMyOC40NCwyMzEuODggMzI4LjM2LDIzMS44MiAzMjguMjcsMjMxLjc2IDMyOC4yLDIzMS43IDMyOC4xMiwyMzEuNjMgMzI4LjA1LDIzMS41NyAzMjcuOTQsMjMxLjQ2IDMyNy44OCwyMzEuNCAzMjcuNzcsMjMxLjI3IDMyNy43MiwyMzEuMjEgMzI3LjYsMjMxLjA0IDMyNy41NiwyMzAuOTcgMzI3LjQ0LDIzMC43NSAzMjcuNDEsMjMwLjY4IDMyNy4zMSwyMzAuNDIgMzI3LjMsMjMwLjM1IDMyNy4yMywyMzAgMzI3LjIzLDIyOS45MyAzMjcuMjQsMjI5LjU3IDMyNy4yNSwyMjkuNSAzMjcuMzMsMjI5LjEzIDMyNy4zNSwyMjkuMDYgMzI3LjUsMjI4Ljc0IDMyNy41NCwyMjguNjcgMzI3LjcyLDIyOC40MSAzMjcuNzcsMjI4LjM1IDMyNy44OSwyMjguMjEgMzI3LjkyLDIyOC4xOCAzMjguMDEsMjI4LjEgMzI4LjA1LDIyOC4wNyAzMjguMTUsMjI3Ljk4IDMyOC4yLDIyNy45NSAzMjguMjcsMjI3LjkgMzI4LjMxLDIyNy44NiAzMjguMzgsMjI3LjgyIDMyOC40MywyMjcuNzkgMzI4LjUxLDIyNy43NCAzMjguNTcsMjI3LjcxIDMyOC42MiwyMjcuNjggMzI4LjY4LDIyNy42NSAzMjguNzYsMjI3LjYxIDMyOC44MiwyMjcuNTggMzI4Ljg3LDIyNy41NiAzMjguOTQsMjI3LjUzIDMyOC45OSwyMjcuNTEgMzI5LjA3LDIyNy40OCAzMjkuMTEsMjI3LjQ2IDMyOS4yLDIyNy40MyAzMjkuMjQsMjI3LjQxIDMyOS4zMywyMjcuMzkgMzI5LjM3LDIyNy4zNyAzMjkuNDYsMjI3LjM0IDMyOS41MSwyMjcuMzMgMzI5LjYxLDIyNy4zIDMyOS42MywyMjcuMyAzMjkuNzMsMjI3LjI3IDMyOS43OCwyMjcuMjUgMzI5Ljg5LDIyNy4yMyAzMjkuOTIsMjI3LjIyIDMzMC4wNCwyMjcuMTkgMzMwLjA2LDIyNy4xOSAzMzAuMTksMjI3LjE2IDMzMC4yLDIyNy4xNiAzMzAuMzIsMjI3LjEzIDMzMC40NCwyMjcuMTEgMzMwLjQzLDIyNy4xMSAzMzAuNjUsMjI3LjA2IDMzMC42MiwyMjcuMDcgMzMwLjgzLDIyNy4wMiAzMzAuODIsMjI3LjAyIDMzMS4wMSwyMjYuOTggMzMwLjk4LDIyNi45OCAzMzEuMTYsMjI2Ljk0IDMzMS4xMywyMjYuOTUgMzMxLjI5LDIyNi45IDMzMS4yNSwyMjYuOTEgMzMxLjQxLDIyNi44NiAzMzEuMzYsMjI2Ljg4IDMzMS41LDIyNi44MyAzMzEuNDUsMjI2Ljg1IDMzMS41OCwyMjYuOCAzMzEuNTMsMjI2LjgyIDMzMS42NSwyMjYuNzcgMzMxLjU5LDIyNi44IDMzMS43LDIyNi43NSAzMzEuNjIsMjI2Ljc5IDMzMS43MywyMjYuNzMgMzMxLjY3LDIyNi43NyAzMzEuNzYsMjI2LjcxIDMzMS42NywyMjYuNzcgMzMxLjc2LDIyNi43MSAzMzEuNywyMjYuNzUgMzMxLjc4LDIyNi42OSAzMzEuNywyMjYuNzUgMzMxLjc4LDIyNi42OSAzMzEuNjgsMjI2Ljc3IDMzMS44MiwyMjYuNjUgMzMxLjcyLDIyNi43NSAzMzEuODYsMjI2LjYxIDMzMS43OCwyMjYuNjkgMzMxLjkxLDIyNi41NCAzMzEuODgsMjI2LjU3IDMzMS45NSwyMjYuNDkgMzMxLjk0LDIyNi41IDMzMi4wMSwyMjYuNDEgMzMyLjAxLDIyNi40MiAzMzIuMDgsMjI2LjMzIDMzMi4wNywyMjYuMzMgMzMyLjE1LDIyNi4yNCAzMzIuMTYsMjI2LjIzIDMzMi4yNCwyMjYuMTMgMzMyLjI1LDIyNi4xMSAzMzIuMzQsMjI2IDMzMi4zNSwyMjUuOTkgMzMyLjQ1LDIyNS44NyAzMzIuNDYsMjI1Ljg2IDMzMi41NiwyMjUuNzMgMzMyLjU3LDIyNS43MiAzMzIuNjksMjI1LjU5IDMzMi43MSwyMjUuNTYgMzMyLjgzLDIyNS40MyAzMzIuMzgsMjI2LjkgMzMyLjM2LDIyNi43OCAzMzIuMzYsMjI2LjczIDMzMi4zNCwyMjYuNjEgMzMyLjM0LDIyNi41NCAzMzIuMzIsMjI2LjMyIDMzMi4zMiwyMjYuMjEgMzMyLjMxLDIyNS45OSAzMzIuMzIsMjI1Ljg3IDMzMi4zMywyMjUuNjYgMzM1LjM5LDIyNy4xNiAzMzUuMywyMjcuMjMgMzM0LjIzLDIyNy42OCAzMzQuMDEsMjI3LjcgMzMzLjkzLDIyNy43IDMzMy43MiwyMjcuNzEgMzMzLjYzLDIyNy43MSAzMzMuNDIsMjI3LjcgMzMzLjM0LDIyNy43IDMzMy4xMywyMjcuNjkgMzMzLjA1LDIyNy42OCAzMzIuODQsMjI3LjY2IDMzMi43NiwyMjcuNjUgMzMyLjU2LDIyNy42MiAzMzIuNDcsMjI3LjYxIDMzMi4yNywyMjcuNTcgMzMyLjE5LDIyNy41NSAzMzEuOTksMjI3LjUgMzMxLjkxLDIyNy40OCAzMzEuNzIsMjI3LjQyIDMzMS42NCwyMjcuNCAzMzEuNDQsMjI3LjM0IDMzMS4zNywyMjcuMzEgMzMxLjE4LDIyNy4yNCAzMzEuMTEsMjI3LjIxIDMzMC45MiwyMjcuMTMgMzMwLjg1LDIyNy4wOSAzMzAuNjYsMjI3IDMzMC42LDIyNi45NyAzMzAuNDIsMjI2Ljg4IDMzMC4zNSwyMjYuODQgMzMwLjE3LDIyNi43MyAzMzAuMTEsMjI2LjcgMzI5LjkzLDIyNi41OCAzMzIuMzMsMjI2LjI0IDMzMi4zMiwyMjYuMjUgMzMyLjI0LDIyNi4zNCAzMzIuMjIsMjI2LjM2IDMzMi4yNiwyMjYuMzIgMzMyLjIzLDIyNi4zNCAzMzIuMiwyMjYuMzggMzMyLjE1LDIyNi40MyAzMzIuMSwyMjYuNDggMzMyLjA0LDIyNi41NSAzMzEuOTcsMjI2LjYzIDMzMS44OSwyMjYuNzEgMzMxLjg5LDIyNi43MSAzMzEuODEsMjI2LjggMzMxLjgsMjI2LjgxIDMzMS43MSwyMjYuOTEgMzMxLjcxLDIyNi45IDMzMS42MSwyMjcuMDEgMzMxLjUsMjI3LjEzIDMzMS41LDIyNy4xMyAzMzEuMzksMjI3LjI2IDMzMS4yNywyMjcuMzkgMzMxLjE0LDIyNy41MyAzMzEsMjI3LjY4IDMzMS4wMSwyMjcuNjcgMzMwLjg3LDIyNy44MiAzMzAuNzMsMjI3Ljk4IDMzMC41OCwyMjguMTUgMzMwLjU5LDIyOC4xNCAzMzAuNDQsMjI4LjMxIDMzMC4yOCwyMjguNDkgMzMwLjEyLDIyOC42NyAzMzAuMTIsMjI4LjY3IDMyOS45NiwyMjguODUgMzI5Ljk2LDIyOC44NSAzMjkuNjMsMjI5LjIzIDMyOS42MywyMjkuMjMgMzI5LjI5LDIyOS42MyAzMjkuMywyMjkuNjIgMzI4Ljk0LDIzMC4wNCAzMjguOTUsMjMwLjAzIDMyOC42LDIzMC40NSAzMjguNTYsMjMwLjQ5IDMyOC4zMiwyMzAuNzcgMzI4LjIyLDIzMC44NyAzMjcuOTgsMjMxLjEgMzI3Ljg2LDIzMS4yIDMyNy42MiwyMzEuNCAzMjcuNDgsMjMxLjUxIDMyNy4yNCwyMzEuNjcgMzI3LjA3LDIzMS43NyAzMjYuODQsMjMxLjg5IDMyNi42NCwyMzEuOTggMzI2LjQsMjMyLjA4IDMyNi4xOCwyMzIuMTUgMzI1Ljk0LDIzMi4yMSAzMjUuNywyMzIuMjUgMzI1LjQ3LDIzMi4yNyAzMjUuMjIsMjMyLjI4IDMyNC45OSwyMzIuMjggMzI0Ljc1LDIzMi4yNiAzMjQuNTIsMjMyLjIyIDMyNC4yOSwyMzIuMTcgMzI0LjA2LDIzMi4xIDMyMy44NywyMzIuMDMgMzIzLjY0LDIzMS45NCAzMjMuNDcsMjMxLjg2IDMyMy4yNCwyMzEuNzQgMzIzLjEsMjMxLjY1IDMyMi44OCwyMzEuNSAzMjIuNzYsMjMxLjQxIDMyMi41NCwyMzEuMjQgMzIyLjQ0LDIzMS4xNiAzMjIuMjMsMjMwLjk2IDMyMi4xNSwyMzAuODggMzIxLjkzLDIzMC42NiAzMjEuODYsMjMwLjU5IDMyMS42NSwyMzAuMzUgMzIxLjYsMjMwLjI4IDMyMS4zOSwyMzAuMDEgMzIxLjM0LDIyOS45NSAzMjEuMTQsMjI5LjY3IDMyMS4xLDIyOS42MSAzMjAuODksMjI5LjMxIDMyMC44NiwyMjkuMjYgMzIwLjY2LDIyOC45NCAzMjAuNjMsMjI4Ljg5IDMyMC40MywyMjguNTUgMzIwLjQxLDIyOC41MSAzMjAuMjIsMjI4LjE1IDMyMC4yLDIyOC4xMSAzMjAuMDEsMjI3Ljc0IDMxOS45OSwyMjcuNzEgMzE5LjgsMjI3LjMyIDMxOS43OCwyMjcuMjkgMzE5LjYsMjI2LjkgMzE5LjU4LDIyNi44NiAzMTkuNCwyMjYuNDUgMzE5LjM5LDIyNi40MSAzMTkuMDMsMjI1LjU2IDMxOS4wMSwyMjUuNTIgMzE4LjY4LDIyNC42MyAzMTguNjYsMjI0LjU5IDMxOC4zNCwyMjMuNjcgMzE4LjMyLDIyMy42NCAzMTguMDIsMjIyLjcgMzE4LjAxLDIyMi42NyAzMTcuNzEsMjIxLjczIDMxNy43LDIyMS43IDMxNy40MywyMjAuNzUgMzE3LjQyLDIyMC43MiAzMTcuMTYsMjE5Ljc4IDMxNy4xNSwyMTkuNzUgMzE2LjkyLDIxOC44MiAzMTYuOTEsMjE4LjggMzE2LjY5LDIxNy45IDMxNi42OCwyMTcuODcgMzE2LjQ4LDIxNi45OSAzMTYuNDcsMjE2Ljk3IDMxNi4yOSwyMTYuMTMgMzE2LjI5LDIxNi4xMSAzMTYuMiwyMTUuNzEgMzE2LjIsMjE1LjcgMzE2LjEyLDIxNS4zMSAzMTYuMTIsMjE1LjMgMzE2LjA1LDIxNC45MiAzMTYuMDUsMjE0LjkxIDMxNS45OCwyMTQuNTUgMzE1Ljk3LDIxNC41MyAzMTUuOTEsMjE0LjE4IDMxNS45MSwyMTQuMTcgMzE1Ljg1LDIxMy44NCAzMTUuODUsMjEzLjgzIDMxNS44LDIxMy41MSAzMTUuOCwyMTMuNSAzMTUuNzUsMjEzLjIgMzE1Ljc1LDIxMy4xOSAzMTUuNzEsMjEyLjkyIDMxNS43LDIxMi44OSAzMTUuNjcsMjEyLjY0IDMxNS42NywyMTIuNjIgMzE1LjY0LDIxMi4zOSAzMTUuNjMsMjEyLjM1IDMxNS42MSwyMTIuMTQgMzE1LjYxLDIxMi4xMiAzMTUuNTksMjExLjkzIDMxNS41OSwyMTEuODggMzE1LjU4LDIxMS43MiAzMTUuNTgsMjExLjY2IDMxNS41NSwyMTAuOTggMzE1LjU1LDIxMC45MiAzMTUuNTUsMjEwLjI3IDMxNS41NSwyMTAuMiAzMTUuNTgsMjA5LjU4IDMxNS41OCwyMDkuNSAzMTUuNjMsMjA4LjkxIDMxNS42NCwyMDguODQgMzE1LjcsMjA4LjI4IDMxNS43MiwyMDguMiAzMTUuOCwyMDcuNjYgMzE1LjgyLDIwNy41OCAzMTUuOTMsMjA3LjA3IDMxNS45NSwyMDYuOTggMzE2LjA4LDIwNi41IDMxNi4xMSwyMDYuNDEgMzE2LjI1LDIwNS45NSAzMTYuMjksMjA1Ljg2IDMxNi40NSwyMDUuNDMgMzE2LjQ5LDIwNS4zNCAzMTYuNjcsMjA0LjkzIDMxNi43MiwyMDQuODQgMzE2LjkxLDIwNC40NiAzMTYuOTcsMjA0LjM2IDMxNy4xOCwyMDQuMDEgMzE3LjI0LDIwMy45MSAzMTcuNDcsMjAzLjU4IDMxNy41NCwyMDMuNDkgMzE3Ljc4LDIwMy4xOCAzMTcuODUsMjAzLjA5IDMxOC4xMSwyMDIuODEgMzE4LjE5LDIwMi43MiAzMTguNDYsMjAyLjQ1IDMxOC41NCwyMDIuMzggMzE4LjgyLDIwMi4xMyAzMTguOSwyMDIuMDYgMzE5LjE5LDIwMS44NCAzMTkuMjgsMjAxLjc3IDMxOS41OCwyMDEuNTcgMzE5LjY4LDIwMS41MSAzMTkuOTksMjAxLjMyIDMyMC4wNywyMDEuMjcgMzIwLjM5LDIwMS4xIDMyMC40OCwyMDEuMDYgMzIwLjgxLDIwMC45IDMyMC44OSwyMDAuODcgMzIxLjIyLDIwMC43MyAzMjEuMzEsMjAwLjcgMzIxLjY1LDIwMC41OCAzMjEuNzMsMjAwLjU1IDMyMi4wOCwyMDAuNDUgMzIyLjE1LDIwMC40MyAzMjIuNSwyMDAuMzQgMzIyLjU4LDIwMC4zMiAzMjIuOTMsMjAwLjI1IDMyMywyMDAuMjMgMzIzLjM2LDIwMC4xNyAzMjMuNDMsMjAwLjE2IDMyMy43OSwyMDAuMTEgMzIzLjg1LDIwMC4xMSAzMjQuMjEsMjAwLjA3IDMyNC4yNywyMDAuMDYgMzI0LjY0LDIwMC4wNCAzMjQuNzIsMjAwLjAzIDMyNS40NSwyMDAuMDIgMzI1LjU1LDIwMC4wMiAzMjYuMjgsMjAwLjA0IDMyNi4zNiwyMDAuMDQgMzI3LjA4LDIwMC4wOSAzMjcuMTYsMjAwLjEgMzI3Ljg2LDIwMC4xOCAzMjcuOTMsMjAwLjE5IDMyOC42MSwyMDAuMjkgMzI4LjY3LDIwMC4zIDMyOS4zMiwyMDAuNDMgMzI5LjM4LDIwMC40NCAzMjkuOTksMjAwLjU3IDMzMC4wNCwyMDAuNTggMzMwLjYyLDIwMC43MiAzMzAuNjUsMjAwLjczIDMzMC45MywyMDAuOCAzMzAuOTUsMjAwLjgxIDMzMS4yMSwyMDAuODggMzMxLjIzLDIwMC44OSAzMzEuNDcsMjAwLjk2IDMzMS41LDIwMC45NyAzMzEuNzMsMjAxLjA0IDMzMS43NSwyMDEuMDQgMzMxLjk3LDIwMS4xMSAzMzEuOTgsMjAxLjExIDMzMi4xOSwyMDEuMTggMzMyLjIsMjAxLjE5IDMzMi4zOSwyMDEuMjUgMzMyLjQxLDIwMS4yNSAzMzIuNTgsMjAxLjMxIDMzMi41OSwyMDEuMzIgMzMyLjc1LDIwMS4zNyAzMzIuNzYsMjAxLjM4IDMzMi45LDIwMS40MiAzMzIuOTIsMjAxLjQzIDMzMy4wMywyMDEuNDggMzMzLjEzLDIwMS41MSAzMzMuMTUsMjAxLjUyIDMzMy4yMywyMDEuNTUgMzMzLjI1LDIwMS41NiAzMzMuMzEsMjAxLjU4IDMzMy4zMywyMDEuNTkgMzMzLjM2LDIwMS42IDMzMy4zLDIwMS41OCAzMzMuMzIsMjAxLjU5IDMzMS41OCwyMDEuODIgMzMxLjgzLDIwMS42NCAzMzEuODksMjAxLjYgMzMyLjE1LDIwMS40MiAzMzIuMjEsMjAxLjM4IDMzMi40OCwyMDEuMjIgMzMyLjU1LDIwMS4xOCAzMzIuODMsMjAxLjAzIDMzMi45LDIwMC45OSAzMzMuMTksMjAwLjg1IDMzMy4yNywyMDAuODEgMzMzLjU3LDIwMC42OCAzMzMuNjQsMjAwLjY1IDMzMy45NSwyMDAuNTMgMzM0LjAyLDIwMC41IDMzNC4zNCwyMDAuMzkgMzM0LjQyLDIwMC4zNyAzMzQuNzUsMjAwLjI3IDMzNC44MywyMDAuMjUgMzM1LjE4LDIwMC4xNyAzMzUuMjUsMjAwLjE1IDMzNS42MSwyMDAuMDggMzM1LjY4LDIwMC4wNyAzMzYuMDUsMjAwLjAxIDMzNi4xMiwyMDAgMzM2LjUsMTk5Ljk1IDMzNi41OCwxOTkuOTUgMzM2Ljk3LDE5OS45MiAzMzcuMDQsMTk5LjkxIDMzNy40NCwxOTkuODkgMzM3LjUxLDE5OS44OSAzMzcuOTMsMTk5Ljg5IDMzNy45OCwxOTkuODkgMzM4LjQ0LDE5OS45IDMzOC40OCwxOTkuOTEgMzM4LjkyLDE5OS45MyAzMzguOTcsMTk5LjkzIDMzOS40LDE5OS45NiAzMzkuNDQsMTk5Ljk2IDMzOS44NiwyMDAgMzM5LjksMjAwLjAxIDM0MC4zMSwyMDAuMDYgMzQwLjM2LDIwMC4wNiAzNDAuNzUsMjAwLjEyIDM0MC44LDIwMC4xMyAzNDEuMTgsMjAwLjE5IDM0MS4yMywyMDAuMiAzNDEuNiwyMDAuMjcgMzQxLjAyLDIwMC4yNSAzNDEuMDcsMjAwLjI1IDM0MC41NSwyMDAuMzkgMzQwLjU2LDIwMC4zOCAzNDAuNjMsMjAwLjM2IDM0MC42NSwyMDAuMzUgMzQwLjcsMjAwLjMzIDM0MC43NCwyMDAuMzEgMzQwLjc1LDIwMC4zMSAzNDAuODEsMjAwLjI5IDM0MC44NSwyMDAuMjcgMzQwLjk5LDIwMC4yMyAzNDEuMDIsMjAwLjIyIDM0MS4yLDIwMC4xNiAzNDEuMjMsMjAwLjE2IDM0MS40NSwyMDAuMDkgMzQxLjQ5LDIwMC4wOCAzNDEuNzUsMjAwLjAxIDM0MS43OSwyMDAgMzQyLjA5LDE5OS45MyAzNDIuMTMsMTk5LjkyIDM0Mi40NiwxOTkuODQgMzQyLjUsMTk5Ljg0IDM0Mi44NywxOTkuNzYgMzQyLjkxLDE5OS43NSAzNDMuMzEsMTk5LjY4IDM0My4zNiwxOTkuNjcgMzQzLjc4LDE5OS42MSAzNDMuODMsMTk5LjYgMzQ0LjI5LDE5OS41NCAzNDQuMzQsMTk5LjU0IDM0NC44MiwxOTkuNDkgMzQ0Ljg3LDE5OS40OCAzNDUuMzcsMTk5LjQ1IDM0NS40MywxOTkuNDUgMzQ1Ljk1LDE5OS40MyAzNDYuMDEsMTk5LjQzIDM0Ni41NSwxOTkuNDIgMzQ2LjYyLDE5OS40MiAzNDcuMTcsMTk5LjQ0IDM0Ny4yNCwxOTkuNDQgMzQ3LjgsMTk5LjQ4IDM0Ny44OCwxOTkuNDkgMzQ4LjQ1LDE5OS41NSAzNDguNTMsMTk5LjU2IDM0OS4xMSwxOTkuNjUgMzQ5LjIsMTk5LjY3IDM0OS43OSwxOTkuNzkgMzQ5Ljg3LDE5OS44MSAzNTAuNDcsMTk5Ljk2IDM1MC41NiwxOTkuOTggMzUxLjE1LDIwMC4xNyAzNTEuMjUsMjAwLjIgMzUxLjg0LDIwMC40MiAzNTEuOTQsMjAwLjQ2IDM1Mi41MiwyMDAuNzIgMzUyLjYyLDIwMC43NyAzNTMuMjEsMjAxLjA2IDM1My4zMSwyMDEuMTIgMzUzLjg4LDIwMS40NiAzNTMuOTYsMjAxLjUxIDM1NC4yNCwyMDEuNyAzNTQuMjksMjAxLjczIDM1NC41NywyMDEuOTMgMzU0LjYyLDIwMS45NyAzNTQuODksMjAyLjE4IDM1NC45NCwyMDIuMjIgMzU1LjIxLDIwMi40NCAzNTUuMjYsMjAyLjQ4IDM1NS41MywyMDIuNzIgMzU1LjU4LDIwMi43NiAzNTUuODQsMjAzLjAxIDM1NS44OSwyMDMuMDUgMzU2LjE1LDIwMy4zMiAzNTYuMTksMjAzLjM2IDM1Ni40NSwyMDMuNjMgMzU2LjQ5LDIwMy42OCAzNTYuNzQsMjAzLjk3IDM1Ni43OCwyMDQuMDIgMzU3LjAzLDIwNC4zMiAzNTcuMTMsMjA0LjQ2IDM1Ny4yOSwyMDQuNzEgMzU3LjQxLDIwNC45MiAzNTcuNTYsMjA1LjIxIDM1Ny42NCwyMDUuNCAzNTcuNzYsMjA1LjczIDM1Ny44MSwyMDUuOSAzNTcuOSwyMDYuMjcgMzU3LjkzLDIwNi40MSAzNTgsMjA2LjgxIDM1OC4wMiwyMDYuOTMgMzU4LjA3LDIwNy4zNyAzNTguMDgsMjA3LjQ4IDM1OC4xLDIwNy45NSAzNTguMTEsMjA4LjA0IDM1OC4xMSwyMDguNTQgMzU4LjExLDIwOC42MiAzNTguMDksMjA5LjE2IDM1OC4wOSwyMDkuMjMgMzU4LjA1LDIwOS43OSAzNTguMDQsMjA5Ljg2IDM1Ny45OCwyMTAuNDUgMzU3Ljk3LDIxMC41MSAzNTcuODgsMjExLjEyIDM1Ny44OCwyMTEuMTcgMzU3Ljc3LDIxMS44MSAzNTcuNzYsMjExLjg2IDM1Ny42MywyMTIuNTIgMzU3LjYyLDIxMi41NiAzNTcuNDcsMjEzLjI0IDM1Ny40NiwyMTMuMjggMzU3LjI5LDIxMy45OCAzNTcuMjgsMjE0LjAyIDM1Ny4wOSwyMTQuNzMgMzU3LjA4LDIxNC43NyAzNTYuODYsMjE1LjUgMzU2Ljg1LDIxNS41MyAzNTYuNjIsMjE2LjI3IDM1Ni42MSwyMTYuMzEgMzU2LjM1LDIxNy4wNiAzNTYuMzQsMjE3LjA5IDM1Ni4wNywyMTcuODUgMzU2LjA1LDIxNy44OCAzNTUuNzYsMjE4LjY1IDM1NS43NSwyMTguNjggMzU1LjQzLDIxOS40NSAzNTUuNDIsMjE5LjQ5IDM1NS4wOCwyMjAuMjYgMzU1LjA3LDIyMC4yOSAzNTQuNzEsMjIxLjA3IDM1NC43LDIyMS4xIDM1NC4zMywyMjEuODggMzU0LjMxLDIyMS45MSAzNTMuOTIsMjIyLjY4IDM1My45LDIyMi43MiAzNTMuNDksMjIzLjQ5IDM1My40NywyMjMuNTIgMzUzLjA0LDIyNC4yOSAzNTMuMDIsMjI0LjMyIDM1Mi41NywyMjUuMDggMzUyLjU1LDIyNS4xMiAzNTIuMDksMjI1Ljg3IDM1Mi4wNiwyMjUuOSAzNTEuNTgsMjI2LjY0IDM1MS44NiwyMjUuMzIgMzUxLjg2LDIyNS4zMyAzNTEuOCwyMjUuMDcgMzUxLjgsMjI1LjA5IDM1MS43OSwyMjUuMDYgMzUxLjgsMjI1LjA4IDM1MS43NiwyMjQuOTggMzUxLjc3LDIyNS4wMSAzNTEuNzQsMjI0LjkyIDM1MS43NSwyMjQuOTYgMzUxLjcsMjI0Ljg1IDM1MS43MiwyMjQuODkgMzUxLjY2LDIyNC43OCAzNTEuNjksMjI0LjgzIDM1MS42MiwyMjQuNzMgMzUxLjY2LDIyNC43OSAzNTEuNTksMjI0LjcgMzUxLjYzLDIyNC43NSAzNTEuNTUsMjI0LjY1IDM1MS42LDIyNC43MSAzNTEuNTEsMjI0LjYyIDM1MS41OCwyMjQuNjggMzUxLjQ4LDIyNC42IDM1MS41NiwyMjQuNjYgMzUxLjQ2LDIyNC41OSAzNTEuNTUsMjI0LjY1IDM1MS40NSwyMjQuNTggMzUxLjU1LDIyNC42NCAzNTEuNDQsMjI0LjU4IDM1MS41NSwyMjQuNjQgMzUxLjQ2LDIyNC41OSAzNTEuNTgsMjI0LjY1IDM1MS40OCwyMjQuNjEgMzUxLjYyLDIyNC42NiAzNTEuNTIsMjI0LjYzIDM1MS42NywyMjQuNjggMzUxLjU5LDIyNC42NSAzNTEuNzYsMjI0LjcgMzUxLjY3LDIyNC42OCAzNTEuODYsMjI0LjcxIDM1MS43OSwyMjQuNyAzNTEuODksMjI0LjcyIDM1MS44NSwyMjQuNzEgMzUxLjk1LDIyNC43MyAzNTEuOTIsMjI0LjcyIDM1Mi4wMywyMjQuNzQgMzUyLDIyNC43MyAzNTIuMTEsMjI0Ljc1IDM1Mi4wNywyMjQuNzQgMzUyLjE5LDIyNC43NSAzNTIuMTUsMjI0Ljc1IDM1Mi4yNywyMjQuNzYgMzUyLjI0LDIyNC43NSAzNTIuMzcsMjI0Ljc2IDM1Mi4zMywyMjQuNzYgMzUyLjQ3LDIyNC43NiAzNTIuNDQsMjI0Ljc2IDM1Mi41OCwyMjQuNzYgMzUyLjU0LDIyNC43NiAzNTIuNjgsMjI0Ljc2IDM1Mi42NiwyMjQuNzYgMzUyLjgxLDIyNC43NiAzNTIuNzgsMjI0Ljc2IDM1Mi45NCwyMjQuNzUgMzUyLjkxLDIyNC43NiAzNTMuMDcsMjI0Ljc1IDM1My4wNCwyMjQuNzUgMzUzLjIxLDIyNC43NCAzNTMuMTgsMjI0Ljc0IDM1My4zNSwyMjQuNzIgMzUzLjMzLDIyNC43MyAzNTMuNTEsMjI0LjcxIDM1My40OCwyMjQuNzEgMzUzLjY3LDIyNC42OSAzNTMuNjQsMjI0LjY5IDM1My44MywyMjQuNjcgMzUzLjgxLDIyNC42NyAzNTQuMDEsMjI0LjY0IDM1My45OCwyMjQuNjUgMzU0LjE5LDIyNC42MiAzNTQuMTcsMjI0LjYyIDM1NC4zOCwyMjQuNTkgMzU0LjM2LDIyNC41OSAzNTQuNTgsMjI0LjU1IDM1NC41NSwyMjQuNTYgMzU0Ljc3LDIyNC41MSAzNTQuNzYsMjI0LjUyIDM1NC45OSwyMjQuNDcgMzU1LDIyNC40NyAzNTUuMSwyMjQuNDUgMzU1LjEyLDIyNC40NCAzNTUuMjEsMjI0LjQzIDM1NS4yNywyMjQuNDIgMzU1LjM2LDIyNC40IDM1NS40MSwyMjQuNCAzNTUuNSwyMjQuMzkgMzU1LjU1LDIyNC4zOCAzNTUuNjMsMjI0LjM4IDM1NS42OSwyMjQuMzcgMzU1Ljc2LDIyNC4zNyAzNTUuODIsMjI0LjM2IDM1NS44OCwyMjQuMzYgMzU1Ljk2LDIyNC4zNiAzNTYuMDMsMjI0LjM2IDM1Ni4xMiwyMjQuMzYgMzU2LjE4LDIyNC4zNyAzNTYuMjYsMjI0LjM4IDM1Ni4zMiwyMjQuMzggMzU2LjQxLDIyNC4zOSAzNTYuNDcsMjI0LjQgMzU2LjYsMjI0LjQzIDM1Ni42NSwyMjQuNDQgMzU2Ljg1LDIyNC41IDM1Ni45MywyMjQuNTIgMzU3LjI0LDIyNC42NyAzNTcuMzEsMjI0LjcxIDM1Ny42NiwyMjQuOTggMzU3LjcxLDIyNS4wMiAzNTguMDMsMjI1LjQzIDM1OC4wNiwyMjUuNDkgMzU4LjI0LDIyNS45NCAzNTguMjYsMjI2IDM1OC4zMiwyMjYuNDcgMzU4LjMyLDIyNi41NCAzNTguMjksMjI2Ljg4IDM1OC4yNywyMjYuOTUgMzU4LjIsMjI3LjIyIDM1OC4xNywyMjcuMzEgMzU4LjA5LDIyNy41MSAzNTguMDUsMjI3LjU5IDM1Ny45NiwyMjcuNzUgMzU3LjkxLDIyNy44NCAzNTcuODQsMjI3Ljk1IDM1Ny43NywyMjguMDQgMzU3LjY5LDIyOC4xNCAzNTcuNjEsMjI4LjI0IDM1Ny41NSwyMjguMzEgMzU3LjQ2LDIyOC40MSAzNTcuNCwyMjguNDcgMzU3LjMsMjI4LjU4IDM1Ny4yNCwyMjguNjMgMzU3LjEzLDIyOC43NCAzNTcuMDgsMjI4Ljc4IDM1Ni45NiwyMjguODkgMzU2LjksMjI4LjkzIDM1Ni43NywyMjkuMDQgMzU2LjczLDIyOS4wOCAzNTYuNTgsMjI5LjE5IDM1Ni41NSwyMjkuMjIgMzU2LjM5LDIyOS4zMyAzNTYuMzUsMjI5LjM2IDM1Ni4xOCwyMjkuNDcgMzU2LjE0LDIyOS41IDM1NS45NywyMjkuNjEgMzU1LjkzLDIyOS42MyAzNTUuNzUsMjI5Ljc0IDM1NS43MiwyMjkuNzYgMzU1LjUzLDIyOS44NyAzNTUuNDksMjI5LjkgMzU1LjI5LDIzMCAzNTUuMjUsMjMwLjAyIDM1NS4wNSwyMzAuMTIgMzU1LjAxLDIzMC4xNSAzNTQuOCwyMzAuMjQgMzU0Ljc0LDIzMC4yNyAzNTQuNTQsMjMwLjM2IDM1NC40NywyMzAuMzkgMzU0LjI1LDIzMC40NyAzNTQuMTgsMjMwLjUgMzUzLjk1LDIzMC41OCAzNTMuODksMjMwLjYgMzUzLjY0LDIzMC42NyAzNTMuNTksMjMwLjY4IDM1My4zMywyMzAuNzUgMzUzLjI4LDIzMC43NiAzNTMuMDIsMjMwLjgyIDM1Mi45OCwyMzAuODMgMzUyLjcxLDIzMC44OSAzNTIuNjYsMjMwLjkgMzUyLjM4LDIzMC45NSAzNTIuMzQsMjMwLjk1IDM1Mi4wNywyMzEgMzUyLjAyLDIzMSAzNTEuNzQsMjMxLjA0IDM1MS43LDIzMS4wNCAzNTEuNDIsMjMxLjA3IDM1MS4zOCwyMzEuMDggMzUxLjEsMjMxLjEgMzUxLjA1LDIzMS4xIDM1MC43OCwyMzEuMTIgMzUwLjczLDIzMS4xMiAzNTAuNDYsMjMxLjEzIDM1MC40MSwyMzEuMTMgMzUwLjE1LDIzMS4xMyAzNTAuMDksMjMxLjEzIDM0OS44MywyMzEuMTIgMzQ5LjcxLDIzMS4xMSAzNDkuMjcsMjMxLjA3IDM0OS4wNywyMzEuMDQgMzQ4LjkyLDIzMS4wMSAzNDguOTMsMjMxLjAxIDM0OC43OSwyMzAuOTggMzQ4LjgzLDIzMC45OSAzNDguNjksMjMwLjk3IDM0OC43MywyMzAuOTcgMzQ4LjYsMjMwLjk1IDM0OC42NywyMzAuOTYgMzQ4LjU1LDIzMC45NSAzNDguNjEsMjMwLjk1IDM0OC41LDIzMC45NCAzNDguNTksMjMwLjk1IDM0OC40OSwyMzAuOTUgMzQ4LjYsMjMwLjk1IDM0OC41MSwyMzAuOTUgMzQ4LjY0LDIzMC45NCAzNDguNTUsMjMwLjk1IDM0OC43MiwyMzAuOTMgMzQ4LjY0LDIzMC45NCAzNDguODEsMjMwLjkgMzQ4Ljc0LDIzMC45MiAzNDguOTUsMjMwLjg0IDM0OC44OCwyMzAuODcgMzQ5LjA2LDIzMC43OCAzNDksMjMwLjgyIDM0OS4yMiwyMzAuNjcgMzQ5LjE2LDIzMC43MiAzNDkuMzQsMjMwLjU2IDM0OS4yOSwyMzAuNjEgMzQ5LjQzLDIzMC40NCAzNDkuMzksMjMwLjUgMzQ5LjUsMjMwLjM1IDM0OS40NiwyMzAuNDEgMzQ5LjU1LDIzMC4yNiAzNDkuNTEsMjMwLjMzIDM0OS41NiwyMzAuMjEgMzQ5LjUzLDIzMC4yOSAzNDkuNTcsMjMwLjE4IDM0OS41NCwyMzAuMjcgMzQ5LjU3LDIzMC4xOCAzNDkuNTQsMjMwLjI4IDM0OS41NiwyMzAuMiAzNDkuNTMsMjMwLjMxIDM0OS41NSwyMzAuMjUgMzQ5LjUyLDIzMC4zNyAzNDkuNTMsMjMwLjMyIDM0OS41MSwyMzAuNDUgMzQ5LjUyLDIzMC40MiAzNDkuNDksMjMwLjU2IDM0OS41LDIzMC41NCAzNDkuNDgsMjMwLjY4IDM0OS40OCwyMzAuNjUgMzQ5LjQ2LDIzMC44MSAzNDkuNDYsMjMwLjggMzQ5LjQ0LDIzMC45NyAzNDkuNDIsMjMxLjE1IDM0OS40MiwyMzEuMTMgMzQ5LjQsMjMxLjMyIDM0OS40LDIzMS4zMyAzNDkuMzcsMjMxLjU0IDM0OS4zNSwyMzEuNzUgMzQ1LjY3LDIzMS4zMiAzNDUuNywyMzEuMSAiIGNsaXAtcGF0aD0idXJsKCNTVkdJRF82XykiIGlkPSJwb2x5Z29uNjA0MTQiLz4mI3hhOwkJPHBhdGggc3R5bGU9ImZpbGw6IzMzNjc5MSIgZD0ibSAzNTUuMzUsMjI2LjI5IGMgLTQuOTksMS4wMiAtNS4zMiwtMC42NiAtNS4zMiwtMC42NiA1LjI2LC03LjgxIDcuNDYsLTE3LjcxIDUuNTYsLTIwLjE0IC01LjE4LC02LjYxIC0xNC4xNCwtMy40OSAtMTQuMjksLTMuNCBsIC0wLjA1LDAuMDEgYyAtMC45OSwtMC4yIC0yLjA5LC0wLjMzIC0zLjMyLC0wLjM0IC0yLjI2LC0wLjA0IC0zLjk2LDAuNTkgLTUuMjYsMS41NyAwLDAgLTE1Ljk4LC02LjU4IC0xNS4yNCw4LjI4IDAuMTYsMy4xNiA0LjUzLDIzLjkzIDkuNzUsMTcuNjYgMS45MSwtMi4yOSAzLjc1LC00LjI0IDMuNzUsLTQuMjQgMC45MiwwLjYxIDIuMDEsMC45MiAzLjE2LDAuODEgbCAwLjA5LC0wLjA4IGMgLTAuMDIsMC4yOSAtMC4wMSwwLjU2IDAuMDQsMC45IC0xLjM0LDEuNSAtMC45NCwxLjc2IC0zLjY0LDIuMzIgLTIuNzIsMC41NiAtMS4xMiwxLjU2IC0wLjA4LDEuODIgMS4yNywwLjMxIDQuMTksMC43NyA2LjE3LC0yIGwgLTAuMDgsMC4zMSBjIDAuNTMsMC40MiAwLjksMi43NSAwLjg0LDQuODUgLTAuMDYsMi4xMSAtMC4xLDMuNTUgMC4zMSw0LjY4IDAuNDIsMS4xMyAwLjgzLDMuNjcgNC4zNiwyLjkxIDIuOTUsLTAuNjQgNC40OSwtMi4yNyA0LjcsLTUuMDEgMC4xNSwtMS45NCAwLjQ5LC0xLjY2IDAuNTEsLTMuMzkgbCAwLjI3LC0wLjgzIGMgMC4zMSwtMi42MyAwLjA1LC0zLjQ4IDEuODcsLTMuMDkgbCAwLjQ0LDAuMDQgYyAxLjM0LDAuMDYgMy4wOSwtMC4yMSA0LjEyLC0wLjcgMi4yMSwtMS4wMiAzLjUzLC0yLjc0IDEuMzQsLTIuMjggeiIgY2xpcC1wYXRoPSJ1cmwoI1NWR0lEXzZfKSIgaWQ9InBhdGg2MDQxNiIgaW5rc2NhcGU6Y29ubmVjdG9yLWN1cnZhdHVyZT0iMCIvPiYjeGE7CQkmI3hhOwkJCTxwYXRoIHN0eWxlPSJmaWxsOm5vbmU7c3Ryb2tlOiNmZmZmZmY7c3Ryb2tlLXdpZHRoOjEuMjM1OTk5OTQ7c3Ryb2tlLWxpbmVjYXA6cm91bmQ7c3Ryb2tlLWxpbmVqb2luOnJvdW5kO3N0cm9rZS1taXRlcmxpbWl0OjEwIiBkPSJtIDMzNi44OCwyMjcuOCBjIC0wLjE0LDQuOSAwLjA0LDkuODQgMC41MSwxMS4wNCAwLjQ4LDEuMiAxLjUxLDMuNTQgNS4wNCwyLjc4IDIuOTUsLTAuNjMgNC4wMiwtMS44NSA0LjQ5LC00LjU2IDAuMzQsLTEuOTkgMSwtNy41MSAxLjA5LC04LjY1IiBjbGlwLXBhdGg9InVybCgjU1ZHSURfNl8pIiBpZD0icGF0aDYwNDE4IiBpbmtzY2FwZTpjb25uZWN0b3ItY3VydmF0dXJlPSIwIi8+JiN4YTsJCSYjeGE7CQkJPHBhdGggc3R5bGU9ImZpbGw6bm9uZTtzdHJva2U6I2ZmZmZmZjtzdHJva2Utd2lkdGg6MS4yMzU5OTk5NDtzdHJva2UtbGluZWNhcDpyb3VuZDtzdHJva2UtbGluZWpvaW46cm91bmQ7c3Ryb2tlLW1pdGVybGltaXQ6MTAiIGQ9Im0gMzMyLjY0LDIwMy4yMSBjIDAsMCAtMTYsLTYuNTQgLTE1LjI1LDguMzMgMC4xNiwzLjE3IDQuNTMsMjMuOTQgOS43NSwxNy42NiAxLjkxLC0yLjI5IDMuNjQsLTQuMDkgMy42NCwtNC4wOSIgY2xpcC1wYXRoPSJ1cmwoI1NWR0lEXzZfKSIgaWQ9InBhdGg2MDQyMCIgaW5rc2NhcGU6Y29ubmVjdG9yLWN1cnZhdHVyZT0iMCIvPiYjeGE7CQkmI3hhOwkJCTxwYXRoIHN0eWxlPSJmaWxsOm5vbmU7c3Ryb2tlOiNmZmZmZmY7c3Ryb2tlLXdpZHRoOjEuMjM1OTk5OTQ7c3Ryb2tlLWxpbmVjYXA6cm91bmQ7c3Ryb2tlLWxpbmVqb2luOnJvdW5kO3N0cm9rZS1taXRlcmxpbWl0OjEwIiBkPSJtIDM0MS4yOCwyMDIuMDIgYyAtMC41NSwwLjE3IDguOSwtMy40NiAxNC4yNywzLjQgMS45LDIuNDIgLTAuMywxMi4zNCAtNS41NiwyMC4xNCIgY2xpcC1wYXRoPSJ1cmwoI1NWR0lEXzZfKSIgaWQ9InBhdGg2MDQyMiIgaW5rc2NhcGU6Y29ubmVjdG9yLWN1cnZhdHVyZT0iMCIvPiYjeGE7CQkmI3hhOwkJCTxwYXRoIHN0eWxlPSJmaWxsOm5vbmU7c3Ryb2tlOiNmZmZmZmY7c3Ryb2tlLXdpZHRoOjEuMjM1OTk5OTQ7c3Ryb2tlLWxpbmVjYXA6cm91bmQ7c3Ryb2tlLWxpbmVqb2luOmJldmVsO3N0cm9rZS1taXRlcmxpbWl0OjEwIiBkPSJtIDM0OS45OSwyMjUuNTYgYyAwLDAgMC4zNCwxLjY5IDUuMzIsMC42NiAyLjE4LC0wLjQ1IDAuODcsMS4yNyAtMS4zNSwyLjI5IC0xLjgxLDAuODQgLTUuODksMS4wNiAtNS45NSwtMC4xMSAtMC4xNywtMyAyLjE1LC0yLjA4IDEuOTgsLTIuODQgLTAuMTUsLTAuNjggLTEuMTksLTEuMzQgLTEuODcsLTMgLTAuNiwtMS40NSAtOC4yLC0xMi41NyAyLjExLC0xMC45MiAwLjM3LC0wLjA4IC0yLjY5LC05LjggLTEyLjM0LC05Ljk2IC05LjY0LC0wLjE2IC05LjMzLDExLjg2IC05LjMzLDExLjg2IiBjbGlwLXBhdGg9InVybCgjU1ZHSURfNl8pIiBpZD0icGF0aDYwNDI0IiBpbmtzY2FwZTpjb25uZWN0b3ItY3VydmF0dXJlPSIwIi8+JiN4YTsJCSYjeGE7CQkJPHBhdGggc3R5bGU9ImZpbGw6bm9uZTtzdHJva2U6I2ZmZmZmZjtzdHJva2Utd2lkdGg6MS4yMzU5OTk5NDtzdHJva2UtbGluZWNhcDpyb3VuZDtzdHJva2UtbGluZWpvaW46cm91bmQ7c3Ryb2tlLW1pdGVybGltaXQ6MTAiIGQ9Im0gMzM0LjE4LDIyNi41OSBjIC0xLjM0LDEuNSAtMC45NCwxLjc2IC0zLjY0LDIuMzIgLTIuNzIsMC41NiAtMS4xMiwxLjU2IC0wLjA4LDEuODIgMS4yNywwLjMxIDQuMTksMC43NiA2LjE3LC0yLjAxIDAuNiwtMC44NCAtMC4wMSwtMi4xOSAtMC44MywtMi41MyAtMC40LC0wLjE2IC0wLjkzLC0wLjM3IC0xLjYyLDAuNCB6IiBjbGlwLXBhdGg9InVybCgjU1ZHSURfNl8pIiBpZD0icGF0aDYwNDI2IiBpbmtzY2FwZTpjb25uZWN0b3ItY3VydmF0dXJlPSIwIi8+JiN4YTsJCSYjeGE7CQkJPHBhdGggc3R5bGU9ImZpbGw6bm9uZTtzdHJva2U6I2ZmZmZmZjtzdHJva2Utd2lkdGg6MS4yMzU5OTk5NDtzdHJva2UtbGluZWNhcDpyb3VuZDtzdHJva2UtbGluZWpvaW46cm91bmQ7c3Ryb2tlLW1pdGVybGltaXQ6MTAiIGQ9Im0gMzM0LjA5LDIyNi41NiBjIC0wLjE0LC0wLjg5IDAuMjksLTEuOTQgMC43NCwtMy4xNyAwLjY5LC0xLjg0IDIuMjcsLTMuNjggMSwtOS41NCAtMC45NCwtNC4zNiAtNy4yNywtMC45MSAtNy4yNywtMC4zMSAtMC4wMSwwLjU5IDAuMjksMi45OSAtMC4xMSw1Ljc5IC0wLjUxLDMuNjYgMi4zMyw2Ljc1IDUuNTksNi40NCIgY2xpcC1wYXRoPSJ1cmwoI1NWR0lEXzZfKSIgaWQ9InBhdGg2MDQyOCIgaW5rc2NhcGU6Y29ubmVjdG9yLWN1cnZhdHVyZT0iMCIvPiYjeGE7CQk8cGF0aCBzdHlsZT0iZmlsbDojZmZmZmZmIiBkPSJtIDMzMi41OCwyMTMuNDYgYyAtMC4wMywwLjIgMC4zNywwLjc0IDAuODksMC44MSAwLjUyLDAuMDggMC45NiwtMC4zNCAwLjk5LC0wLjU1IDAuMDIsLTAuMiAtMC4zNywtMC40MyAtMC44OSwtMC41IC0wLjUxLC0wLjA3IC0wLjk2LDAuMDMgLTAuOTksMC4yNCB6IiBjbGlwLXBhdGg9InVybCgjU1ZHSURfNl8pIiBpZD0icGF0aDYwNDMwIiBpbmtzY2FwZTpjb25uZWN0b3ItY3VydmF0dXJlPSIwIi8+JiN4YTsJCTxwYXRoIHN0eWxlPSJmaWxsOiNmZmZmZmYiIGQ9Im0gMzMyLjQsMjEzLjM2IDAuMDIsLTAuMDQgMC4wMiwtMC4wMyAwLjAzLC0wLjA0IDAuMDMsLTAuMDMgMC4wMiwtMC4wMiAwLjA0LC0wLjAzIDAuMDIsLTAuMDEgMC4wNCwtMC4wMyAwLjAyLC0wLjAxIDAuMDUsLTAuMDIgMC4wMiwtMC4wMSAwLjA2LC0wLjAyIGggMC4wMSBsIDAuMDYsLTAuMDIgaCAwLjAxIGwgMC4wNywtMC4wMSBoIDAuMDEgbCAwLjA4LC0wLjAxIGggMC4wMSBsIDAuMDgsLTAuMDEgaCAwLjAxIDAuMDggMC4wMSAwLjE4IDAuMDIgbCAwLjE5LDAuMDIgaCAwLjAyIGwgMC4xOSwwLjAzIGggMC4wMSBsIDAuMDksMC4wMiBoIDAuMDEgbCAwLjA4LDAuMDIgSCAzMzQgbCAwLjA4LDAuMDMgaCAwLjAxIGwgMC4wOCwwLjAzIGggMC4wMSBsIDAuMDcsMC4wMyBoIDAuMDEgbCAwLjA2LDAuMDMgMC4wMSwwLjAxIDAuMDYsMC4wMyAwLjAxLDAuMDEgMC4wNSwwLjA0IDAuMDIsMC4wMSAwLjA0LDAuMDQgMC4wMiwwLjAxIDAuMDQsMC4wNCAwLjAyLDAuMDIgMC4wMywwLjA0IDAuMDIsMC4wMyAwLjAyLDAuMDQgMC4wMSwwLjA0IDAuMDEsMC4wNCAwLjAxLDAuMDUgdiAwLjA0IGwgLTAuMDEsMC4wNiAtMC4wMSwwLjA0IC0wLjAxLDAuMDMgLTAuMDIsMC4wNCAtMC4wMSwwLjAyIC0wLjAzLDAuMDUgLTAuMDEsMC4wMiAtMC4wNCwwLjA1IC0wLjAxLDAuMDEgLTAuMDQsMC4wNSAtMC4wMSwwLjAxIC0wLjA1LDAuMDUgLTAuMDEsMC4wMSAtMC4wNiwwLjA1IC0wLjAxLDAuMDEgLTAuMDYsMC4wNSAtMC4wMSwwLjAxIC0wLjA3LDAuMDQgLTAuMDEsMC4wMSAtMC4wOCwwLjA0IC0wLjAyLDAuMDEgLTAuMDgsMC4wMyAtMC4wMSwwLjAxIC0wLjA4LDAuMDMgaCAtMC4wMiBsIC0wLjA5LDAuMDIgaCAtMC4wMiBsIC0wLjA5LDAuMDEgaCAtMC4wMiAtMC4wOSAtMC4wMiBsIC0wLjEsLTAuMDEgaCAtMC4wMiBsIC0wLjEsLTAuMDIgaCAtMC4wMiBsIC0wLjA5LC0wLjAzIC0wLjAyLC0wLjAxIC0wLjA5LC0wLjA0IC0wLjAyLC0wLjAxIC0wLjA5LC0wLjA0IC0wLjAxLC0wLjAxIC0wLjA4LC0wLjA1IC0wLjAxLC0wLjAxIC0wLjA4LC0wLjA2IC0wLjAxLC0wLjAxIC0wLjA3LC0wLjA2IC0wLjAxLC0wLjAxIC0wLjA2LC0wLjA2IC0wLjAxLC0wLjAxIC0wLjA2LC0wLjA2IC0wLjAxLC0wLjAxIC0wLjA1LC0wLjA2IC0wLjAxLC0wLjAxIC0wLjA0LC0wLjA2IC0wLjAxLC0wLjAxIC0wLjAzLC0wLjA2IC0wLjAxLC0wLjAxIC0wLjAzLC0wLjA2IC0wLjAxLC0wLjAyIC0wLjAyLC0wLjA1IC0wLjAxLC0wLjAzIC0wLjAxLC0wLjA1IHYgLTAuMDQgLTAuMDQgbCAwLjAxLC0wLjA1IHogbSAwLjM4LDAuMTUgMC4wMSwtMC4wNSB2IDAuMDQgLTAuMDQgbCAwLjAxLDAuMDUgLTAuMDEsLTAuMDMgMC4wMiwwLjA1IC0wLjAxLC0wLjAyIDAuMDMsMC4wNiAtMC4wMSwtMC4wMSAwLjAzLDAuMDYgLTAuMDEsLTAuMDEgMC4wNCwwLjA2IC0wLjAxLC0wLjAxIDAuMDUsMC4wNiAtMC4wMSwtMC4wMSAwLjA2LDAuMDYgLTAuMDEsLTAuMDEgMC4wNiwwLjA2IC0wLjAxLC0wLjAxIDAuMDcsMC4wNiAtMC4wMSwtMC4wMSAwLjA4LDAuMDYgLTAuMDEsLTAuMDEgMC4wOCwwLjA1IC0wLjAxLC0wLjAxIDAuMDgsMC4wNCAtMC4wMiwtMC4wMSAwLjA5LDAuMDQgLTAuMDIsLTAuMDEgMC4wOSwwLjAzIGggLTAuMDIgbCAwLjEsMC4wMiBoIC0wLjAyIGwgMC4xLDAuMDEgaCAtMC4wMiAwLjA5IC0wLjAyIGwgMC4wOSwtMC4wMSBoIC0wLjAyIGwgMC4wOSwtMC4wMiBoIC0wLjAyIGwgMC4wOCwtMC4wMyBoIC0wLjAxIGwgMC4wOCwtMC4wMyAtMC4wMiwwLjAxIDAuMDgsLTAuMDQgLTAuMDEsMC4wMSAwLjA3LC0wLjA0IC0wLjAxLDAuMDEgMC4wNiwtMC4wNSAtMC4wMSwwLjAxIDAuMDYsLTAuMDUgLTAuMDEsMC4wMSAwLjA1LC0wLjA1IC0wLjAxLDAuMDEgMC4wNCwtMC4wNSAtMC4wMSwwLjAxIDAuMDQsLTAuMDUgLTAuMDEsMC4wMiAwLjAzLC0wLjA1IC0wLjAxLDAuMDIgMC4wMiwtMC4wNCAtMC4wMSwwLjAzIDAuMDEsLTAuMDQgLTAuMDEsMC4wNiB2IC0wLjA0IGwgMC4wMSwwLjA1IC0wLjAxLC0wLjA0IDAuMDEsMC4wNCAtMC4wMiwtMC4wNCAwLjAyLDAuMDMgLTAuMDMsLTAuMDQgMC4wMiwwLjAyIC0wLjA0LC0wLjA0IDAuMDIsMC4wMSAtMC4wNCwtMC4wNCAwLjAyLDAuMDEgLTAuMDUsLTAuMDQgMC4wMSwwLjAxIC0wLjA2LC0wLjAzIDAuMDEsMC4wMSAtMC4wNiwtMC4wMyAwLjAxLDAuMDEgLTAuMDcsLTAuMDMgaCAwLjAxIGwgLTAuMDgsLTAuMDMgaCAwLjAxIGwgLTAuMDgsLTAuMDMgaCAwLjAxIGwgLTAuMDksLTAuMDIgaCAwLjAxIGwgLTAuMDksLTAuMDIgaCAwLjAxIGwgLTAuMTksLTAuMDMgaCAwLjAyIGwgLTAuMTksLTAuMDIgaCAwLjAyIC0wLjE4IDAuMDEgLTAuMDggMC4wMSBsIC0wLjA4LDAuMDEgaCAwLjAxIGwgLTAuMDgsMC4wMSBoIDAuMDEgbCAtMC4wNywwLjAxIGggMC4wMSBsIC0wLjA3LDAuMDIgaCAwLjAxIGwgLTAuMDYsMC4wMiAwLjAyLC0wLjAxIC0wLjA1LDAuMDIgMC4wMiwtMC4wMSAtMC4wNCwwLjAzIDAuMDIsLTAuMDEgLTAuMDQsMC4wMyAwLjAyLC0wLjAyIC0wLjAzLDAuMDMgMC4wMywtMC4wNCB2IDAuMDMgbCAwLjAxLC0wLjA0IHoiIGNsaXAtcGF0aD0idXJsKCNTVkdJRF82XykiIGlkPSJwYXRoNjA0MzIiIGlua3NjYXBlOmNvbm5lY3Rvci1jdXJ2YXR1cmU9IjAiLz4mI3hhOwkJPHBhdGggc3R5bGU9ImZpbGw6I2ZmZmZmZiIgZD0ibSAzNDguMzcsMjEzLjA0IGMgMC4wMywwLjIgLTAuMzcsMC43NCAtMC44OSwwLjgxIC0wLjUyLDAuMDcgLTAuOTYsLTAuMzUgLTAuOTksLTAuNTUgLTAuMDMsLTAuMiAwLjM3LC0wLjQzIDAuODksLTAuNSAwLjUyLC0wLjA2IDAuOTcsMC4wNCAwLjk5LDAuMjQgeiIgY2xpcC1wYXRoPSJ1cmwoI1NWR0lEXzZfKSIgaWQ9InBhdGg2MDQzNCIgaW5rc2NhcGU6Y29ubmVjdG9yLWN1cnZhdHVyZT0iMCIvPiYjeGE7CQk8cGF0aCBzdHlsZT0iZmlsbDojZmZmZmZmIiBkPSJtIDM0OC4yNiwyMTMuMDMgMC4wMSwwLjAyIC0wLjAyLC0wLjAzIDAuMDEsMC4wMSAtMC4wMiwtMC4wMiAwLjAxLDAuMDEgLTAuMDQsLTAuMDMgMC4wMSwwLjAxIC0wLjA0LC0wLjAzIGggMC4wMSBsIC0wLjA1LC0wLjAyIGggMC4wMSBsIC0wLjA2LC0wLjAyIGggMC4wMSBsIC0wLjA2LC0wLjAyIGggMC4wMSBsIC0wLjA3LC0wLjAxIGggMC4wMSBsIC0wLjA4LC0wLjAxIHYgMCBsIC0wLjA4LC0wLjAxIHYgMCBoIC0wLjA4IDAuMDEgLTAuMTggMC4wMSBsIC0wLjE5LDAuMDIgaCAwLjAxIGwgLTAuMTksMC4wMyBoIDAuMDEgbCAtMC4wOSwwLjAyIHYgMCBsIC0wLjA4LDAuMDIgdiAwIGwgLTAuMDgsMC4wMyB2IDAgbCAtMC4wOCwwLjAzIGggMC4wMSBsIC0wLjA3LDAuMDMgaCAwLjAxIGwgLTAuMDYsMC4wMyBoIDAuMDEgbCAtMC4wNiwwLjAzIGggMC4wMSBsIC0wLjA1LDAuMDQgMC4wMSwtMC4wMSAtMC4wNCwwLjA0IDAuMDEsLTAuMDEgLTAuMDMsMC4wNCAwLjAxLC0wLjAxIC0wLjAzLDAuMDQgMC4wMSwtMC4wMSAtMC4wMiwwLjA0IDAuMDEsLTAuMDIgLTAuMDEsMC4wNCB2IC0wLjAzIDAuMDQgLTAuMDIgbCAwLjAxLDAuMDQgLTAuMDEsLTAuMDIgMC4wMiwwLjA0IC0wLjAxLC0wLjAxIDAuMDMsMC4wNSB2IC0wLjAxIGwgMC4wNCwwLjA1IC0wLjAxLC0wLjAxIDAuMDQsMC4wNSB2IC0wLjAxIGwgMC4wNSwwLjA1IHYgMCBsIDAuMDYsMC4wNSBoIC0wLjAxIGwgMC4wNiwwLjA1IGggLTAuMDEgbCAwLjA3LDAuMDQgaCAtMC4wMSBsIDAuMDcsMC4wNCBIIDM0NyBsIDAuMDgsMC4wMyBoIC0wLjAxIGwgMC4wOCwwLjAzIGggLTAuMDEgbCAwLjA5LDAuMDIgaCAtMC4wMSBsIDAuMDksMC4wMSBoIC0wLjAxIDAuMDkgLTAuMDEgbCAwLjEsLTAuMDEgaCAtMC4wMSBsIDAuMSwtMC4wMiBoIC0wLjAxIGwgMC4wOSwtMC4wMyBoIC0wLjAxIGwgMC4wOSwtMC4wNCBoIC0wLjAxIGwgMC4wOSwtMC4wNCBoIC0wLjAxIGwgMC4wOCwtMC4wNSBoIC0wLjAxIGwgMC4wOCwtMC4wNiBoIC0wLjAxIGwgMC4wNywtMC4wNiB2IDAuMDEgbCAwLjA2LC0wLjA2IHYgMCBsIDAuMDYsLTAuMDYgdiAwLjAxIGwgMC4wNSwtMC4wNyB2IDAuMDEgbCAwLjA0LC0wLjA2IHYgMCBsIDAuMDQsLTAuMDYgdiAwLjAxIGwgMC4wMywtMC4wNiB2IDAuMDEgbCAwLjAyLC0wLjA1IHYgMC4wMSBsIDAuMDEsLTAuMDUgdiAwLjAyIC0wLjA0IDAuMDIgeiBtIDAuMjEsLTAuMDIgdiAwLjAyIDAuMDQgMC4wMiBsIC0wLjAxLDAuMDUgdiAwLjAxIGwgLTAuMDIsMC4wNSB2IDAuMDEgbCAtMC4wMywwLjA2IC0wLjAxLDAuMDEgLTAuMDQsMC4wNiB2IDAgbCAtMC4wNCwwLjA2IHYgMC4wMSBsIC0wLjA1LDAuMDYgdiAwLjAxIGwgLTAuMDYsMC4wNiB2IDAgbCAtMC4wNiwwLjA2IHYgMCBsIC0wLjA3LDAuMDYgaCAtMC4wMSBsIC0wLjA4LDAuMDYgdiAwIGwgLTAuMDgsMC4wNSBoIC0wLjAxIGwgLTAuMDgsMC4wNCBoIC0wLjAxIGwgLTAuMDksMC4wNCBoIC0wLjAxIGwgLTAuMDksMC4wMyBoIC0wLjAxIGwgLTAuMSwwLjAyIGggLTAuMDEgbCAtMC4xLDAuMDEgaCAtMC4wMSAtMC4wOSAtMC4wMSBsIC0wLjA5LC0wLjAxIGggLTAuMDEgbCAtMC4wOSwtMC4wMiBoIC0wLjAxIEwgMzQ3LDIxMy45IGggLTAuMDEgbCAtMC4wOCwtMC4wMyBoIC0wLjAxIGwgLTAuMDgsLTAuMDQgaCAtMC4wMSBsIC0wLjA3LC0wLjA0IGggLTAuMDEgbCAtMC4wNiwtMC4wNSBoIC0wLjAxIGwgLTAuMDYsLTAuMDUgdiAwIGwgLTAuMDUsLTAuMDUgdiAtMC4wMSBsIC0wLjA0LC0wLjA1IHYgLTAuMDEgbCAtMC4wNCwtMC4wNSB2IC0wLjAxIGwgLTAuMDMsLTAuMDUgLTAuMDEsLTAuMDEgLTAuMDIsLTAuMDQgLTAuMDEsLTAuMDIgLTAuMDEsLTAuMDQgdiAtMC4wMiAtMC4wNCAtMC4wMyBsIDAuMDEsLTAuMDQgMC4wMSwtMC4wMiAwLjAyLC0wLjA0IDAuMDEsLTAuMDEgMC4wMywtMC4wNCAwLjAxLC0wLjAxIDAuMDMsLTAuMDQgMC4wMSwtMC4wMSAwLjA0LC0wLjA0IDAuMDEsLTAuMDEgMC4wNSwtMC4wNCBoIDAuMDEgbCAwLjA2LC0wLjAzIGggMC4wMSBsIDAuMDYsLTAuMDMgdiAwIGwgMC4wNywtMC4wMyB2IDAgbCAwLjA4LC0wLjAzIHYgMCBsIDAuMDgsLTAuMDMgdiAwIGwgMC4wOSwtMC4wMiB2IDAgbCAwLjA5LC0wLjAyIGggMC4wMSBsIDAuMTksLTAuMDMgaCAwLjAxIGwgMC4xOSwtMC4wMiBoIDAuMDEgMC4xOCAwLjAxIDAuMDggdiAwIGwgMC4wOCwwLjAxIHYgMCBsIDAuMDgsMC4wMSBoIDAuMDEgbCAwLjA3LDAuMDEgaCAwLjAxIGwgMC4wNiwwLjAyIGggMC4wMSBsIDAuMDYsMC4wMiBoIDAuMDEgbCAwLjA1LDAuMDIgaCAwLjAxIGwgMC4wNCwwLjAzIDAuMDEsMC4wMSAwLjA0LDAuMDMgMC4wMSwwLjAxIDAuMDMsMC4wMyAwLjAxLDAuMDIgMC4wMiwwLjAzIDAuMDEsMC4wMiB6IiBjbGlwLXBhdGg9InVybCgjU1ZHSURfNl8pIiBpZD0icGF0aDYwNDM2IiBpbmtzY2FwZTpjb25uZWN0b3ItY3VydmF0dXJlPSIwIi8+JiN4YTsJCSYjeGE7CQkJPHBhdGggc3R5bGU9ImZpbGw6bm9uZTtzdHJva2U6I2ZmZmZmZjtzdHJva2Utd2lkdGg6MS4yMzU5OTk5NDtzdHJva2UtbGluZWNhcDpyb3VuZDtzdHJva2UtbGluZWpvaW46cm91bmQ7c3Ryb2tlLW1pdGVybGltaXQ6MTAiIGQ9Im0gMzUwLjIzLDIxMS42NCBjIDAuMDgsMS41OSAtMC4zNCwyLjY2IC0wLjQsNC4zNSAtMC4wOCwyLjQ1IDEuMTcsNS4yNiAtMC43MSw4LjA2IiBjbGlwLXBhdGg9InVybCgjU1ZHSURfNl8pIiBpZD0icGF0aDYwNDM4IiBpbmtzY2FwZTpjb25uZWN0b3ItY3VydmF0dXJlPSIwIi8+JiN4YTsJPC9nPiYjeGE7PC9nPiYjeGE7PC9zdmc+;" parent="1" vertex="1">
          <mxGeometry x="3550" y="1752.87" width="62.06" height="63.51" as="geometry" />
        </mxCell>
        <mxCell id="io7zwHNE9pA3boUVpFcz-92" value="&lt;div style=&quot;font-size: 17px;&quot;&gt;&lt;ol style=&quot;&quot;&gt;&lt;li style=&quot;&quot;&gt;&lt;font style=&quot;font-size: 17px;&quot;&gt;&lt;b&gt;크기:&amp;nbsp;&lt;/b&gt;&lt;/font&gt;&lt;b&gt;Standard B2s (2vCore, 4GiB 메모리, 1280 최대 IOPS)&lt;/b&gt;&lt;/li&gt;&lt;li style=&quot;&quot;&gt;&lt;b&gt;스토리지: 32GiB&lt;/b&gt;&lt;/li&gt;&lt;li style=&quot;&quot;&gt;&lt;b&gt;PostgreSQL 버전: 11.19&lt;/b&gt;&lt;/li&gt;&lt;li style=&quot;&quot;&gt;&lt;b style=&quot;&quot;&gt;&lt;span style=&quot;&quot;&gt;연결 방법:&amp;nbsp;&lt;/span&gt;&lt;font style=&quot;font-size: 17px;&quot;&gt;flexing-cps-rc-postgres.postgres.database.azure.com&lt;/font&gt;&lt;/b&gt;&lt;/li&gt;&lt;/ol&gt;&lt;/div&gt;" style="rounded=0;whiteSpace=wrap;html=1;align=left;fillColor=#D4E1F5;strokeColor=#7EA6E0;" parent="1" vertex="1">
          <mxGeometry x="3550" y="1838.31" width="570" height="138.07" as="geometry" />
        </mxCell>
        <mxCell id="io7zwHNE9pA3boUVpFcz-93" value="&lt;span style=&quot;border-color: var(--border-color); text-align: left; font-size: 17px;&quot;&gt;&lt;b&gt;&lt;font style=&quot;border-color: var(--border-color); font-size: 17px;&quot;&gt;port: 5432&lt;/font&gt;&lt;/b&gt;&lt;/span&gt;" style="html=1;rounded=0;strokeWidth=3;" parent="1" vertex="1">
          <mxGeometry x="3530" y="2057.9300000000003" width="160" height="40" as="geometry" />
        </mxCell>
        <mxCell id="io7zwHNE9pA3boUVpFcz-94" value="" style="endArrow=none;html=1;rounded=0;align=center;verticalAlign=top;endFill=0;labelBackgroundColor=none;endSize=2;strokeWidth=3;exitX=0.5;exitY=0;exitDx=0;exitDy=0;entryX=0.841;entryY=1.016;entryDx=0;entryDy=0;entryPerimeter=0;" parent="1" source="io7zwHNE9pA3boUVpFcz-93" edge="1">
          <mxGeometry relative="1" as="geometry">
            <mxPoint x="3609.6000000000004" y="2006.38208" as="targetPoint" />
            <mxPoint x="3610" y="2097.9300000000003" as="sourcePoint" />
          </mxGeometry>
        </mxCell>
        <mxCell id="io7zwHNE9pA3boUVpFcz-95" value="" style="shape=image;verticalLabelPosition=bottom;labelBackgroundColor=default;verticalAlign=top;aspect=fixed;imageAspect=0;image=data:image/webp,UklGRrghAABXRUJQVlA4WAoAAAAQAAAA8gAACQEAQUxQSCsUAAABHAVt2zApf9hnh0FETABd/sIOMfaGbbdpOfr/jb0LcdKodnfQtq3YTtu2bdu23R2zjaraKTMuJ2XGTtVe94u91pxrjzFqPXwRERPgd9s/Re3//3vay9399a7crXr9F2+X0t+VW/nu/d26+7tyl5k1ZIMHDQESYkQggSy6u7ciMPf7zOyROiImgP5H/8bDg82gC1Ua53x3SHA562/nIJXClYh+c1AwOeMPYAHpfA+A6FcHBY8z/gCAMUqlbAOA6NeHBIuz/kDsqgSl6IcYwPnhqMAQGpYK98dJ6xFuAGadHAjCE7Lh3U+thEYv4M/hoc4u6ZIlMEwlvd80AQovTurMet6+CsbXK3aaGVBz386d1X4vrYV5R4pi4QYLYPMHR3RCobOmdsD2b9L8QysAqRckdy69b1wMH+9UbbwfQPPLh3QaodM+2QRfD1Ktxw5fAGTesAuTUK++x5wxfNLFV11z/U03XX/1FRdNGHbaUft049L/4RL4XEm6p/sF7Jh1Qc84dD1kxHXPfvFLcVM7fN5Wlz/v4yeuGNg/MQ573hqB/x8p94x/ALbMuWE/uz5n3PT2b6scsG0vnfvKNSd1twodenfEQTwvUm5kXGKXvjFpD49dRjwyeyVkOqVT7xvY0y18yFVf1SHefZXbJW6xzQunfv71L5WQHl0++4svZuZvBMOGkHJUwaHznUPaTw8iT6n3VBA5V72Lg8hR6p0SRLqrt0cAaSH1wx3Bo0g/agwev3YCy4LH951AQfD4vBOovT6+7gQGr4/Z+r25fH3k6/dVeH1uSlDvR14hOE69f3yNPKndN6Wvkfpeur3vCK/SaQmafVLglfp9F72+dYRX68I9tPruCK/YmqN1+tkUr9oNIxR689eh9bpZDDzPLzavM2lzVisEvp8vd2c60HGFOm//HtgvPbe7guKq5zrDDEmasngB1aeGk7/nAu5Q5q0/BXNLjsB67VQzYVkoLsHalWdMuF+Vt/4ArJEcQOOluLdt6EfQ2AhiFtyryJu/Dc6FeITmtXtl00kI3VfujgPX6/ErYIzlFAZu5MKW2wAmjosc0Sla/AAYOx0YehvY4S5haOmChq0n6/BdK1oqYpibn5l33YC5kU9D474afHIM8n0FRl+2TSs/wujcFitkJ8t76z9A7l/D8E1glpPC8LIGK7wt71dArs5hvjDJg/nNFVYYK+2oDam8ho3CHB82ri2zat5dVmIRqLUl7BSm+LBzTZUNfpR1D6j9BWx1zXBga1OTDcZJ6rvZ5v4C1u6qJhRgb8k2m5VdBX0Dy7QGi+/u9PWXFiHDBg/KOR62AjrTyWgw2epAWdtmAJ3zYbsz3uhAls3GFDELbJoJX985WQNAepZ3Ltjg6HLBXyje4WV65ntTtvUtFnhBynGwjHvQ2PehWPNjpqc7Pd1UAyqNPS/jQpUJOTabdhXyk42E3nB+CBj7PPD0tKFXHAJQb/Kg0AIPydi7w+LxSRNakQJQH7GkfR056HZUAGfJUuFY1CeJeAKWAtp9JUQ+BwoakrE2+EoYDDiQZYFJEkJVFo+RPtSVAMGBEV8A/feREuZVjiqbORJOhaWAgQUCJIfk6xkAVw3rMgMKLNp3FvC6RXJpwnpDgGCIllwtmHhEQNRmyLPApQJWWFRAbwxo6FEQ0hBwuQwBw4SCm3tatMViGr++sHRpSa/KUCXN7mghU/pA6683tC0JIQ3pFm1hdpdZpFOaB4+hQ4JPW694jkFv4oI2oyGgLbLA0ezesWiDHF/AoW2XNHRICHlcmg+UaDWG6zWpfYvFteyyLSQtAMa0EIx5muSp0YaAoEkGOCQUWLzLLbTOokCrA6iSShzJHanOE5HKAEYpZf7EMaKlWUS47QrLM9IlABynhAJYHdIq4RiC7AOAS3HA2iDlW9RxO9FilZLkC0i17pynQsKYI0dKZy+WNTUXvA6pwcJJZjbGog9ycQ+8Z4X8Ary7JanEIUg97N16CrEAsySh3Qz7MrvC4og224crb7WncgT2Y5LD4ZC8fUB4vGfpD8Ad0KotjmJ2q4VLuobisuZ75Rk0eiTBUSDJQ8Ak9ILGGvxV2lKLs5ndbiFJNRX9giQ5SiRfRXuXVmAxhNmdFoKUs8nhqJOKBp3RsiwGMbsuTp5J0oQGKTTokpZjcRaz8/UQJpRJeYPGtHyLw5kNs5CknEkOSXAUSI5BPVqhxR7MDrTwST2Tyia4JGlQmVZhtiORWXLUrEZKZwZNSR6HIB0Z5NLWmZUQ9wqzGxICc4YgNzg80mNqjkPaDPN57KaaISLlzZG0KUeLhKY5fdIKi6fZPWBRJW1mxjRJ1+BcxyRpzDnICy3GsjvNQpAgTemBnGNBj/SwMUXoSmGXuMEspN1sDPFpkkeS4BoSTWlNZvnEf5bZckOCNOM0oZ3yhLTrlRkC5GqYPyvgMjOUaI8PRpRBHoN3GZEgjLiKaOkWJwnos93MoyFngge6YEJA25yYUAG91KwiJICmmUURDa6+/pKhx1WgYfCsT4C+EuZPk8ThZvAYNnVdk0vQj8EdX9NwtNOVA2PEzOknIlxh1mfAvKVncgpGnw2CAfmdnsKOYfNGs7kk8xYzhAx4Luk4HYPxIuabRgwozXW4CRjTYT5ESPdWsxYHEpGyBQtwutAoODDqsK1ccG5dbZYVEkL3mSHHATT7PJMArINEx3TBgZ1Y8lSHYE2H+RiS2q3ebLxiQeKNaPciAm8JWiULcOOsaO0ieBu3mP0TEkNXm0HwACi5DyrzXH4H5hz0Jj0e4NGpJyp3bgPc+TA/ieSGs82SNheAYU5I33eE30vBfjfVhM6OCcCiLJ0gn/OE1wd/Nsw/I8nHR5UweuYzMoR2wWdk4wazthRR9JIacjYJ6E9LFu1YBvPLSHbXphqkPWFiAJ6G9mTCfGZIGH3bWg2BLe0IRo7ubUmHeePuJP6nCdvQjt4Mhp5M7ciAeXQQyX/zL9SwK9jQeYCxnXsbIrB8kDR8b14NsWteZQGDxyPz0mH5fUiFNz47VANkYpgT42CjWj9uNpuNerVcCouFQqFYqjYHk50SpkeGRTmwzO5GSn71hID6pUnPARQ9cM+ECiBik/ojWK5IITW/fUrA3DOnMoZqkW11pYbOwJhY7mBZ05cU/fYHAlDvmjHxob694xKg7uTSjOoI1JoDSNWfvaUg9c/1TUUEqmSaRCTg3t3q65ZBrjuCVP2qxfiMAsRBU8+ZfAZ9fcnjgfXOmeqplEAvaXlblTf/G7jvkAB05RXXk1dJwZpj6aY8wLZYXHON3DMwFm4CxmnykwDwHDIA6MpwRlnVRDUGe4OjDI3rI6e9pdwWvBFYF7YDaN1Dj8/NXyAVLC8nZVc4QT6fc6UsjBJobTKE0L0bFh3XyxcLOUcG1SmYO9Lg+pMef46DwYrJ7ICU9LWZuaYInhO0+AoUe0P7LjcUF1m4tB7e9b11eLusgsi3DpIQTTLASe2A6Ys6/CiI3sK2p6magP3NhTDffqAG7zmn4KpsGaTSJLJv4TrYztbgZ8DoPtu1O1dxYftNCB9PlfeBCQduAquQUzhJLUvkHH7+Je+XwVwe2oTmoRLsrvfAPFRalysubOXMovqBMqweB2D/R9pV0Pgk19Ygvyft2TSVW2g8WVZomQ7gytnaMtq9cGHvk5hD63RZo6H7Rq7tgAQQTayZijk0OwNEzYsbcCumVsxmgIClYxlB/4uS9osyAFbuwAI4mER2NPIJTGztKugJcK35G+PiUw8WPjk9mHqJnIRaNsBMtg1DLzUurfgrmPu7nBHgPRDnRhnfkTcw2tlHzGfMAHRFL5PShjiD8fdJSV7LD8C5DJfZMst5d7CxQMo4SN1URH2bDVFJNFPYOkDI12JerioivLfrMiebMWy+R0ZCm6i9l3lRGFuQDHIivIP1C2WcBiUX8j//x29NUhPiy7rz7/9aWSMbozuLeFYLOHgZ37RCTwonCGut0/PL2/vpw/3t1flJqxYGjpD+Uec2xcsysvI8EYVqyD0Gu5nxuYQUqJk3TWTGSgmT9eiY5mcG+gp4Q4+FafXsuExAvhr3MH2SHR/z6xVVo2EclplRzG8g1PTN62dGR3d2d+shzCtkBs5g950eefNEdtzKrkSPE/O87PiYW3dHjXRtXj07srgdAzVHMH+aHZtCzM7Xo2AB7jIDezN7TA9hQyU7BjL7To/ABpkd1zHL0OPUBjc7XmRWo8Y6saGZHd/xSuhQow0bV0lmRHjtAzVdKzDIjGpep+jh2BFkxvYQqzF6tOyQmYGdWF2qxnZrRy07DmZ1uxpt2LlMMuNMVk+qIS1BLzPGsXpTjYApSQ4lamsFNzMuZfWRGmOFrUoqcXjrq7RKCn5m3MbqKy0mUIyFgpNTgCwc6jVThXFm3M9qqhaBCoQ8IEaJylnU2je+86B6kxUPs5qrhaN0HYs9OfhQLtxevXgcDhKlICseZ7VAi74SfDgA2utBqtZGNwJ2VeSg7GbF06zmKXEP9bM4zeHhCnkQC8gDDtpQH2fFc6zmKBEQ4GJTK+MY1EEM4QFVAi4y4ilWs5XwKHfP2IEBDrBFCKqbEY+ymqHEDQUSQAD6bArEA1I+Ix5g9a0OPZC3I6wvGOACDsjzOBvuZvWRDoKGEiRYm49TGqrZcAOr13VoMEAueHoSjDIbLmL1jArTlMPkUTaMZXWfCi4s72fC2ayuUiG0TWTC0azGazDf2tbJhD1YnaqBD+uHGRBNYHWABkf2iQxoJtbdFXiI7RtlwGJe1CrPQQa27ZvLrEBeMwsc+95iNktcD1n4tLbuTmYvi5OZAN+6icyukbaZ7WnYU9lTte5wZmdK87HXCxVSX5+XKBT8PehbtiOJ2a7S2vtWF/1DXlFfwTs0uI72OZYtIe61so5xUIwf9skB9KdDuW8+ktgfze36kd18WcGhh2Vj88KBbwB8yBfJUXx5ANKuR9k9K+oiOQSJAEApGSUmJIM0BODAw+HrnVUj2E0QJaE4nUPg/BEBVNdqOxXkMR9BYjtWgGfVLux2l/SwUoEEZA8tKKdCRUC9gb4DSKie2lRG/CsFCShvRwBQU4PjHHIcQhMAJgslFCz6TsDXcqaRGioAciAup3KffIwI8AHkoX5i0Q0CrpQjQPWwvKJAwHnhQoA6iZADNWfPwQL6iblfkhaXAuTFLC0ClTiakiCuHkmD1Jb6kACqkOKA3t3QIBH1zx8hQN/2QPds+ZYkvitkFDOwrq5x3sd0wcA6iSy5QsQoIUUY6gOAA0OFHdEUEV03iyjB2AbQSUxZ3liRTjJnStgOzTnZJU0YG1hxr5ALJQgY7DgwuGLDgUJ6buE3Xplk9mhtXg5JncqvjMwW5t0hZhw7F9kdd0yL7ikmsZHZ1TzDcLIx7FeS+yKzCjJdGjZZ0IG8JLI9rRhVlyiIFnBqbTMOkweTHifJoxg9jWH7sTaUUnPa9xYVLuFTBGtRKa8tX1SKWSDM+ZxkX8lGgNfJKbiOtrTbV3ASHhRNcQ4TllTNJA/m+UP7QHn6rA3ueHpACjA/9w2ZSdJv4dFcccGZXO8ZPQno311Ukj3+dsKFy1szThbXpZrD2QPYbza9BYDFcHlvADzIF9WtB/52ZMJMkn8Fg8kYGh1U10AIAROTETxg+IS+BpS3+qKHKZCwNG5rKhHPtmccrQVmj0pRyoUsbF+2rhrZiGtOR9w+IQ1HxmtNGeIrgT4gobyTCsszMyxDSzGcyvggKxqnzfuqQLPj01aOOG9HAPqxGqR7YFFaWCwGgAjind0enwdIxwHb4lFXjbhXAFRAfFrIPc9NCdscYH1b3JC/JR7Lk5WgR+JQ0gyGLgKQJQSAdTUek2q3IgKGS9fEYRBpmVTkW+5mcHzu3tLmU7hAHi7oeRlgWbPSty9Iz+M6fEoF0xUYJZIjic0lA9v1eT5V91GEnvBlTR4Eb8+wBAQsdlIdXwaTpokRH7LrILoI4HZhE/Bjow+vk65919pEn048sVgUyoAHq19NTplplddVGZpgUXIqESU91i5pENdg85rxRBS6uM2srR+p+4TJtie6kuuxiwVBnprkRBpr09ebZPQl192+MnFGkL7h2V7T9yfvLi85RhlF5RlNfMyOAEBtg4fzXBJ5n5HndS9p3KvA5fdTyHxgtUEGAJQ7Kq2KQdl2l6qzyTh8fonLO6TzniuBuaeTdZ9vPFLhWqxLbnougDa4pwFw3ulJtgnn5wHTE5Wig986lHw9b3VMzQ63VABlqZF2HbIAFG7CUo9tjcg9mfwMnTYuTJ3tXvMAZMA9AqQ5QJYK29sAoLg93wO/XhSmwBi6Ym1Dh0cO0hBbJKo6ElkGIA+uaVleaxIpSO41FZ5Lsx2XTAAb0nICKzbUAUgHUt1Q7IVTAwUt8dq6Ha7NQG0dgIINaYjNQK6H6e2BopfjZdi6vhoAbrfmdax32Vpe5sN7geIk+FiYDdfQvFK412z2YVqgmOxHOdyFeTkevs4JFJf64e2alxGP7wLFlHj45uX68b7Hi4HiKI/CNT445pX4MfFzt7GBIlznsu6ARh+EeVuiPozqWRizLDFQ0O0xO0bQKh9881Yu9cqOepxIu8wH6o+kYJkwC2gaSVTosdLgN+TCIGfxJ1f1p0e8Pn7FzelDREeO7klBM2nQsG5E9KNbzSVe/TffeOtrv/fX/qEW6Vqd+cmtZ/Wi2H3aPT7qmu8SoWB7jUv7mcO9fvGNg29+4Ss/9Ku/+zf/Vxk+7g4ls+olf/3w1r3nn5pCxl97vER7l8YMDzjdqwBEL6PjPO4/dEj9nQ9+/BOf/OSH3v3mGz733+J2LdHOH29rvZSC7iGLkTeQqFfU7WaSeYOL05+IqHsyBd9wH4qNuPwaFkKPxnxCQXtETGpvEjvwl5KnkgMXXbiy8s4k+lc7FKL/Tw0AVlA4IGYNAADwVACdASrzAAoBPm0wlUikIqIhIhD8uIANiWdu/EMTw4i/+O4ABAgPwr/TPUAPwA/UCAAPwAu1FP/duRz2q8CZP/y1/qPtr9+/+A9gHmAfof0nfMB+vnUN9AD9Vf//2AHoAfst6Wn7M/BX+4H7q+0N//9Yt8xf578fPCX/U+e/WX9eOYY85+K89fYjwAnV9oF3n7+jUvVMaAf5j/WX8Zvlg+mPQB9Q/s/8Bv8v/wPVv/cz2O/1a//5oyjyNmo0ItVEC71oCZtkSuTBW2VDalKYvz54OuQZTmXI/pRfASRVm4TzvyfFwTz27RPb/ZrZv9nHPY5n/Hp+aNclI1TV0BTqDulojeuxrjiggSkw+DRcVSun4UwNSj2+SwPz7Wqjrgy2Bszyq6MP7YI+clzYaXU5PV1FZVxQLuaq57LGLKqbY8jusORA/NJMYB3FmTxyE0nH7cSkEUP7mOaIK/lxVTa2jvQEMRI62Rb0TldzXYEq2vgnXTgBUglAyZiCZsGadq4GQNmoJpuypsBEv696gMWj6hkK5x+JFbMMchUbJB5HtIiFNr5RbqIMAZT5MX+CM5XSM/Pj9mnbbjxdbdZuJYwjAzpXoaQQ5MUZvUFT3qBJKxAWykUG78CyNJs0KrKSlIrLd6B8S/df9WEmXBifIISbYR9MhTdJLjAXElPKUaLGWfL4FX4JB9FOV8pn3X3H3v3uFCCoqZ4XVPzVo4n9juwtjJGGiKes+rTdJp1gVJC3tEV2/XjT/dQ17aVnwU/cJO4E4cbUD807Vjp8S/R8W7bUmsLyh3MAXjLKmPEmoP5v1RS00KsY+2HMbEKWpdX/R7zErBmbCIfYEUXWTVhEVn4QsGP0nCcyqrowgsuzuokN0I7GHaLs3AJavZh+XgMBk+2Zfa6qx7Zj9X3J8V3bcbAAAP4UBJFF1Xgm0jWmf5cdPTQMCh/dSACc4L2lrMkjvZF0AOHVeLEG/kksWnWRvCN5YI663gUH1oO5+3KIPmPB1wPi7GloSeVXOQ2J0mtvmYmQB+kNEg3svxdTU3ixXTPKW1NuUBXw9n+v5+JQYXSP3XA2qyKzhdwHztrNQ6PDszYrE+/znRXIPInRWHVWXn4HjT/ibt4TKoNn48iEgiK5+HiCNAVqf4Eb/HUaGJUYMpgZ64pTMQ31pFkC/VXUddFccROdxMd7MFTb1sv2aT4jEtcaEuBqUagnkn+sYjJnE1Hd+7MVRyyl5/EXP3RXwgmvFOmARiDGRnKIp8fi5rszBva9g3VkqEIe2xyaAaFhEyEJCWd0HerhSR0hNcpeBXwswRJzkxFMYcVyYHpxZi2c4f024P+5cfwu0cH6Q5wmF3Ci+ObhF+N70PJtUMQddF8ht03cNSkLCaUDqw0m38N3c17GL433rC9L+B2qIQCqusl9HoULAvznnibnBR80u5/9Xe+wHYMT/EB1HP67rq+iucf+IcTc5pqNJ8JujeI0zGYPKNBZUqWtLseSipiL9L+t9Y8n7taArbRzA8YsHzUT1bEdkOzpJJ9Ih5PQ4qzAza/TNs0U/WI1Tq2YXBzcGhzGKkpgfh7UCBEB791A5s44/CBH74YrNMFgl3TYPdzYC/Qkspf6w0+mvQrazIEtQyMS2uthmRi0moD2ZgXlPM3eII4F3vx3L53J2jj4jMn7tlUrvjantSECA/euufmfq+l7U81j47Zw2a/k8PUsI69Yra3+bpZsEn73ETWImlSzhXaMKcudYf8bE8mHfGjT9Y7dITnnx2JvRl4ptIBIT3yvmUumH9xyHuY6FFmj5KSOk5M7+dWAnmCin9vPx8S8ydC6xF2yu3gIc2InbwHqkZ4gqSXNBZyHhcuxTXf9PsGQweAv4j/JS0PROfS+R7KTwf959LU8QSvGPd2/yN8DLl5bJTBk3pgkiCJJQYwhx+uw+AHfV/GOszm/l+VCxbaS1ny73Fxq4X8qziBd1/UC39+v9ysNgfl1lwV/OLPT2xICBI2uRJfdhwuRxn8/F3UFzjzTqZjSLK7Jt9rt2ho/IqVnUXyN9hvLy9WRGLiBV66rBaXHeBKhF4s/FLetwvzmJhlii4ZybL1oo4ap1B7Gnc9JqbuhqBxQ3e7qMb0FIT/euEW3z5KfwPOlCXWR9Y89urhoF5U7XlOuixnAS8ZMZIByM3FdvO13+gAjBMkzWeeuEUOyNnBB2Da38DJiNfZ25t9Yyj3jKFOJ8ZPIzoqMUnMBez6OoKNLmAg3hmi3JF0I1zIdkPwyJNYJymUlal7d82doDQgffm6fTfuHhDyn28WhAPuGottNX5T1vUKW0baRNvzBmdTbCT/fUqjxFaneKzX3A6/JkTdGEzK2ZR/A+TDTwgH9qyq+GQwzFZ6x9TNW7eeY1ulDDTdnxHhuL5MOuKsCkIq/ccSyh5Z1vecy4j3dkv3dEU4hTI1cOgciwQrsjbrbVoGvE5qi87u3WL6m9JT9BvT1rRQLLTuVsUgixOWgQoYdDBTFz7aCSH6OOrktmJY7zH64ywQQENrec+yoNAddWG3qdL4uh7+RSe5PQj+gfAGDx0weN8LMVbQIuLjUFB1k+KnD+O9ZyAqE72TjnX/BijDzS//xZfaqniAM6J63Ay3d6kfHsLIOa/NjZ88WKHsPYJi2xL9WLi3wfBShR6rBO0WtsdeFuLn+JUuvBIRsOUWnwhq4DqKTK9FlMNdjsIu1VGjoPYNHb5N64oAvhyeMafjuAVfNvwRbSGhkt1dO7Jd53T82px2pB2PMCRUOuoXe5I+5HX+pgQoyq3lxR3a4dN6vy1DDnmofPRX+GwZ4rA0Hehb75OWDhfDZOAsUXw8oBf9gZRPM/AlnZVVkJ6yGzv5DmW8iRWRhND7fGhvhc20IhtlVk2j2+7CrX3KMs5Ic3tWNHxPRsi2QNaEf6n9YvsTimOCdcfIt56bPtb1+CgiTGExBDvuiCW6/aKG+z2pz7yP+m7BbEYMq20MdZnfxLNr9MxdLtDcJ8EOP9czhztyvmVckvRArDeKkf51L8egycMqN3b3r2wnCFT8/S4Vw0dBEIEnraySSYo0qHhmGPyC2lmu3q6d2SmvDnnemHYndYwl00VU1sPc/LqZ9sDsv1csRlBDv5ox41OKwrcGS5QxHU4NWK4n/lzz6VQZk/DXQeoP9B0rlCpvkyy7ehzliejHjYi6kf6Rqo+z4TyGJyfQdoOmITTqFFJFm5Qx8usICPxjPsyNtAve9oEDX6gRjS02JEUKvKS6mJ11CemdyjBYnya1ccb27ndjKdcUwwjwYZGZa7pysepUo21XPVAQ76Gglk6CNEMhkEb5bdtn9q2OfoXSD2D63D8j62BrpNVVcK2rj38pb73JPIHhGwKv41PcPGIlqDlg+XDIg6YAMdeitUxZhO4x0eEDpjyvDiFB5i5yiFSIkIQu62CDBFLOlfFKyvuWWmqt4U4TW/H43mUjvkZNnRljWusqDt7IrBXKGuXU/is8QacS0dN4kTCyY9tbog8Cvp5WgRgFujOeKagNAtJ+AJO+qYj2ru3voeHyYxf1YbQJ8v4bwCros6XFuvowWd1X3hAZGJ92rWDd0HmMeMMvdQY0+G+CFVptdxO6D4NCjSfKsxFO4VOfErkjiV6Qq5NR+Rv7C6yQGTYMMXj7ieAzrsI1RfU0QD4xLq4FFzYDWcFRBII4oYSOrhzQsvfgu4F21HmCE4QxnNkTwBPvr4loL0AKgisBhbEg5SZHe3fNAjkf1EgCaFu1Ii/QpzG61HVTIAAcAACsXsELzyneyKt4QvFnomjq0vVuqYgSp8Tyu8PmdDFKL0jTx2TiaRPQFgPDXw1h68FeqHEycsbZC/JckAC6AgvOFff/4hwPoAxaACbv+n3QttVHvvlci002kOaE4XQ8JtsGBM/f/hGbylZHoRRR+wM51fhvKHGMMWrj14Etp1wDqy65H9zW4JGQvhGwxlOgsHL+c4MX2ADp5VDwqESksPmP1rxW4c4jFBpLoyRsbpESkAstFzaciWi9Dy6Um1QlEn5HkyVcuW9WmdEZLZu92yO8APaI5OOIVIYi2k1PmL7/0AKNdgpCqLyzNOOZVAC2faQj5L6Qhw7Imvi0C9kdOe+cnZ/LlZNPRDe6F09Cusg13KNpwmsSpNcvRx6KjJ/YCPp6Gqr78eKN36kzU6bfA4MF5yarEV3alT87IzvJY/m9Nbz9/BawnCSgJ4LK3Nm4Wlt8rj1AtVS8sTQiUFhrQBxDwQOnbhDG+SZV1LxNT/S1bJIl77Kv+e/RTvIgv97+tVXIxdC1RDq6BkCl5h94E+Dn/94HfzvnBvErNXbJLPONJWi4p8Njn+L/XN/svkXFhVBCyoT/Kqjtb/gvqcj7YNFNKaUz77ZUCjllArywwviCXNd+ID4ddz79DstByqqBmMuVdul2hJCcHwe79EY9WHdBtMAsy///Q9HBxC3ORN+6Fs+TAPM6iEtR7I6gPp2mN/OU/JpC5FYi6H05Ah5kxQTw6ygs878bjpROTQw4pywThv4nkH8+V8l//+gx20OTEnP5fs/1TZH2uJElpQiLQ11EOk/VWSk/7pHy9MvgvGcyfEoIitIAmzzaQQAAA;" parent="1" vertex="1">
          <mxGeometry x="4080" y="2475" width="82.22" height="90" as="geometry" />
        </mxCell>
        <mxCell id="io7zwHNE9pA3boUVpFcz-96" value="" style="shape=image;verticalLabelPosition=bottom;labelBackgroundColor=default;verticalAlign=top;aspect=fixed;imageAspect=0;image=data:image/webp,UklGRrghAABXRUJQVlA4WAoAAAAQAAAA8gAACQEAQUxQSCsUAAABHAVt2zApf9hnh0FETABd/sIOMfaGbbdpOfr/jb0LcdKodnfQtq3YTtu2bdu23R2zjaraKTMuJ2XGTtVe94u91pxrjzFqPXwRERPgd9s/Re3//3vay9399a7crXr9F2+X0t+VW/nu/d26+7tyl5k1ZIMHDQESYkQggSy6u7ciMPf7zOyROiImgP5H/8bDg82gC1Ua53x3SHA562/nIJXClYh+c1AwOeMPYAHpfA+A6FcHBY8z/gCAMUqlbAOA6NeHBIuz/kDsqgSl6IcYwPnhqMAQGpYK98dJ6xFuAGadHAjCE7Lh3U+thEYv4M/hoc4u6ZIlMEwlvd80AQovTurMet6+CsbXK3aaGVBz386d1X4vrYV5R4pi4QYLYPMHR3RCobOmdsD2b9L8QysAqRckdy69b1wMH+9UbbwfQPPLh3QaodM+2QRfD1Ktxw5fAGTesAuTUK++x5wxfNLFV11z/U03XX/1FRdNGHbaUft049L/4RL4XEm6p/sF7Jh1Qc84dD1kxHXPfvFLcVM7fN5Wlz/v4yeuGNg/MQ573hqB/x8p94x/ALbMuWE/uz5n3PT2b6scsG0vnfvKNSd1twodenfEQTwvUm5kXGKXvjFpD49dRjwyeyVkOqVT7xvY0y18yFVf1SHefZXbJW6xzQunfv71L5WQHl0++4svZuZvBMOGkHJUwaHznUPaTw8iT6n3VBA5V72Lg8hR6p0SRLqrt0cAaSH1wx3Bo0g/agwev3YCy4LH951AQfD4vBOovT6+7gQGr4/Z+r25fH3k6/dVeH1uSlDvR14hOE69f3yNPKndN6Wvkfpeur3vCK/SaQmafVLglfp9F72+dYRX68I9tPruCK/YmqN1+tkUr9oNIxR689eh9bpZDDzPLzavM2lzVisEvp8vd2c60HGFOm//HtgvPbe7guKq5zrDDEmasngB1aeGk7/nAu5Q5q0/BXNLjsB67VQzYVkoLsHalWdMuF+Vt/4ArJEcQOOluLdt6EfQ2AhiFtyryJu/Dc6FeITmtXtl00kI3VfujgPX6/ErYIzlFAZu5MKW2wAmjosc0Sla/AAYOx0YehvY4S5haOmChq0n6/BdK1oqYpibn5l33YC5kU9D474afHIM8n0FRl+2TSs/wujcFitkJ8t76z9A7l/D8E1glpPC8LIGK7wt71dArs5hvjDJg/nNFVYYK+2oDam8ho3CHB82ri2zat5dVmIRqLUl7BSm+LBzTZUNfpR1D6j9BWx1zXBga1OTDcZJ6rvZ5v4C1u6qJhRgb8k2m5VdBX0Dy7QGi+/u9PWXFiHDBg/KOR62AjrTyWgw2epAWdtmAJ3zYbsz3uhAls3GFDELbJoJX985WQNAepZ3Ltjg6HLBXyje4WV65ntTtvUtFnhBynGwjHvQ2PehWPNjpqc7Pd1UAyqNPS/jQpUJOTabdhXyk42E3nB+CBj7PPD0tKFXHAJQb/Kg0AIPydi7w+LxSRNakQJQH7GkfR056HZUAGfJUuFY1CeJeAKWAtp9JUQ+BwoakrE2+EoYDDiQZYFJEkJVFo+RPtSVAMGBEV8A/feREuZVjiqbORJOhaWAgQUCJIfk6xkAVw3rMgMKLNp3FvC6RXJpwnpDgGCIllwtmHhEQNRmyLPApQJWWFRAbwxo6FEQ0hBwuQwBw4SCm3tatMViGr++sHRpSa/KUCXN7mghU/pA6683tC0JIQ3pFm1hdpdZpFOaB4+hQ4JPW694jkFv4oI2oyGgLbLA0ezesWiDHF/AoW2XNHRICHlcmg+UaDWG6zWpfYvFteyyLSQtAMa0EIx5muSp0YaAoEkGOCQUWLzLLbTOokCrA6iSShzJHanOE5HKAEYpZf7EMaKlWUS47QrLM9IlABynhAJYHdIq4RiC7AOAS3HA2iDlW9RxO9FilZLkC0i17pynQsKYI0dKZy+WNTUXvA6pwcJJZjbGog9ycQ+8Z4X8Ary7JanEIUg97N16CrEAsySh3Qz7MrvC4og224crb7WncgT2Y5LD4ZC8fUB4vGfpD8Ad0KotjmJ2q4VLuobisuZ75Rk0eiTBUSDJQ8Ak9ILGGvxV2lKLs5ndbiFJNRX9giQ5SiRfRXuXVmAxhNmdFoKUs8nhqJOKBp3RsiwGMbsuTp5J0oQGKTTokpZjcRaz8/UQJpRJeYPGtHyLw5kNs5CknEkOSXAUSI5BPVqhxR7MDrTwST2Tyia4JGlQmVZhtiORWXLUrEZKZwZNSR6HIB0Z5NLWmZUQ9wqzGxICc4YgNzg80mNqjkPaDPN57KaaISLlzZG0KUeLhKY5fdIKi6fZPWBRJW1mxjRJ1+BcxyRpzDnICy3GsjvNQpAgTemBnGNBj/SwMUXoSmGXuMEspN1sDPFpkkeS4BoSTWlNZvnEf5bZckOCNOM0oZ3yhLTrlRkC5GqYPyvgMjOUaI8PRpRBHoN3GZEgjLiKaOkWJwnos93MoyFngge6YEJA25yYUAG91KwiJICmmUURDa6+/pKhx1WgYfCsT4C+EuZPk8ThZvAYNnVdk0vQj8EdX9NwtNOVA2PEzOknIlxh1mfAvKVncgpGnw2CAfmdnsKOYfNGs7kk8xYzhAx4Luk4HYPxIuabRgwozXW4CRjTYT5ESPdWsxYHEpGyBQtwutAoODDqsK1ccG5dbZYVEkL3mSHHATT7PJMArINEx3TBgZ1Y8lSHYE2H+RiS2q3ebLxiQeKNaPciAm8JWiULcOOsaO0ieBu3mP0TEkNXm0HwACi5DyrzXH4H5hz0Jj0e4NGpJyp3bgPc+TA/ieSGs82SNheAYU5I33eE30vBfjfVhM6OCcCiLJ0gn/OE1wd/Nsw/I8nHR5UweuYzMoR2wWdk4wazthRR9JIacjYJ6E9LFu1YBvPLSHbXphqkPWFiAJ6G9mTCfGZIGH3bWg2BLe0IRo7ubUmHeePuJP6nCdvQjt4Mhp5M7ciAeXQQyX/zL9SwK9jQeYCxnXsbIrB8kDR8b14NsWteZQGDxyPz0mH5fUiFNz47VANkYpgT42CjWj9uNpuNerVcCouFQqFYqjYHk50SpkeGRTmwzO5GSn71hID6pUnPARQ9cM+ECiBik/ojWK5IITW/fUrA3DOnMoZqkW11pYbOwJhY7mBZ05cU/fYHAlDvmjHxob694xKg7uTSjOoI1JoDSNWfvaUg9c/1TUUEqmSaRCTg3t3q65ZBrjuCVP2qxfiMAsRBU8+ZfAZ9fcnjgfXOmeqplEAvaXlblTf/G7jvkAB05RXXk1dJwZpj6aY8wLZYXHON3DMwFm4CxmnykwDwHDIA6MpwRlnVRDUGe4OjDI3rI6e9pdwWvBFYF7YDaN1Dj8/NXyAVLC8nZVc4QT6fc6UsjBJobTKE0L0bFh3XyxcLOUcG1SmYO9Lg+pMef46DwYrJ7ICU9LWZuaYInhO0+AoUe0P7LjcUF1m4tB7e9b11eLusgsi3DpIQTTLASe2A6Ys6/CiI3sK2p6magP3NhTDffqAG7zmn4KpsGaTSJLJv4TrYztbgZ8DoPtu1O1dxYftNCB9PlfeBCQduAquQUzhJLUvkHH7+Je+XwVwe2oTmoRLsrvfAPFRalysubOXMovqBMqweB2D/R9pV0Pgk19Ygvyft2TSVW2g8WVZomQ7gytnaMtq9cGHvk5hD63RZo6H7Rq7tgAQQTayZijk0OwNEzYsbcCumVsxmgIClYxlB/4uS9osyAFbuwAI4mER2NPIJTGztKugJcK35G+PiUw8WPjk9mHqJnIRaNsBMtg1DLzUurfgrmPu7nBHgPRDnRhnfkTcw2tlHzGfMAHRFL5PShjiD8fdJSV7LD8C5DJfZMst5d7CxQMo4SN1URH2bDVFJNFPYOkDI12JerioivLfrMiebMWy+R0ZCm6i9l3lRGFuQDHIivIP1C2WcBiUX8j//x29NUhPiy7rz7/9aWSMbozuLeFYLOHgZ37RCTwonCGut0/PL2/vpw/3t1flJqxYGjpD+Uec2xcsysvI8EYVqyD0Gu5nxuYQUqJk3TWTGSgmT9eiY5mcG+gp4Q4+FafXsuExAvhr3MH2SHR/z6xVVo2EclplRzG8g1PTN62dGR3d2d+shzCtkBs5g950eefNEdtzKrkSPE/O87PiYW3dHjXRtXj07srgdAzVHMH+aHZtCzM7Xo2AB7jIDezN7TA9hQyU7BjL7To/ABpkd1zHL0OPUBjc7XmRWo8Y6saGZHd/xSuhQow0bV0lmRHjtAzVdKzDIjGpep+jh2BFkxvYQqzF6tOyQmYGdWF2qxnZrRy07DmZ1uxpt2LlMMuNMVk+qIS1BLzPGsXpTjYApSQ4lamsFNzMuZfWRGmOFrUoqcXjrq7RKCn5m3MbqKy0mUIyFgpNTgCwc6jVThXFm3M9qqhaBCoQ8IEaJylnU2je+86B6kxUPs5qrhaN0HYs9OfhQLtxevXgcDhKlICseZ7VAi74SfDgA2utBqtZGNwJ2VeSg7GbF06zmKXEP9bM4zeHhCnkQC8gDDtpQH2fFc6zmKBEQ4GJTK+MY1EEM4QFVAi4y4ilWs5XwKHfP2IEBDrBFCKqbEY+ymqHEDQUSQAD6bArEA1I+Ix5g9a0OPZC3I6wvGOACDsjzOBvuZvWRDoKGEiRYm49TGqrZcAOr13VoMEAueHoSjDIbLmL1jArTlMPkUTaMZXWfCi4s72fC2ayuUiG0TWTC0azGazDf2tbJhD1YnaqBD+uHGRBNYHWABkf2iQxoJtbdFXiI7RtlwGJe1CrPQQa27ZvLrEBeMwsc+95iNktcD1n4tLbuTmYvi5OZAN+6icyukbaZ7WnYU9lTte5wZmdK87HXCxVSX5+XKBT8PehbtiOJ2a7S2vtWF/1DXlFfwTs0uI72OZYtIe61so5xUIwf9skB9KdDuW8+ktgfze36kd18WcGhh2Vj88KBbwB8yBfJUXx5ANKuR9k9K+oiOQSJAEApGSUmJIM0BODAw+HrnVUj2E0QJaE4nUPg/BEBVNdqOxXkMR9BYjtWgGfVLux2l/SwUoEEZA8tKKdCRUC9gb4DSKie2lRG/CsFCShvRwBQU4PjHHIcQhMAJgslFCz6TsDXcqaRGioAciAup3KffIwI8AHkoX5i0Q0CrpQjQPWwvKJAwHnhQoA6iZADNWfPwQL6iblfkhaXAuTFLC0ClTiakiCuHkmD1Jb6kACqkOKA3t3QIBH1zx8hQN/2QPds+ZYkvitkFDOwrq5x3sd0wcA6iSy5QsQoIUUY6gOAA0OFHdEUEV03iyjB2AbQSUxZ3liRTjJnStgOzTnZJU0YG1hxr5ALJQgY7DgwuGLDgUJ6buE3Xplk9mhtXg5JncqvjMwW5t0hZhw7F9kdd0yL7ikmsZHZ1TzDcLIx7FeS+yKzCjJdGjZZ0IG8JLI9rRhVlyiIFnBqbTMOkweTHifJoxg9jWH7sTaUUnPa9xYVLuFTBGtRKa8tX1SKWSDM+ZxkX8lGgNfJKbiOtrTbV3ASHhRNcQ4TllTNJA/m+UP7QHn6rA3ueHpACjA/9w2ZSdJv4dFcccGZXO8ZPQno311Ukj3+dsKFy1szThbXpZrD2QPYbza9BYDFcHlvADzIF9WtB/52ZMJMkn8Fg8kYGh1U10AIAROTETxg+IS+BpS3+qKHKZCwNG5rKhHPtmccrQVmj0pRyoUsbF+2rhrZiGtOR9w+IQ1HxmtNGeIrgT4gobyTCsszMyxDSzGcyvggKxqnzfuqQLPj01aOOG9HAPqxGqR7YFFaWCwGgAjind0enwdIxwHb4lFXjbhXAFRAfFrIPc9NCdscYH1b3JC/JR7Lk5WgR+JQ0gyGLgKQJQSAdTUek2q3IgKGS9fEYRBpmVTkW+5mcHzu3tLmU7hAHi7oeRlgWbPSty9Iz+M6fEoF0xUYJZIjic0lA9v1eT5V91GEnvBlTR4Eb8+wBAQsdlIdXwaTpokRH7LrILoI4HZhE/Bjow+vk65919pEn048sVgUyoAHq19NTplplddVGZpgUXIqESU91i5pENdg85rxRBS6uM2srR+p+4TJtie6kuuxiwVBnprkRBpr09ebZPQl192+MnFGkL7h2V7T9yfvLi85RhlF5RlNfMyOAEBtg4fzXBJ5n5HndS9p3KvA5fdTyHxgtUEGAJQ7Kq2KQdl2l6qzyTh8fonLO6TzniuBuaeTdZ9vPFLhWqxLbnougDa4pwFw3ulJtgnn5wHTE5Wig986lHw9b3VMzQ63VABlqZF2HbIAFG7CUo9tjcg9mfwMnTYuTJ3tXvMAZMA9AqQ5QJYK29sAoLg93wO/XhSmwBi6Ym1Dh0cO0hBbJKo6ElkGIA+uaVleaxIpSO41FZ5Lsx2XTAAb0nICKzbUAUgHUt1Q7IVTAwUt8dq6Ha7NQG0dgIINaYjNQK6H6e2BopfjZdi6vhoAbrfmdax32Vpe5sN7geIk+FiYDdfQvFK412z2YVqgmOxHOdyFeTkevs4JFJf64e2alxGP7wLFlHj45uX68b7Hi4HiKI/CNT445pX4MfFzt7GBIlznsu6ARh+EeVuiPozqWRizLDFQ0O0xO0bQKh9881Yu9cqOepxIu8wH6o+kYJkwC2gaSVTosdLgN+TCIGfxJ1f1p0e8Pn7FzelDREeO7klBM2nQsG5E9KNbzSVe/TffeOtrv/fX/qEW6Vqd+cmtZ/Wi2H3aPT7qmu8SoWB7jUv7mcO9fvGNg29+4Ss/9Ku/+zf/Vxk+7g4ls+olf/3w1r3nn5pCxl97vER7l8YMDzjdqwBEL6PjPO4/dEj9nQ9+/BOf/OSH3v3mGz733+J2LdHOH29rvZSC7iGLkTeQqFfU7WaSeYOL05+IqHsyBd9wH4qNuPwaFkKPxnxCQXtETGpvEjvwl5KnkgMXXbiy8s4k+lc7FKL/Tw0AVlA4IGYNAADwVACdASrzAAoBPm0wlUikIqIhIhD8uIANiWdu/EMTw4i/+O4ABAgPwr/TPUAPwA/UCAAPwAu1FP/duRz2q8CZP/y1/qPtr9+/+A9gHmAfof0nfMB+vnUN9AD9Vf//2AHoAfst6Wn7M/BX+4H7q+0N//9Yt8xf578fPCX/U+e/WX9eOYY85+K89fYjwAnV9oF3n7+jUvVMaAf5j/WX8Zvlg+mPQB9Q/s/8Bv8v/wPVv/cz2O/1a//5oyjyNmo0ItVEC71oCZtkSuTBW2VDalKYvz54OuQZTmXI/pRfASRVm4TzvyfFwTz27RPb/ZrZv9nHPY5n/Hp+aNclI1TV0BTqDulojeuxrjiggSkw+DRcVSun4UwNSj2+SwPz7Wqjrgy2Bszyq6MP7YI+clzYaXU5PV1FZVxQLuaq57LGLKqbY8jusORA/NJMYB3FmTxyE0nH7cSkEUP7mOaIK/lxVTa2jvQEMRI62Rb0TldzXYEq2vgnXTgBUglAyZiCZsGadq4GQNmoJpuypsBEv696gMWj6hkK5x+JFbMMchUbJB5HtIiFNr5RbqIMAZT5MX+CM5XSM/Pj9mnbbjxdbdZuJYwjAzpXoaQQ5MUZvUFT3qBJKxAWykUG78CyNJs0KrKSlIrLd6B8S/df9WEmXBifIISbYR9MhTdJLjAXElPKUaLGWfL4FX4JB9FOV8pn3X3H3v3uFCCoqZ4XVPzVo4n9juwtjJGGiKes+rTdJp1gVJC3tEV2/XjT/dQ17aVnwU/cJO4E4cbUD807Vjp8S/R8W7bUmsLyh3MAXjLKmPEmoP5v1RS00KsY+2HMbEKWpdX/R7zErBmbCIfYEUXWTVhEVn4QsGP0nCcyqrowgsuzuokN0I7GHaLs3AJavZh+XgMBk+2Zfa6qx7Zj9X3J8V3bcbAAAP4UBJFF1Xgm0jWmf5cdPTQMCh/dSACc4L2lrMkjvZF0AOHVeLEG/kksWnWRvCN5YI663gUH1oO5+3KIPmPB1wPi7GloSeVXOQ2J0mtvmYmQB+kNEg3svxdTU3ixXTPKW1NuUBXw9n+v5+JQYXSP3XA2qyKzhdwHztrNQ6PDszYrE+/znRXIPInRWHVWXn4HjT/ibt4TKoNn48iEgiK5+HiCNAVqf4Eb/HUaGJUYMpgZ64pTMQ31pFkC/VXUddFccROdxMd7MFTb1sv2aT4jEtcaEuBqUagnkn+sYjJnE1Hd+7MVRyyl5/EXP3RXwgmvFOmARiDGRnKIp8fi5rszBva9g3VkqEIe2xyaAaFhEyEJCWd0HerhSR0hNcpeBXwswRJzkxFMYcVyYHpxZi2c4f024P+5cfwu0cH6Q5wmF3Ci+ObhF+N70PJtUMQddF8ht03cNSkLCaUDqw0m38N3c17GL433rC9L+B2qIQCqusl9HoULAvznnibnBR80u5/9Xe+wHYMT/EB1HP67rq+iucf+IcTc5pqNJ8JujeI0zGYPKNBZUqWtLseSipiL9L+t9Y8n7taArbRzA8YsHzUT1bEdkOzpJJ9Ih5PQ4qzAza/TNs0U/WI1Tq2YXBzcGhzGKkpgfh7UCBEB791A5s44/CBH74YrNMFgl3TYPdzYC/Qkspf6w0+mvQrazIEtQyMS2uthmRi0moD2ZgXlPM3eII4F3vx3L53J2jj4jMn7tlUrvjantSECA/euufmfq+l7U81j47Zw2a/k8PUsI69Yra3+bpZsEn73ETWImlSzhXaMKcudYf8bE8mHfGjT9Y7dITnnx2JvRl4ptIBIT3yvmUumH9xyHuY6FFmj5KSOk5M7+dWAnmCin9vPx8S8ydC6xF2yu3gIc2InbwHqkZ4gqSXNBZyHhcuxTXf9PsGQweAv4j/JS0PROfS+R7KTwf959LU8QSvGPd2/yN8DLl5bJTBk3pgkiCJJQYwhx+uw+AHfV/GOszm/l+VCxbaS1ny73Fxq4X8qziBd1/UC39+v9ysNgfl1lwV/OLPT2xICBI2uRJfdhwuRxn8/F3UFzjzTqZjSLK7Jt9rt2ho/IqVnUXyN9hvLy9WRGLiBV66rBaXHeBKhF4s/FLetwvzmJhlii4ZybL1oo4ap1B7Gnc9JqbuhqBxQ3e7qMb0FIT/euEW3z5KfwPOlCXWR9Y89urhoF5U7XlOuixnAS8ZMZIByM3FdvO13+gAjBMkzWeeuEUOyNnBB2Da38DJiNfZ25t9Yyj3jKFOJ8ZPIzoqMUnMBez6OoKNLmAg3hmi3JF0I1zIdkPwyJNYJymUlal7d82doDQgffm6fTfuHhDyn28WhAPuGottNX5T1vUKW0baRNvzBmdTbCT/fUqjxFaneKzX3A6/JkTdGEzK2ZR/A+TDTwgH9qyq+GQwzFZ6x9TNW7eeY1ulDDTdnxHhuL5MOuKsCkIq/ccSyh5Z1vecy4j3dkv3dEU4hTI1cOgciwQrsjbrbVoGvE5qi87u3WL6m9JT9BvT1rRQLLTuVsUgixOWgQoYdDBTFz7aCSH6OOrktmJY7zH64ywQQENrec+yoNAddWG3qdL4uh7+RSe5PQj+gfAGDx0weN8LMVbQIuLjUFB1k+KnD+O9ZyAqE72TjnX/BijDzS//xZfaqniAM6J63Ay3d6kfHsLIOa/NjZ88WKHsPYJi2xL9WLi3wfBShR6rBO0WtsdeFuLn+JUuvBIRsOUWnwhq4DqKTK9FlMNdjsIu1VGjoPYNHb5N64oAvhyeMafjuAVfNvwRbSGhkt1dO7Jd53T82px2pB2PMCRUOuoXe5I+5HX+pgQoyq3lxR3a4dN6vy1DDnmofPRX+GwZ4rA0Hehb75OWDhfDZOAsUXw8oBf9gZRPM/AlnZVVkJ6yGzv5DmW8iRWRhND7fGhvhc20IhtlVk2j2+7CrX3KMs5Ic3tWNHxPRsi2QNaEf6n9YvsTimOCdcfIt56bPtb1+CgiTGExBDvuiCW6/aKG+z2pz7yP+m7BbEYMq20MdZnfxLNr9MxdLtDcJ8EOP9czhztyvmVckvRArDeKkf51L8egycMqN3b3r2wnCFT8/S4Vw0dBEIEnraySSYo0qHhmGPyC2lmu3q6d2SmvDnnemHYndYwl00VU1sPc/LqZ9sDsv1csRlBDv5ox41OKwrcGS5QxHU4NWK4n/lzz6VQZk/DXQeoP9B0rlCpvkyy7ehzliejHjYi6kf6Rqo+z4TyGJyfQdoOmITTqFFJFm5Qx8usICPxjPsyNtAve9oEDX6gRjS02JEUKvKS6mJ11CemdyjBYnya1ccb27ndjKdcUwwjwYZGZa7pysepUo21XPVAQ76Gglk6CNEMhkEb5bdtn9q2OfoXSD2D63D8j62BrpNVVcK2rj38pb73JPIHhGwKv41PcPGIlqDlg+XDIg6YAMdeitUxZhO4x0eEDpjyvDiFB5i5yiFSIkIQu62CDBFLOlfFKyvuWWmqt4U4TW/H43mUjvkZNnRljWusqDt7IrBXKGuXU/is8QacS0dN4kTCyY9tbog8Cvp5WgRgFujOeKagNAtJ+AJO+qYj2ru3voeHyYxf1YbQJ8v4bwCros6XFuvowWd1X3hAZGJ92rWDd0HmMeMMvdQY0+G+CFVptdxO6D4NCjSfKsxFO4VOfErkjiV6Qq5NR+Rv7C6yQGTYMMXj7ieAzrsI1RfU0QD4xLq4FFzYDWcFRBII4oYSOrhzQsvfgu4F21HmCE4QxnNkTwBPvr4loL0AKgisBhbEg5SZHe3fNAjkf1EgCaFu1Ii/QpzG61HVTIAAcAACsXsELzyneyKt4QvFnomjq0vVuqYgSp8Tyu8PmdDFKL0jTx2TiaRPQFgPDXw1h68FeqHEycsbZC/JckAC6AgvOFff/4hwPoAxaACbv+n3QttVHvvlci002kOaE4XQ8JtsGBM/f/hGbylZHoRRR+wM51fhvKHGMMWrj14Etp1wDqy65H9zW4JGQvhGwxlOgsHL+c4MX2ADp5VDwqESksPmP1rxW4c4jFBpLoyRsbpESkAstFzaciWi9Dy6Um1QlEn5HkyVcuW9WmdEZLZu92yO8APaI5OOIVIYi2k1PmL7/0AKNdgpCqLyzNOOZVAC2faQj5L6Qhw7Imvi0C9kdOe+cnZ/LlZNPRDe6F09Cusg13KNpwmsSpNcvRx6KjJ/YCPp6Gqr78eKN36kzU6bfA4MF5yarEV3alT87IzvJY/m9Nbz9/BawnCSgJ4LK3Nm4Wlt8rj1AtVS8sTQiUFhrQBxDwQOnbhDG+SZV1LxNT/S1bJIl77Kv+e/RTvIgv97+tVXIxdC1RDq6BkCl5h94E+Dn/94HfzvnBvErNXbJLPONJWi4p8Njn+L/XN/svkXFhVBCyoT/Kqjtb/gvqcj7YNFNKaUz77ZUCjllArywwviCXNd+ID4ddz79DstByqqBmMuVdul2hJCcHwe79EY9WHdBtMAsy///Q9HBxC3ORN+6Fs+TAPM6iEtR7I6gPp2mN/OU/JpC5FYi6H05Ah5kxQTw6ygs878bjpROTQw4pywThv4nkH8+V8l//+gx20OTEnP5fs/1TZH2uJElpQiLQ11EOk/VWSk/7pHy9MvgvGcyfEoIitIAmzzaQQAAA;" parent="1" vertex="1">
          <mxGeometry x="5520" y="2475" width="82.22" height="90" as="geometry" />
        </mxCell>
        <mxCell id="io7zwHNE9pA3boUVpFcz-97" value="" style="endArrow=classic;html=1;rounded=0;strokeWidth=5;endSize=8;strokeColor=#666666;" parent="1" edge="1">
          <mxGeometry width="50" height="50" relative="1" as="geometry">
            <mxPoint x="3260" y="2999.52" as="sourcePoint" />
            <mxPoint x="3330" y="3000.02" as="targetPoint" />
          </mxGeometry>
        </mxCell>
        <mxCell id="io7zwHNE9pA3boUVpFcz-98" value="" style="endArrow=classic;html=1;rounded=0;strokeWidth=5;endSize=8;strokeColor=#666666;" parent="1" edge="1">
          <mxGeometry width="50" height="50" relative="1" as="geometry">
            <mxPoint x="3260" y="3070" as="sourcePoint" />
            <mxPoint x="3320" y="3070.1" as="targetPoint" />
          </mxGeometry>
        </mxCell>
        <mxCell id="io7zwHNE9pA3boUVpFcz-99" value="" style="endArrow=none;html=1;rounded=0;strokeWidth=5;endSize=8;strokeColor=#666666;" parent="1" edge="1">
          <mxGeometry width="50" height="50" relative="1" as="geometry">
            <mxPoint x="3261.5" y="3069.17" as="sourcePoint" />
            <mxPoint x="3260" y="2080" as="targetPoint" />
          </mxGeometry>
        </mxCell>
        <mxCell id="io7zwHNE9pA3boUVpFcz-100" value="" style="endArrow=classic;html=1;rounded=0;strokeWidth=5;endSize=8;strokeColor=#666666;entryX=0;entryY=0.5;entryDx=0;entryDy=0;" parent="1" target="io7zwHNE9pA3boUVpFcz-93" edge="1">
          <mxGeometry width="50" height="50" relative="1" as="geometry">
            <mxPoint x="3260" y="2077.48" as="sourcePoint" />
            <mxPoint x="3330" y="2077.98" as="targetPoint" />
          </mxGeometry>
        </mxCell>
        <mxCell id="io7zwHNE9pA3boUVpFcz-101" value="" style="outlineConnect=0;dashed=0;verticalLabelPosition=bottom;verticalAlign=top;align=center;html=1;shape=mxgraph.aws3.internet_3;fillColor=#D2D3D3;gradientColor=none;" parent="1" vertex="1">
          <mxGeometry x="3240.5" y="2047.81" width="89.5" height="60.25" as="geometry" />
        </mxCell>
        <mxCell id="io7zwHNE9pA3boUVpFcz-102" value="&lt;div style=&quot;font-size: 22px;&quot;&gt;&lt;b style=&quot;background-color: initial;&quot;&gt;&amp;nbsp; &amp;nbsp; 인증서 위치: &lt;/b&gt;&lt;b style=&quot;background-color: initial;&quot;&gt;home/docker/containers/cps&lt;/b&gt;&lt;br&gt;&lt;b style=&quot;background-color: initial;&quot;&gt;&amp;nbsp; &amp;nbsp; 인증서 만료 날짜: 2026-05-03 11:47&lt;/b&gt;&lt;br&gt;&lt;/div&gt;" style="rounded=0;whiteSpace=wrap;html=1;align=left;fillColor=#E6E6E6;" parent="1" vertex="1">
          <mxGeometry x="3946.11" y="2260" width="483.89" height="170" as="geometry" />
        </mxCell>
        <mxCell id="io7zwHNE9pA3boUVpFcz-103" value="" style="endArrow=none;html=1;rounded=0;align=center;verticalAlign=top;endFill=0;labelBackgroundColor=none;endSize=2;strokeWidth=3;" parent="1" edge="1">
          <mxGeometry relative="1" as="geometry">
            <mxPoint x="5788.88" y="1779.99" as="targetPoint" />
            <mxPoint x="5788.88" y="1779.99" as="sourcePoint" />
          </mxGeometry>
        </mxCell>
        <mxCell id="io7zwHNE9pA3boUVpFcz-104" value="&lt;span style=&quot;border-color: var(--border-color); text-align: left;&quot;&gt;&lt;b style=&quot;&quot;&gt;&lt;font style=&quot;border-color: var(--border-color); font-size: 19px;&quot;&gt;port: 3000&lt;/font&gt;&lt;/b&gt;&lt;/span&gt;" style="html=1;rounded=0;strokeWidth=3;" parent="1" vertex="1">
          <mxGeometry x="5847.63" y="1768.99" width="183.75" height="40" as="geometry" />
        </mxCell>
        <mxCell id="io7zwHNE9pA3boUVpFcz-105" value="" style="endArrow=none;html=1;rounded=0;align=center;verticalAlign=top;endFill=0;labelBackgroundColor=none;endSize=2;strokeWidth=3;" parent="1" edge="1">
          <mxGeometry relative="1" as="geometry">
            <mxPoint x="5790.13" y="1788.74" as="targetPoint" />
            <mxPoint x="5790.13" y="1788.74" as="sourcePoint" />
          </mxGeometry>
        </mxCell>
        <mxCell id="io7zwHNE9pA3boUVpFcz-106" value="" style="endArrow=none;html=1;rounded=0;align=center;verticalAlign=top;endFill=0;labelBackgroundColor=none;endSize=2;strokeWidth=3;" parent="1" edge="1">
          <mxGeometry relative="1" as="geometry">
            <mxPoint x="5847.63" y="1787.58375" as="sourcePoint" />
            <mxPoint x="5753.13" y="1788.06" as="targetPoint" />
          </mxGeometry>
        </mxCell>
        <mxCell id="io7zwHNE9pA3boUVpFcz-107" value="" style="edgeStyle=segmentEdgeStyle;endArrow=classic;html=1;curved=0;rounded=0;endSize=8;startSize=8;strokeWidth=4;" parent="1" edge="1">
          <mxGeometry width="50" height="50" relative="1" as="geometry">
            <mxPoint x="5000" y="1717.66" as="sourcePoint" />
            <mxPoint x="5200" y="1596.79" as="targetPoint" />
            <Array as="points">
              <mxPoint x="5000" y="1596.79" />
              <mxPoint x="5180" y="1596.79" />
            </Array>
          </mxGeometry>
        </mxCell>
        <mxCell id="io7zwHNE9pA3boUVpFcz-108" value="&lt;div style=&quot;&quot;&gt;&lt;span style=&quot;font-size: 22px;&quot;&gt;&lt;b&gt;push alerts&lt;/b&gt;&lt;/span&gt;&lt;/div&gt;" style="text;strokeColor=none;align=left;fillColor=none;html=1;verticalAlign=middle;whiteSpace=wrap;rounded=0;" parent="1" vertex="1">
          <mxGeometry x="5000" y="1539.67" width="138.89" height="60" as="geometry" />
        </mxCell>
        <mxCell id="io7zwHNE9pA3boUVpFcz-109" value="" style="strokeWidth=5;html=1;shape=mxgraph.flowchart.database;whiteSpace=wrap;fillColor=#D5E8D4;strokeColor=#9AC7BF;align=left;" parent="1" vertex="1">
          <mxGeometry x="5030" y="3670" width="950" height="420" as="geometry" />
        </mxCell>
        <mxCell id="io7zwHNE9pA3boUVpFcz-110" value="&lt;div style=&quot;font-size: 22px;&quot;&gt;&lt;ol style=&quot;border-color: var(--border-color);&quot;&gt;&lt;li style=&quot;border-color: var(--border-color);&quot;&gt;&lt;span style=&quot;border-color: var(--border-color);&quot;&gt;&lt;b&gt;디스크 크기: 512GiB&lt;/b&gt;&lt;/span&gt;&lt;/li&gt;&lt;li style=&quot;border-color: var(--border-color);&quot;&gt;&lt;font style=&quot;border-color: var(--border-color); font-size: 22px;&quot;&gt;&lt;span style=&quot;border-color: var(--border-color);&quot;&gt;&lt;b&gt;스토리지 유형: 표준 HDD LRS&lt;/b&gt;&lt;/span&gt;&lt;/font&gt;&lt;/li&gt;&lt;li style=&quot;border-color: var(--border-color);&quot;&gt;&lt;font style=&quot;border-color: var(--border-color); font-size: 22px;&quot;&gt;&lt;span style=&quot;border-color: var(--border-color);&quot;&gt;&lt;b&gt;관리 파일: containers(실행 파일), volumes(mapping 파일)&lt;/b&gt;&lt;/span&gt;&lt;/font&gt;&lt;b style=&quot;background-color: initial;&quot;&gt;&amp;nbsp;&lt;/b&gt;&lt;/li&gt;&lt;/ol&gt;&lt;/div&gt;" style="text;strokeColor=none;align=left;fillColor=none;html=1;verticalAlign=middle;whiteSpace=wrap;rounded=0;" parent="1" vertex="1">
          <mxGeometry x="5183.1900000000005" y="3830" width="643.61" height="190" as="geometry" />
        </mxCell>
        <mxCell id="io7zwHNE9pA3boUVpFcz-111" value="" style="endArrow=none;html=1;rounded=0;strokeWidth=5;endSize=8;strokeColor=#666666;exitX=0.689;exitY=-0.019;exitDx=0;exitDy=0;exitPerimeter=0;" parent="1" source="io7zwHNE9pA3boUVpFcz-56" edge="1">
          <mxGeometry width="50" height="50" relative="1" as="geometry">
            <mxPoint x="6123" y="2540" as="sourcePoint" />
            <mxPoint x="6124" y="2070" as="targetPoint" />
          </mxGeometry>
        </mxCell>
        <mxCell id="io7zwHNE9pA3boUVpFcz-112" value="" style="endArrow=none;html=1;rounded=0;strokeWidth=5;endSize=8;strokeColor=#666666;" parent="1" edge="1">
          <mxGeometry width="50" height="50" relative="1" as="geometry">
            <mxPoint x="4684" y="2550" as="sourcePoint" />
            <mxPoint x="4684" y="2070" as="targetPoint" />
          </mxGeometry>
        </mxCell>
        <mxCell id="io7zwHNE9pA3boUVpFcz-114" value="" style="outlineConnect=0;dashed=0;verticalLabelPosition=bottom;verticalAlign=top;align=center;html=1;shape=mxgraph.aws3.internet_3;fillColor=#D2D3D3;gradientColor=none;" parent="1" vertex="1">
          <mxGeometry x="4640" y="2030.25" width="89.5" height="60.25" as="geometry" />
        </mxCell>
        <mxCell id="io7zwHNE9pA3boUVpFcz-115" value="&lt;span style=&quot;border-color: var(--border-color); text-align: left; font-size: 19px;&quot;&gt;&lt;b&gt;&lt;font style=&quot;border-color: var(--border-color); font-size: 19px;&quot;&gt;port: 9093&lt;/font&gt;&lt;/b&gt;&lt;/span&gt;" style="html=1;rounded=0;strokeWidth=3;" parent="1" vertex="1">
          <mxGeometry x="5200" y="1571.94" width="143.15" height="40" as="geometry" />
        </mxCell>
        <mxCell id="io7zwHNE9pA3boUVpFcz-116" value="" style="endArrow=none;html=1;rounded=0;align=center;verticalAlign=top;endFill=0;labelBackgroundColor=none;endSize=2;strokeWidth=3;" parent="1" source="io7zwHNE9pA3boUVpFcz-115" edge="1">
          <mxGeometry relative="1" as="geometry">
            <mxPoint x="5400.65" y="1591.94" as="targetPoint" />
          </mxGeometry>
        </mxCell>
        <mxCell id="io7zwHNE9pA3boUVpFcz-117" value="&lt;div style=&quot;text-align: left;&quot;&gt;&lt;span style=&quot;background-color: initial; font-size: 19px;&quot;&gt;&lt;b&gt;BLOB_ACCOUNT&lt;/b&gt;&lt;/span&gt;&lt;/div&gt;&lt;div style=&quot;text-align: left;&quot;&gt;&lt;span style=&quot;background-color: initial; font-size: 19px;&quot;&gt;&lt;b&gt;BLOB_ACCESS_KEY&lt;/b&gt;&lt;/span&gt;&lt;/div&gt;&lt;div style=&quot;text-align: left;&quot;&gt;&lt;span style=&quot;background-color: initial; font-size: 19px;&quot;&gt;&lt;b&gt;BLOB_CONNECTION&lt;/b&gt;&lt;/span&gt;&lt;/div&gt;" style="html=1;rounded=0;strokeWidth=9;" parent="1" vertex="1">
          <mxGeometry x="2898.13" y="3110" width="253.75" height="110" as="geometry" />
        </mxCell>
        <mxCell id="io7zwHNE9pA3boUVpFcz-118" value="" style="endArrow=none;html=1;rounded=0;strokeWidth=8;entryX=0.44;entryY=1.001;entryDx=0;entryDy=0;entryPerimeter=0;" parent="1" edge="1">
          <mxGeometry width="50" height="50" relative="1" as="geometry">
            <mxPoint x="4066" y="3669" as="sourcePoint" />
            <mxPoint x="4066.01" y="3450" as="targetPoint" />
          </mxGeometry>
        </mxCell>
        <mxCell id="io7zwHNE9pA3boUVpFcz-119" value="" style="image;html=1;image=img/lib/clip_art/general/Full_Folder_128x128.png" parent="1" vertex="1">
          <mxGeometry x="4039.75" y="3530" width="50.5" height="50" as="geometry" />
        </mxCell>
        <mxCell id="io7zwHNE9pA3boUVpFcz-120" value="" style="endArrow=none;html=1;rounded=0;strokeWidth=8;entryX=0.44;entryY=1.001;entryDx=0;entryDy=0;entryPerimeter=0;exitX=0.5;exitY=0;exitDx=0;exitDy=0;exitPerimeter=0;" parent="1" source="io7zwHNE9pA3boUVpFcz-109" edge="1">
          <mxGeometry width="50" height="50" relative="1" as="geometry">
            <mxPoint x="5503.76" y="3670" as="sourcePoint" />
            <mxPoint x="5505.76" y="3451" as="targetPoint" />
          </mxGeometry>
        </mxCell>
        <mxCell id="io7zwHNE9pA3boUVpFcz-121" value="" style="image;html=1;image=img/lib/clip_art/general/Full_Folder_128x128.png" parent="1" vertex="1">
          <mxGeometry x="5479.5" y="3531" width="50.5" height="50" as="geometry" />
        </mxCell>
        <mxCell id="io7zwHNE9pA3boUVpFcz-122" value="" style="endArrow=none;html=1;rounded=0;strokeWidth=8;exitX=0.431;exitY=0.001;exitDx=0;exitDy=0;exitPerimeter=0;" parent="1" edge="1">
          <mxGeometry width="50" height="50" relative="1" as="geometry">
            <mxPoint x="3024.81" y="3110" as="sourcePoint" />
            <mxPoint x="3024.81" y="1480.5" as="targetPoint" />
          </mxGeometry>
        </mxCell>
        <mxCell id="io7zwHNE9pA3boUVpFcz-123" value="" style="endArrow=none;html=1;rounded=0;strokeWidth=8;entryX=0;entryY=0.553;entryDx=0;entryDy=0;entryPerimeter=0;" parent="1" edge="1">
          <mxGeometry width="50" height="50" relative="1" as="geometry">
            <mxPoint x="3020" y="1480" as="sourcePoint" />
            <mxPoint x="3530" y="1480.1399999999999" as="targetPoint" />
          </mxGeometry>
        </mxCell>
        <mxCell id="io7zwHNE9pA3boUVpFcz-124" value="" style="endArrow=none;html=1;rounded=0;strokeWidth=8;entryX=0;entryY=0.553;entryDx=0;entryDy=0;entryPerimeter=0;exitX=1;exitY=0.5;exitDx=0;exitDy=0;" parent="1" source="io7zwHNE9pA3boUVpFcz-117" edge="1">
          <mxGeometry width="50" height="50" relative="1" as="geometry">
            <mxPoint x="3790" y="3164.41" as="sourcePoint" />
            <mxPoint x="4300" y="3164.41" as="targetPoint" />
          </mxGeometry>
        </mxCell>
        <mxCell id="io7zwHNE9pA3boUVpFcz-125" value="" style="endArrow=none;html=1;rounded=0;strokeWidth=8;exitX=0.479;exitY=0.008;exitDx=0;exitDy=0;exitPerimeter=0;" parent="1" source="io7zwHNE9pA3boUVpFcz-20" edge="1">
          <mxGeometry width="50" height="50" relative="1" as="geometry">
            <mxPoint x="3820" y="3200" as="sourcePoint" />
            <mxPoint x="3819.67" y="3100" as="targetPoint" />
          </mxGeometry>
        </mxCell>
        <mxCell id="io7zwHNE9pA3boUVpFcz-126" value="" style="endArrow=none;html=1;rounded=0;strokeWidth=8;" parent="1" edge="1">
          <mxGeometry width="50" height="50" relative="1" as="geometry">
            <mxPoint x="4301" y="3210" as="sourcePoint" />
            <mxPoint x="4301.28" y="3160" as="targetPoint" />
          </mxGeometry>
        </mxCell>
        <mxCell id="io7zwHNE9pA3boUVpFcz-127" value="" style="strokeWidth=5;html=1;shape=mxgraph.flowchart.database;whiteSpace=wrap;fillColor=#D5E8D4;strokeColor=#9AC7BF;align=left;" parent="1" vertex="1">
          <mxGeometry x="3523.12" y="1280" width="610" height="373.74" as="geometry" />
        </mxCell>
        <mxCell id="io7zwHNE9pA3boUVpFcz-128" value="" style="verticalLabelPosition=bottom;html=1;verticalAlign=top;align=center;strokeColor=none;fillColor=#00BEF2;shape=mxgraph.azure.storage_blob;" parent="1" vertex="1">
          <mxGeometry x="3630.31" y="1309.9999999999998" width="65.63" height="65.63" as="geometry" />
        </mxCell>
        <mxCell id="io7zwHNE9pA3boUVpFcz-129" value="&lt;font size=&quot;1&quot; style=&quot;&quot;&gt;&lt;b style=&quot;font-size: 30px;&quot;&gt;Blob Storage (cpsfile)&lt;/b&gt;&lt;/font&gt;" style="text;strokeColor=none;align=center;fillColor=none;html=1;verticalAlign=middle;whiteSpace=wrap;rounded=0;" parent="1" vertex="1">
          <mxGeometry x="3695.94" y="1327.82" width="330" height="30" as="geometry" />
        </mxCell>
        <mxCell id="io7zwHNE9pA3boUVpFcz-130" value="&lt;div style=&quot;font-size: 22px;&quot;&gt;&lt;ol style=&quot;border-color: var(--border-color);&quot;&gt;&lt;li style=&quot;border-color: var(--border-color);&quot;&gt;&lt;span style=&quot;border-color: var(--border-color);&quot;&gt;&lt;b&gt;계정 종류: StorageV2(범용 v2)&lt;/b&gt;&lt;/span&gt;&lt;/li&gt;&lt;li style=&quot;border-color: var(--border-color);&quot;&gt;&lt;font style=&quot;border-color: var(--border-color); font-size: 22px;&quot;&gt;&lt;span style=&quot;border-color: var(--border-color);&quot;&gt;&lt;b&gt;용량 공유: 100TiB&lt;/b&gt;&lt;/span&gt;&lt;/font&gt;&lt;/li&gt;&lt;li style=&quot;border-color: var(--border-color);&quot;&gt;&lt;font style=&quot;border-color: var(--border-color); font-size: 22px;&quot;&gt;&lt;span style=&quot;border-color: var(--border-color);&quot;&gt;&lt;b&gt;관리 파일: 데이터 전처리, 이미지&lt;/b&gt;&lt;/span&gt;&lt;/font&gt;&lt;/li&gt;&lt;/ol&gt;&lt;/div&gt;" style="text;strokeColor=none;align=left;fillColor=none;html=1;verticalAlign=middle;whiteSpace=wrap;rounded=0;" parent="1" vertex="1">
          <mxGeometry x="3578.12" y="1431.94" width="500" height="140" as="geometry" />
        </mxCell>
        <mxCell id="io7zwHNE9pA3boUVpFcz-131" value="" style="image;html=1;image=img/lib/clip_art/general/Full_Folder_128x128.png" parent="1" vertex="1">
          <mxGeometry x="2999.75" y="1450" width="50.5" height="50" as="geometry" />
        </mxCell>
        <mxCell id="io7zwHNE9pA3boUVpFcz-132" value="" style="rounded=0;whiteSpace=wrap;html=1;fillColor=#99CCFF;fontColor=#ffffff;strokeColor=#006EAF;strokeWidth=0;" parent="1" vertex="1">
          <mxGeometry x="5000" y="2946.13" width="1010" height="437.75" as="geometry" />
        </mxCell>
        <mxCell id="io7zwHNE9pA3boUVpFcz-133" value="" style="image;sketch=0;aspect=fixed;html=1;points=[];align=center;fontSize=12;image=img/lib/mscae/Docker.svg;" parent="1" vertex="1">
          <mxGeometry x="5030" y="2970" width="131.41" height="107.75" as="geometry" />
        </mxCell>
        <mxCell id="io7zwHNE9pA3boUVpFcz-134" value="" style="rounded=0;whiteSpace=wrap;html=1;dashed=1;dashPattern=1 1;strokeWidth=8;strokeColor=#999999;fillColor=#E6E6E6;" parent="1" vertex="1">
          <mxGeometry x="6440" y="2170" width="1070" height="1280" as="geometry" />
        </mxCell>
        <mxCell id="io7zwHNE9pA3boUVpFcz-135" value="&lt;font size=&quot;1&quot; style=&quot;&quot;&gt;&lt;b style=&quot;font-size: 30px;&quot;&gt;VM (uvc-gw)&lt;/b&gt;&lt;/font&gt;" style="text;strokeColor=none;align=center;fillColor=none;html=1;verticalAlign=middle;whiteSpace=wrap;rounded=0;" parent="1" vertex="1">
          <mxGeometry x="6520" y="2195.25" width="420" height="30" as="geometry" />
        </mxCell>
        <mxCell id="io7zwHNE9pA3boUVpFcz-136" value="" style="image;html=1;image=img/lib/clip_art/computers/Virtual_Machine_128x128.png" parent="1" vertex="1">
          <mxGeometry x="6470" y="2180.25" width="50" height="60" as="geometry" />
        </mxCell>
        <mxCell id="io7zwHNE9pA3boUVpFcz-137" value="&lt;div style=&quot;font-size: 20px;&quot;&gt;&lt;div style=&quot;font-size: 20px;&quot;&gt;&lt;b&gt;&lt;br&gt;&lt;/b&gt;&lt;/div&gt;&lt;ol style=&quot;&quot;&gt;&lt;li style=&quot;font-size: 20px;&quot;&gt;&lt;b&gt;RAM: 2GiB&lt;/b&gt;&lt;/li&gt;&lt;li style=&quot;font-size: 20px;&quot;&gt;&lt;b&gt;OS: Linux (CentOS7.9)&lt;/b&gt;&lt;/li&gt;&lt;li style=&quot;font-size: 20px;&quot;&gt;&lt;b&gt;공인IP: 220.90.135.177&lt;/b&gt;&lt;/li&gt;&lt;li style=&quot;&quot;&gt;&lt;b style=&quot;font-size: 20px;&quot;&gt;내부IP:&amp;nbsp;&lt;/b&gt;&lt;b&gt;10.0.2.11&lt;/b&gt;&lt;/li&gt;&lt;/ol&gt;&lt;/div&gt;" style="rounded=0;whiteSpace=wrap;html=1;align=left;fillColor=#E6E6E6;" parent="1" vertex="1">
          <mxGeometry x="6470" y="2250" width="350" height="130" as="geometry" />
        </mxCell>
        <mxCell id="io7zwHNE9pA3boUVpFcz-138" value="" style="rounded=0;whiteSpace=wrap;html=1;fillColor=#99CCFF;fontColor=#ffffff;strokeColor=#006EAF;strokeWidth=0;" parent="1" vertex="1">
          <mxGeometry x="6470" y="2462.25" width="1010" height="437.75" as="geometry" />
        </mxCell>
        <mxCell id="io7zwHNE9pA3boUVpFcz-139" value="" style="image;sketch=0;aspect=fixed;html=1;points=[];align=center;fontSize=12;image=img/lib/mscae/Docker.svg;" parent="1" vertex="1">
          <mxGeometry x="6488.59" y="2482.25" width="131.41" height="107.75" as="geometry" />
        </mxCell>
        <mxCell id="io7zwHNE9pA3boUVpFcz-140" value="&lt;font style=&quot;&quot;&gt;&lt;font style=&quot;font-size: 24px;&quot;&gt;flexing-gw-serer-gw-uvc&lt;/font&gt;&lt;br&gt;&lt;/font&gt;&lt;font color=&quot;#000000&quot;&gt;&lt;span style=&quot;font-size: 20px;&quot;&gt;uvclab/flexing-gw-server:0.7.7&lt;/span&gt;&lt;/font&gt;" style="rounded=1;whiteSpace=wrap;html=1;fillColor=#1ba1e2;fontColor=#ffffff;strokeColor=#006EAF;" parent="1" vertex="1">
          <mxGeometry x="7021.25" y="2730" width="387.5" height="130" as="geometry" />
        </mxCell>
        <mxCell id="io7zwHNE9pA3boUVpFcz-141" value="" style="endArrow=none;html=1;rounded=0;align=center;verticalAlign=top;endFill=0;labelBackgroundColor=none;endSize=2;strokeWidth=3;" parent="1" edge="1">
          <mxGeometry relative="1" as="geometry">
            <mxPoint x="7408.75" y="2794.75" as="targetPoint" />
            <mxPoint x="7408.75" y="2794.75" as="sourcePoint" />
          </mxGeometry>
        </mxCell>
        <mxCell id="io7zwHNE9pA3boUVpFcz-142" value="&lt;font style=&quot;&quot;&gt;&lt;font style=&quot;font-size: 24px;&quot;&gt;cadvisor&lt;/font&gt;&lt;br&gt;&lt;/font&gt;&lt;font style=&quot;font-size: 20px;&quot;&gt;&lt;span style=&quot;border-color: var(--border-color); color: rgb(0, 0, 0); text-align: left;&quot;&gt;gcr.io/cadvisor/cadvisor:latest&lt;br&gt;&lt;/span&gt;&lt;/font&gt;" style="rounded=1;whiteSpace=wrap;html=1;fillColor=#1ba1e2;fontColor=#ffffff;strokeColor=#006EAF;" parent="1" vertex="1">
          <mxGeometry x="7021.25" y="2500" width="387.5" height="130" as="geometry" />
        </mxCell>
        <mxCell id="io7zwHNE9pA3boUVpFcz-143" value="" style="endArrow=none;html=1;rounded=0;align=center;verticalAlign=top;endFill=0;labelBackgroundColor=none;endSize=2;strokeWidth=3;" parent="1" edge="1">
          <mxGeometry relative="1" as="geometry">
            <mxPoint x="7408.75" y="2559.75" as="targetPoint" />
            <mxPoint x="7408.75" y="2559.75" as="sourcePoint" />
          </mxGeometry>
        </mxCell>
        <mxCell id="io7zwHNE9pA3boUVpFcz-144" value="&lt;font color=&quot;#ffffff&quot; style=&quot;font-size: 17px;&quot;&gt;v0.38.6&lt;/font&gt;" style="text;strokeColor=none;align=left;fillColor=none;html=1;verticalAlign=middle;whiteSpace=wrap;rounded=0;" parent="1" vertex="1">
          <mxGeometry x="7340" y="2500" width="80" height="40" as="geometry" />
        </mxCell>
        <mxCell id="io7zwHNE9pA3boUVpFcz-145" value="" style="endArrow=none;html=1;rounded=0;align=center;verticalAlign=top;endFill=0;labelBackgroundColor=none;endSize=2;strokeWidth=3;" parent="1" edge="1">
          <mxGeometry relative="1" as="geometry">
            <mxPoint x="7410" y="2568.5" as="targetPoint" />
            <mxPoint x="7410" y="2568.5" as="sourcePoint" />
          </mxGeometry>
        </mxCell>
        <mxCell id="io7zwHNE9pA3boUVpFcz-146" value="" style="endArrow=none;html=1;rounded=0;align=center;verticalAlign=top;endFill=0;labelBackgroundColor=none;endSize=2;strokeWidth=3;" parent="1" edge="1">
          <mxGeometry relative="1" as="geometry">
            <mxPoint x="7467.5" y="2567.34375" as="sourcePoint" />
            <mxPoint x="7410" y="2566.53515625" as="targetPoint" />
          </mxGeometry>
        </mxCell>
        <mxCell id="io7zwHNE9pA3boUVpFcz-147" value="" style="endArrow=none;html=1;rounded=0;align=center;verticalAlign=top;endFill=0;labelBackgroundColor=none;endSize=2;strokeWidth=3;" parent="1" edge="1">
          <mxGeometry relative="1" as="geometry">
            <mxPoint x="7408.75" y="2794.75" as="targetPoint" />
            <mxPoint x="7408.75" y="2794.75" as="sourcePoint" />
          </mxGeometry>
        </mxCell>
        <mxCell id="io7zwHNE9pA3boUVpFcz-148" value="" style="endArrow=none;html=1;rounded=0;align=center;verticalAlign=top;endFill=0;labelBackgroundColor=none;endSize=2;strokeWidth=3;" parent="1" edge="1">
          <mxGeometry relative="1" as="geometry">
            <mxPoint x="7466.25" y="2793.59375" as="sourcePoint" />
            <mxPoint x="7408.75" y="2792.78515625" as="targetPoint" />
          </mxGeometry>
        </mxCell>
        <mxCell id="io7zwHNE9pA3boUVpFcz-149" value="&lt;font color=&quot;#ffffff&quot; style=&quot;font-size: 17px;&quot;&gt;0.7.7&lt;/font&gt;" style="text;strokeColor=none;align=center;fillColor=none;html=1;verticalAlign=middle;whiteSpace=wrap;rounded=0;" parent="1" vertex="1">
          <mxGeometry x="7340" y="2730" width="80" height="40" as="geometry" />
        </mxCell>
        <mxCell id="io7zwHNE9pA3boUVpFcz-150" value="" style="shape=image;verticalLabelPosition=bottom;labelBackgroundColor=default;verticalAlign=top;aspect=fixed;imageAspect=0;image=data:image/webp,UklGRrghAABXRUJQVlA4WAoAAAAQAAAA8gAACQEAQUxQSCsUAAABHAVt2zApf9hnh0FETABd/sIOMfaGbbdpOfr/jb0LcdKodnfQtq3YTtu2bdu23R2zjaraKTMuJ2XGTtVe94u91pxrjzFqPXwRERPgd9s/Re3//3vay9399a7crXr9F2+X0t+VW/nu/d26+7tyl5k1ZIMHDQESYkQggSy6u7ciMPf7zOyROiImgP5H/8bDg82gC1Ua53x3SHA562/nIJXClYh+c1AwOeMPYAHpfA+A6FcHBY8z/gCAMUqlbAOA6NeHBIuz/kDsqgSl6IcYwPnhqMAQGpYK98dJ6xFuAGadHAjCE7Lh3U+thEYv4M/hoc4u6ZIlMEwlvd80AQovTurMet6+CsbXK3aaGVBz386d1X4vrYV5R4pi4QYLYPMHR3RCobOmdsD2b9L8QysAqRckdy69b1wMH+9UbbwfQPPLh3QaodM+2QRfD1Ktxw5fAGTesAuTUK++x5wxfNLFV11z/U03XX/1FRdNGHbaUft049L/4RL4XEm6p/sF7Jh1Qc84dD1kxHXPfvFLcVM7fN5Wlz/v4yeuGNg/MQ573hqB/x8p94x/ALbMuWE/uz5n3PT2b6scsG0vnfvKNSd1twodenfEQTwvUm5kXGKXvjFpD49dRjwyeyVkOqVT7xvY0y18yFVf1SHefZXbJW6xzQunfv71L5WQHl0++4svZuZvBMOGkHJUwaHznUPaTw8iT6n3VBA5V72Lg8hR6p0SRLqrt0cAaSH1wx3Bo0g/agwev3YCy4LH951AQfD4vBOovT6+7gQGr4/Z+r25fH3k6/dVeH1uSlDvR14hOE69f3yNPKndN6Wvkfpeur3vCK/SaQmafVLglfp9F72+dYRX68I9tPruCK/YmqN1+tkUr9oNIxR689eh9bpZDDzPLzavM2lzVisEvp8vd2c60HGFOm//HtgvPbe7guKq5zrDDEmasngB1aeGk7/nAu5Q5q0/BXNLjsB67VQzYVkoLsHalWdMuF+Vt/4ArJEcQOOluLdt6EfQ2AhiFtyryJu/Dc6FeITmtXtl00kI3VfujgPX6/ErYIzlFAZu5MKW2wAmjosc0Sla/AAYOx0YehvY4S5haOmChq0n6/BdK1oqYpibn5l33YC5kU9D474afHIM8n0FRl+2TSs/wujcFitkJ8t76z9A7l/D8E1glpPC8LIGK7wt71dArs5hvjDJg/nNFVYYK+2oDam8ho3CHB82ri2zat5dVmIRqLUl7BSm+LBzTZUNfpR1D6j9BWx1zXBga1OTDcZJ6rvZ5v4C1u6qJhRgb8k2m5VdBX0Dy7QGi+/u9PWXFiHDBg/KOR62AjrTyWgw2epAWdtmAJ3zYbsz3uhAls3GFDELbJoJX985WQNAepZ3Ltjg6HLBXyje4WV65ntTtvUtFnhBynGwjHvQ2PehWPNjpqc7Pd1UAyqNPS/jQpUJOTabdhXyk42E3nB+CBj7PPD0tKFXHAJQb/Kg0AIPydi7w+LxSRNakQJQH7GkfR056HZUAGfJUuFY1CeJeAKWAtp9JUQ+BwoakrE2+EoYDDiQZYFJEkJVFo+RPtSVAMGBEV8A/feREuZVjiqbORJOhaWAgQUCJIfk6xkAVw3rMgMKLNp3FvC6RXJpwnpDgGCIllwtmHhEQNRmyLPApQJWWFRAbwxo6FEQ0hBwuQwBw4SCm3tatMViGr++sHRpSa/KUCXN7mghU/pA6683tC0JIQ3pFm1hdpdZpFOaB4+hQ4JPW694jkFv4oI2oyGgLbLA0ezesWiDHF/AoW2XNHRICHlcmg+UaDWG6zWpfYvFteyyLSQtAMa0EIx5muSp0YaAoEkGOCQUWLzLLbTOokCrA6iSShzJHanOE5HKAEYpZf7EMaKlWUS47QrLM9IlABynhAJYHdIq4RiC7AOAS3HA2iDlW9RxO9FilZLkC0i17pynQsKYI0dKZy+WNTUXvA6pwcJJZjbGog9ycQ+8Z4X8Ary7JanEIUg97N16CrEAsySh3Qz7MrvC4og224crb7WncgT2Y5LD4ZC8fUB4vGfpD8Ad0KotjmJ2q4VLuobisuZ75Rk0eiTBUSDJQ8Ak9ILGGvxV2lKLs5ndbiFJNRX9giQ5SiRfRXuXVmAxhNmdFoKUs8nhqJOKBp3RsiwGMbsuTp5J0oQGKTTokpZjcRaz8/UQJpRJeYPGtHyLw5kNs5CknEkOSXAUSI5BPVqhxR7MDrTwST2Tyia4JGlQmVZhtiORWXLUrEZKZwZNSR6HIB0Z5NLWmZUQ9wqzGxICc4YgNzg80mNqjkPaDPN57KaaISLlzZG0KUeLhKY5fdIKi6fZPWBRJW1mxjRJ1+BcxyRpzDnICy3GsjvNQpAgTemBnGNBj/SwMUXoSmGXuMEspN1sDPFpkkeS4BoSTWlNZvnEf5bZckOCNOM0oZ3yhLTrlRkC5GqYPyvgMjOUaI8PRpRBHoN3GZEgjLiKaOkWJwnos93MoyFngge6YEJA25yYUAG91KwiJICmmUURDa6+/pKhx1WgYfCsT4C+EuZPk8ThZvAYNnVdk0vQj8EdX9NwtNOVA2PEzOknIlxh1mfAvKVncgpGnw2CAfmdnsKOYfNGs7kk8xYzhAx4Luk4HYPxIuabRgwozXW4CRjTYT5ESPdWsxYHEpGyBQtwutAoODDqsK1ccG5dbZYVEkL3mSHHATT7PJMArINEx3TBgZ1Y8lSHYE2H+RiS2q3ebLxiQeKNaPciAm8JWiULcOOsaO0ieBu3mP0TEkNXm0HwACi5DyrzXH4H5hz0Jj0e4NGpJyp3bgPc+TA/ieSGs82SNheAYU5I33eE30vBfjfVhM6OCcCiLJ0gn/OE1wd/Nsw/I8nHR5UweuYzMoR2wWdk4wazthRR9JIacjYJ6E9LFu1YBvPLSHbXphqkPWFiAJ6G9mTCfGZIGH3bWg2BLe0IRo7ubUmHeePuJP6nCdvQjt4Mhp5M7ciAeXQQyX/zL9SwK9jQeYCxnXsbIrB8kDR8b14NsWteZQGDxyPz0mH5fUiFNz47VANkYpgT42CjWj9uNpuNerVcCouFQqFYqjYHk50SpkeGRTmwzO5GSn71hID6pUnPARQ9cM+ECiBik/ojWK5IITW/fUrA3DOnMoZqkW11pYbOwJhY7mBZ05cU/fYHAlDvmjHxob694xKg7uTSjOoI1JoDSNWfvaUg9c/1TUUEqmSaRCTg3t3q65ZBrjuCVP2qxfiMAsRBU8+ZfAZ9fcnjgfXOmeqplEAvaXlblTf/G7jvkAB05RXXk1dJwZpj6aY8wLZYXHON3DMwFm4CxmnykwDwHDIA6MpwRlnVRDUGe4OjDI3rI6e9pdwWvBFYF7YDaN1Dj8/NXyAVLC8nZVc4QT6fc6UsjBJobTKE0L0bFh3XyxcLOUcG1SmYO9Lg+pMef46DwYrJ7ICU9LWZuaYInhO0+AoUe0P7LjcUF1m4tB7e9b11eLusgsi3DpIQTTLASe2A6Ys6/CiI3sK2p6magP3NhTDffqAG7zmn4KpsGaTSJLJv4TrYztbgZ8DoPtu1O1dxYftNCB9PlfeBCQduAquQUzhJLUvkHH7+Je+XwVwe2oTmoRLsrvfAPFRalysubOXMovqBMqweB2D/R9pV0Pgk19Ygvyft2TSVW2g8WVZomQ7gytnaMtq9cGHvk5hD63RZo6H7Rq7tgAQQTayZijk0OwNEzYsbcCumVsxmgIClYxlB/4uS9osyAFbuwAI4mER2NPIJTGztKugJcK35G+PiUw8WPjk9mHqJnIRaNsBMtg1DLzUurfgrmPu7nBHgPRDnRhnfkTcw2tlHzGfMAHRFL5PShjiD8fdJSV7LD8C5DJfZMst5d7CxQMo4SN1URH2bDVFJNFPYOkDI12JerioivLfrMiebMWy+R0ZCm6i9l3lRGFuQDHIivIP1C2WcBiUX8j//x29NUhPiy7rz7/9aWSMbozuLeFYLOHgZ37RCTwonCGut0/PL2/vpw/3t1flJqxYGjpD+Uec2xcsysvI8EYVqyD0Gu5nxuYQUqJk3TWTGSgmT9eiY5mcG+gp4Q4+FafXsuExAvhr3MH2SHR/z6xVVo2EclplRzG8g1PTN62dGR3d2d+shzCtkBs5g950eefNEdtzKrkSPE/O87PiYW3dHjXRtXj07srgdAzVHMH+aHZtCzM7Xo2AB7jIDezN7TA9hQyU7BjL7To/ABpkd1zHL0OPUBjc7XmRWo8Y6saGZHd/xSuhQow0bV0lmRHjtAzVdKzDIjGpep+jh2BFkxvYQqzF6tOyQmYGdWF2qxnZrRy07DmZ1uxpt2LlMMuNMVk+qIS1BLzPGsXpTjYApSQ4lamsFNzMuZfWRGmOFrUoqcXjrq7RKCn5m3MbqKy0mUIyFgpNTgCwc6jVThXFm3M9qqhaBCoQ8IEaJylnU2je+86B6kxUPs5qrhaN0HYs9OfhQLtxevXgcDhKlICseZ7VAi74SfDgA2utBqtZGNwJ2VeSg7GbF06zmKXEP9bM4zeHhCnkQC8gDDtpQH2fFc6zmKBEQ4GJTK+MY1EEM4QFVAi4y4ilWs5XwKHfP2IEBDrBFCKqbEY+ymqHEDQUSQAD6bArEA1I+Ix5g9a0OPZC3I6wvGOACDsjzOBvuZvWRDoKGEiRYm49TGqrZcAOr13VoMEAueHoSjDIbLmL1jArTlMPkUTaMZXWfCi4s72fC2ayuUiG0TWTC0azGazDf2tbJhD1YnaqBD+uHGRBNYHWABkf2iQxoJtbdFXiI7RtlwGJe1CrPQQa27ZvLrEBeMwsc+95iNktcD1n4tLbuTmYvi5OZAN+6icyukbaZ7WnYU9lTte5wZmdK87HXCxVSX5+XKBT8PehbtiOJ2a7S2vtWF/1DXlFfwTs0uI72OZYtIe61so5xUIwf9skB9KdDuW8+ktgfze36kd18WcGhh2Vj88KBbwB8yBfJUXx5ANKuR9k9K+oiOQSJAEApGSUmJIM0BODAw+HrnVUj2E0QJaE4nUPg/BEBVNdqOxXkMR9BYjtWgGfVLux2l/SwUoEEZA8tKKdCRUC9gb4DSKie2lRG/CsFCShvRwBQU4PjHHIcQhMAJgslFCz6TsDXcqaRGioAciAup3KffIwI8AHkoX5i0Q0CrpQjQPWwvKJAwHnhQoA6iZADNWfPwQL6iblfkhaXAuTFLC0ClTiakiCuHkmD1Jb6kACqkOKA3t3QIBH1zx8hQN/2QPds+ZYkvitkFDOwrq5x3sd0wcA6iSy5QsQoIUUY6gOAA0OFHdEUEV03iyjB2AbQSUxZ3liRTjJnStgOzTnZJU0YG1hxr5ALJQgY7DgwuGLDgUJ6buE3Xplk9mhtXg5JncqvjMwW5t0hZhw7F9kdd0yL7ikmsZHZ1TzDcLIx7FeS+yKzCjJdGjZZ0IG8JLI9rRhVlyiIFnBqbTMOkweTHifJoxg9jWH7sTaUUnPa9xYVLuFTBGtRKa8tX1SKWSDM+ZxkX8lGgNfJKbiOtrTbV3ASHhRNcQ4TllTNJA/m+UP7QHn6rA3ueHpACjA/9w2ZSdJv4dFcccGZXO8ZPQno311Ukj3+dsKFy1szThbXpZrD2QPYbza9BYDFcHlvADzIF9WtB/52ZMJMkn8Fg8kYGh1U10AIAROTETxg+IS+BpS3+qKHKZCwNG5rKhHPtmccrQVmj0pRyoUsbF+2rhrZiGtOR9w+IQ1HxmtNGeIrgT4gobyTCsszMyxDSzGcyvggKxqnzfuqQLPj01aOOG9HAPqxGqR7YFFaWCwGgAjind0enwdIxwHb4lFXjbhXAFRAfFrIPc9NCdscYH1b3JC/JR7Lk5WgR+JQ0gyGLgKQJQSAdTUek2q3IgKGS9fEYRBpmVTkW+5mcHzu3tLmU7hAHi7oeRlgWbPSty9Iz+M6fEoF0xUYJZIjic0lA9v1eT5V91GEnvBlTR4Eb8+wBAQsdlIdXwaTpokRH7LrILoI4HZhE/Bjow+vk65919pEn048sVgUyoAHq19NTplplddVGZpgUXIqESU91i5pENdg85rxRBS6uM2srR+p+4TJtie6kuuxiwVBnprkRBpr09ebZPQl192+MnFGkL7h2V7T9yfvLi85RhlF5RlNfMyOAEBtg4fzXBJ5n5HndS9p3KvA5fdTyHxgtUEGAJQ7Kq2KQdl2l6qzyTh8fonLO6TzniuBuaeTdZ9vPFLhWqxLbnougDa4pwFw3ulJtgnn5wHTE5Wig986lHw9b3VMzQ63VABlqZF2HbIAFG7CUo9tjcg9mfwMnTYuTJ3tXvMAZMA9AqQ5QJYK29sAoLg93wO/XhSmwBi6Ym1Dh0cO0hBbJKo6ElkGIA+uaVleaxIpSO41FZ5Lsx2XTAAb0nICKzbUAUgHUt1Q7IVTAwUt8dq6Ha7NQG0dgIINaYjNQK6H6e2BopfjZdi6vhoAbrfmdax32Vpe5sN7geIk+FiYDdfQvFK412z2YVqgmOxHOdyFeTkevs4JFJf64e2alxGP7wLFlHj45uX68b7Hi4HiKI/CNT445pX4MfFzt7GBIlznsu6ARh+EeVuiPozqWRizLDFQ0O0xO0bQKh9881Yu9cqOepxIu8wH6o+kYJkwC2gaSVTosdLgN+TCIGfxJ1f1p0e8Pn7FzelDREeO7klBM2nQsG5E9KNbzSVe/TffeOtrv/fX/qEW6Vqd+cmtZ/Wi2H3aPT7qmu8SoWB7jUv7mcO9fvGNg29+4Ss/9Ku/+zf/Vxk+7g4ls+olf/3w1r3nn5pCxl97vER7l8YMDzjdqwBEL6PjPO4/dEj9nQ9+/BOf/OSH3v3mGz733+J2LdHOH29rvZSC7iGLkTeQqFfU7WaSeYOL05+IqHsyBd9wH4qNuPwaFkKPxnxCQXtETGpvEjvwl5KnkgMXXbiy8s4k+lc7FKL/Tw0AVlA4IGYNAADwVACdASrzAAoBPm0wlUikIqIhIhD8uIANiWdu/EMTw4i/+O4ABAgPwr/TPUAPwA/UCAAPwAu1FP/duRz2q8CZP/y1/qPtr9+/+A9gHmAfof0nfMB+vnUN9AD9Vf//2AHoAfst6Wn7M/BX+4H7q+0N//9Yt8xf578fPCX/U+e/WX9eOYY85+K89fYjwAnV9oF3n7+jUvVMaAf5j/WX8Zvlg+mPQB9Q/s/8Bv8v/wPVv/cz2O/1a//5oyjyNmo0ItVEC71oCZtkSuTBW2VDalKYvz54OuQZTmXI/pRfASRVm4TzvyfFwTz27RPb/ZrZv9nHPY5n/Hp+aNclI1TV0BTqDulojeuxrjiggSkw+DRcVSun4UwNSj2+SwPz7Wqjrgy2Bszyq6MP7YI+clzYaXU5PV1FZVxQLuaq57LGLKqbY8jusORA/NJMYB3FmTxyE0nH7cSkEUP7mOaIK/lxVTa2jvQEMRI62Rb0TldzXYEq2vgnXTgBUglAyZiCZsGadq4GQNmoJpuypsBEv696gMWj6hkK5x+JFbMMchUbJB5HtIiFNr5RbqIMAZT5MX+CM5XSM/Pj9mnbbjxdbdZuJYwjAzpXoaQQ5MUZvUFT3qBJKxAWykUG78CyNJs0KrKSlIrLd6B8S/df9WEmXBifIISbYR9MhTdJLjAXElPKUaLGWfL4FX4JB9FOV8pn3X3H3v3uFCCoqZ4XVPzVo4n9juwtjJGGiKes+rTdJp1gVJC3tEV2/XjT/dQ17aVnwU/cJO4E4cbUD807Vjp8S/R8W7bUmsLyh3MAXjLKmPEmoP5v1RS00KsY+2HMbEKWpdX/R7zErBmbCIfYEUXWTVhEVn4QsGP0nCcyqrowgsuzuokN0I7GHaLs3AJavZh+XgMBk+2Zfa6qx7Zj9X3J8V3bcbAAAP4UBJFF1Xgm0jWmf5cdPTQMCh/dSACc4L2lrMkjvZF0AOHVeLEG/kksWnWRvCN5YI663gUH1oO5+3KIPmPB1wPi7GloSeVXOQ2J0mtvmYmQB+kNEg3svxdTU3ixXTPKW1NuUBXw9n+v5+JQYXSP3XA2qyKzhdwHztrNQ6PDszYrE+/znRXIPInRWHVWXn4HjT/ibt4TKoNn48iEgiK5+HiCNAVqf4Eb/HUaGJUYMpgZ64pTMQ31pFkC/VXUddFccROdxMd7MFTb1sv2aT4jEtcaEuBqUagnkn+sYjJnE1Hd+7MVRyyl5/EXP3RXwgmvFOmARiDGRnKIp8fi5rszBva9g3VkqEIe2xyaAaFhEyEJCWd0HerhSR0hNcpeBXwswRJzkxFMYcVyYHpxZi2c4f024P+5cfwu0cH6Q5wmF3Ci+ObhF+N70PJtUMQddF8ht03cNSkLCaUDqw0m38N3c17GL433rC9L+B2qIQCqusl9HoULAvznnibnBR80u5/9Xe+wHYMT/EB1HP67rq+iucf+IcTc5pqNJ8JujeI0zGYPKNBZUqWtLseSipiL9L+t9Y8n7taArbRzA8YsHzUT1bEdkOzpJJ9Ih5PQ4qzAza/TNs0U/WI1Tq2YXBzcGhzGKkpgfh7UCBEB791A5s44/CBH74YrNMFgl3TYPdzYC/Qkspf6w0+mvQrazIEtQyMS2uthmRi0moD2ZgXlPM3eII4F3vx3L53J2jj4jMn7tlUrvjantSECA/euufmfq+l7U81j47Zw2a/k8PUsI69Yra3+bpZsEn73ETWImlSzhXaMKcudYf8bE8mHfGjT9Y7dITnnx2JvRl4ptIBIT3yvmUumH9xyHuY6FFmj5KSOk5M7+dWAnmCin9vPx8S8ydC6xF2yu3gIc2InbwHqkZ4gqSXNBZyHhcuxTXf9PsGQweAv4j/JS0PROfS+R7KTwf959LU8QSvGPd2/yN8DLl5bJTBk3pgkiCJJQYwhx+uw+AHfV/GOszm/l+VCxbaS1ny73Fxq4X8qziBd1/UC39+v9ysNgfl1lwV/OLPT2xICBI2uRJfdhwuRxn8/F3UFzjzTqZjSLK7Jt9rt2ho/IqVnUXyN9hvLy9WRGLiBV66rBaXHeBKhF4s/FLetwvzmJhlii4ZybL1oo4ap1B7Gnc9JqbuhqBxQ3e7qMb0FIT/euEW3z5KfwPOlCXWR9Y89urhoF5U7XlOuixnAS8ZMZIByM3FdvO13+gAjBMkzWeeuEUOyNnBB2Da38DJiNfZ25t9Yyj3jKFOJ8ZPIzoqMUnMBez6OoKNLmAg3hmi3JF0I1zIdkPwyJNYJymUlal7d82doDQgffm6fTfuHhDyn28WhAPuGottNX5T1vUKW0baRNvzBmdTbCT/fUqjxFaneKzX3A6/JkTdGEzK2ZR/A+TDTwgH9qyq+GQwzFZ6x9TNW7eeY1ulDDTdnxHhuL5MOuKsCkIq/ccSyh5Z1vecy4j3dkv3dEU4hTI1cOgciwQrsjbrbVoGvE5qi87u3WL6m9JT9BvT1rRQLLTuVsUgixOWgQoYdDBTFz7aCSH6OOrktmJY7zH64ywQQENrec+yoNAddWG3qdL4uh7+RSe5PQj+gfAGDx0weN8LMVbQIuLjUFB1k+KnD+O9ZyAqE72TjnX/BijDzS//xZfaqniAM6J63Ay3d6kfHsLIOa/NjZ88WKHsPYJi2xL9WLi3wfBShR6rBO0WtsdeFuLn+JUuvBIRsOUWnwhq4DqKTK9FlMNdjsIu1VGjoPYNHb5N64oAvhyeMafjuAVfNvwRbSGhkt1dO7Jd53T82px2pB2PMCRUOuoXe5I+5HX+pgQoyq3lxR3a4dN6vy1DDnmofPRX+GwZ4rA0Hehb75OWDhfDZOAsUXw8oBf9gZRPM/AlnZVVkJ6yGzv5DmW8iRWRhND7fGhvhc20IhtlVk2j2+7CrX3KMs5Ic3tWNHxPRsi2QNaEf6n9YvsTimOCdcfIt56bPtb1+CgiTGExBDvuiCW6/aKG+z2pz7yP+m7BbEYMq20MdZnfxLNr9MxdLtDcJ8EOP9czhztyvmVckvRArDeKkf51L8egycMqN3b3r2wnCFT8/S4Vw0dBEIEnraySSYo0qHhmGPyC2lmu3q6d2SmvDnnemHYndYwl00VU1sPc/LqZ9sDsv1csRlBDv5ox41OKwrcGS5QxHU4NWK4n/lzz6VQZk/DXQeoP9B0rlCpvkyy7ehzliejHjYi6kf6Rqo+z4TyGJyfQdoOmITTqFFJFm5Qx8usICPxjPsyNtAve9oEDX6gRjS02JEUKvKS6mJ11CemdyjBYnya1ccb27ndjKdcUwwjwYZGZa7pysepUo21XPVAQ76Gglk6CNEMhkEb5bdtn9q2OfoXSD2D63D8j62BrpNVVcK2rj38pb73JPIHhGwKv41PcPGIlqDlg+XDIg6YAMdeitUxZhO4x0eEDpjyvDiFB5i5yiFSIkIQu62CDBFLOlfFKyvuWWmqt4U4TW/H43mUjvkZNnRljWusqDt7IrBXKGuXU/is8QacS0dN4kTCyY9tbog8Cvp5WgRgFujOeKagNAtJ+AJO+qYj2ru3voeHyYxf1YbQJ8v4bwCros6XFuvowWd1X3hAZGJ92rWDd0HmMeMMvdQY0+G+CFVptdxO6D4NCjSfKsxFO4VOfErkjiV6Qq5NR+Rv7C6yQGTYMMXj7ieAzrsI1RfU0QD4xLq4FFzYDWcFRBII4oYSOrhzQsvfgu4F21HmCE4QxnNkTwBPvr4loL0AKgisBhbEg5SZHe3fNAjkf1EgCaFu1Ii/QpzG61HVTIAAcAACsXsELzyneyKt4QvFnomjq0vVuqYgSp8Tyu8PmdDFKL0jTx2TiaRPQFgPDXw1h68FeqHEycsbZC/JckAC6AgvOFff/4hwPoAxaACbv+n3QttVHvvlci002kOaE4XQ8JtsGBM/f/hGbylZHoRRR+wM51fhvKHGMMWrj14Etp1wDqy65H9zW4JGQvhGwxlOgsHL+c4MX2ADp5VDwqESksPmP1rxW4c4jFBpLoyRsbpESkAstFzaciWi9Dy6Um1QlEn5HkyVcuW9WmdEZLZu92yO8APaI5OOIVIYi2k1PmL7/0AKNdgpCqLyzNOOZVAC2faQj5L6Qhw7Imvi0C9kdOe+cnZ/LlZNPRDe6F09Cusg13KNpwmsSpNcvRx6KjJ/YCPp6Gqr78eKN36kzU6bfA4MF5yarEV3alT87IzvJY/m9Nbz9/BawnCSgJ4LK3Nm4Wlt8rj1AtVS8sTQiUFhrQBxDwQOnbhDG+SZV1LxNT/S1bJIl77Kv+e/RTvIgv97+tVXIxdC1RDq6BkCl5h94E+Dn/94HfzvnBvErNXbJLPONJWi4p8Njn+L/XN/svkXFhVBCyoT/Kqjtb/gvqcj7YNFNKaUz77ZUCjllArywwviCXNd+ID4ddz79DstByqqBmMuVdul2hJCcHwe79EY9WHdBtMAsy///Q9HBxC3ORN+6Fs+TAPM6iEtR7I6gPp2mN/OU/JpC5FYi6H05Ah5kxQTw6ygs878bjpROTQw4pywThv4nkH8+V8l//+gx20OTEnP5fs/1TZH2uJElpQiLQ11EOk/VWSk/7pHy9MvgvGcyfEoIitIAmzzaQQAAA;" parent="1" vertex="1">
          <mxGeometry x="6990" y="2475" width="82.22" height="90" as="geometry" />
        </mxCell>
        <mxCell id="io7zwHNE9pA3boUVpFcz-151" value="" style="rounded=0;whiteSpace=wrap;html=1;fillColor=#99CCFF;fontColor=#ffffff;strokeColor=#006EAF;strokeWidth=0;" parent="1" vertex="1">
          <mxGeometry x="6470" y="2946.13" width="1010" height="437.75" as="geometry" />
        </mxCell>
        <mxCell id="io7zwHNE9pA3boUVpFcz-152" value="" style="image;sketch=0;aspect=fixed;html=1;points=[];align=center;fontSize=12;image=img/lib/mscae/Docker.svg;" parent="1" vertex="1">
          <mxGeometry x="6500" y="2970" width="131.41" height="107.75" as="geometry" />
        </mxCell>
        <mxCell id="io7zwHNE9pA3boUVpFcz-153" value="&lt;font style=&quot;&quot;&gt;&lt;font style=&quot;font-size: 24px;&quot;&gt;flexing-gw-app3-gw-uvc&lt;/font&gt;&lt;br&gt;&lt;/font&gt;&lt;font color=&quot;#000000&quot;&gt;&lt;span style=&quot;font-size: 20px;&quot;&gt;uvclab/flexing-gw-app3:3.1.16&lt;/span&gt;&lt;/font&gt;" style="rounded=1;whiteSpace=wrap;html=1;fillColor=#1ba1e2;fontColor=#ffffff;strokeColor=#006EAF;" parent="1" vertex="1">
          <mxGeometry x="6495" y="2720" width="387.5" height="130" as="geometry" />
        </mxCell>
        <mxCell id="io7zwHNE9pA3boUVpFcz-154" value="" style="endArrow=none;html=1;rounded=0;align=center;verticalAlign=top;endFill=0;labelBackgroundColor=none;endSize=2;strokeWidth=3;" parent="1" edge="1">
          <mxGeometry relative="1" as="geometry">
            <mxPoint x="6882.5" y="2784.75" as="targetPoint" />
            <mxPoint x="6882.5" y="2784.75" as="sourcePoint" />
          </mxGeometry>
        </mxCell>
        <mxCell id="io7zwHNE9pA3boUVpFcz-155" value="" style="endArrow=none;html=1;rounded=0;align=center;verticalAlign=top;endFill=0;labelBackgroundColor=none;endSize=2;strokeWidth=3;" parent="1" edge="1">
          <mxGeometry relative="1" as="geometry">
            <mxPoint x="6882.5" y="2784.75" as="targetPoint" />
            <mxPoint x="6882.5" y="2784.75" as="sourcePoint" />
          </mxGeometry>
        </mxCell>
        <mxCell id="io7zwHNE9pA3boUVpFcz-156" value="" style="endArrow=none;html=1;rounded=0;align=center;verticalAlign=top;endFill=0;labelBackgroundColor=none;endSize=2;strokeWidth=3;" parent="1" edge="1">
          <mxGeometry relative="1" as="geometry">
            <mxPoint x="6495" y="2785.09375" as="sourcePoint" />
            <mxPoint x="6440" y="2785" as="targetPoint" />
          </mxGeometry>
        </mxCell>
        <mxCell id="io7zwHNE9pA3boUVpFcz-157" value="&lt;font color=&quot;#ffffff&quot; style=&quot;font-size: 17px;&quot;&gt;3.1.16&lt;/font&gt;" style="text;strokeColor=none;align=center;fillColor=none;html=1;verticalAlign=middle;whiteSpace=wrap;rounded=0;" parent="1" vertex="1">
          <mxGeometry x="6802.5" y="2720" width="80" height="40" as="geometry" />
        </mxCell>
        <mxCell id="io7zwHNE9pA3boUVpFcz-158" value="&lt;font style=&quot;&quot;&gt;&lt;span style=&quot;font-size: 24px;&quot;&gt;mosquitto&lt;/span&gt;&lt;br&gt;&lt;/font&gt;&lt;font color=&quot;#000000&quot;&gt;&lt;span style=&quot;font-size: 20px;&quot;&gt;eclipse-mosquitto&lt;/span&gt;&lt;/font&gt;" style="rounded=1;whiteSpace=wrap;html=1;fillColor=#1ba1e2;fontColor=#ffffff;strokeColor=#006EAF;" parent="1" vertex="1">
          <mxGeometry x="7021.25" y="2970" width="387.5" height="130" as="geometry" />
        </mxCell>
        <mxCell id="io7zwHNE9pA3boUVpFcz-159" value="" style="endArrow=none;html=1;rounded=0;align=center;verticalAlign=top;endFill=0;labelBackgroundColor=none;endSize=2;strokeWidth=3;" parent="1" edge="1">
          <mxGeometry relative="1" as="geometry">
            <mxPoint x="7408.75" y="3034.75" as="targetPoint" />
            <mxPoint x="7408.75" y="3034.75" as="sourcePoint" />
          </mxGeometry>
        </mxCell>
        <mxCell id="io7zwHNE9pA3boUVpFcz-160" value="" style="endArrow=none;html=1;rounded=0;align=center;verticalAlign=top;endFill=0;labelBackgroundColor=none;endSize=2;strokeWidth=3;" parent="1" edge="1">
          <mxGeometry relative="1" as="geometry">
            <mxPoint x="7408.75" y="3034.75" as="targetPoint" />
            <mxPoint x="7408.75" y="3034.75" as="sourcePoint" />
          </mxGeometry>
        </mxCell>
        <mxCell id="io7zwHNE9pA3boUVpFcz-161" value="" style="endArrow=none;html=1;rounded=0;align=center;verticalAlign=top;endFill=0;labelBackgroundColor=none;endSize=2;strokeWidth=3;" parent="1" edge="1">
          <mxGeometry relative="1" as="geometry">
            <mxPoint x="7466.25" y="3033.59375" as="sourcePoint" />
            <mxPoint x="7408.75" y="3032.78515625" as="targetPoint" />
          </mxGeometry>
        </mxCell>
        <mxCell id="io7zwHNE9pA3boUVpFcz-163" value="&lt;font style=&quot;&quot;&gt;&lt;span style=&quot;font-size: 24px;&quot;&gt;postgres-gw-uvc&lt;/span&gt;&lt;br&gt;&lt;/font&gt;&lt;font color=&quot;#000000&quot;&gt;&lt;span style=&quot;font-size: 20px;&quot;&gt;uvclab/postgres:11.4_uvc&lt;/span&gt;&lt;/font&gt;" style="rounded=1;whiteSpace=wrap;html=1;fillColor=#1ba1e2;fontColor=#ffffff;strokeColor=#006EAF;" parent="1" vertex="1">
          <mxGeometry x="7021.25" y="3170" width="387.5" height="130" as="geometry" />
        </mxCell>
        <mxCell id="io7zwHNE9pA3boUVpFcz-164" value="" style="endArrow=none;html=1;rounded=0;align=center;verticalAlign=top;endFill=0;labelBackgroundColor=none;endSize=2;strokeWidth=3;" parent="1" edge="1">
          <mxGeometry relative="1" as="geometry">
            <mxPoint x="7408.75" y="3234.75" as="targetPoint" />
            <mxPoint x="7408.75" y="3234.75" as="sourcePoint" />
          </mxGeometry>
        </mxCell>
        <mxCell id="io7zwHNE9pA3boUVpFcz-165" value="" style="endArrow=none;html=1;rounded=0;align=center;verticalAlign=top;endFill=0;labelBackgroundColor=none;endSize=2;strokeWidth=3;" parent="1" edge="1">
          <mxGeometry relative="1" as="geometry">
            <mxPoint x="7408.75" y="3234.75" as="targetPoint" />
            <mxPoint x="7408.75" y="3234.75" as="sourcePoint" />
          </mxGeometry>
        </mxCell>
        <mxCell id="io7zwHNE9pA3boUVpFcz-166" value="" style="endArrow=none;html=1;rounded=0;align=center;verticalAlign=top;endFill=0;labelBackgroundColor=none;endSize=2;strokeWidth=3;" parent="1" edge="1">
          <mxGeometry relative="1" as="geometry">
            <mxPoint x="7466.25" y="3233.59375" as="sourcePoint" />
            <mxPoint x="7408.75" y="3232.78515625" as="targetPoint" />
          </mxGeometry>
        </mxCell>
        <mxCell id="io7zwHNE9pA3boUVpFcz-167" value="&lt;font color=&quot;#ffffff&quot; style=&quot;font-size: 17px;&quot;&gt;11.4&lt;/font&gt;" style="text;strokeColor=none;align=center;fillColor=none;html=1;verticalAlign=middle;whiteSpace=wrap;rounded=0;" parent="1" vertex="1">
          <mxGeometry x="7340" y="3170" width="80" height="40" as="geometry" />
        </mxCell>
        <mxCell id="io7zwHNE9pA3boUVpFcz-173" style="edgeStyle=orthogonalEdgeStyle;rounded=0;orthogonalLoop=1;jettySize=auto;html=1;exitX=0.75;exitY=0;exitDx=0;exitDy=0;strokeWidth=5;endArrow=none;endFill=0;strokeColor=#666666;" parent="1" edge="1">
          <mxGeometry relative="1" as="geometry">
            <mxPoint x="5139.89" y="2018" as="targetPoint" />
            <mxPoint x="7605.7025" y="2546.75" as="sourcePoint" />
            <Array as="points">
              <mxPoint x="7605.89" y="2068" />
              <mxPoint x="5139.89" y="2068" />
            </Array>
          </mxGeometry>
        </mxCell>
        <mxCell id="io7zwHNE9pA3boUVpFcz-168" value="&lt;span style=&quot;border-color: var(--border-color); text-align: left;&quot;&gt;&lt;b style=&quot;&quot;&gt;&lt;font style=&quot;border-color: var(--border-color); font-size: 19px;&quot;&gt;port: 8080&lt;/font&gt;&lt;/b&gt;&lt;/span&gt;" style="html=1;rounded=0;strokeWidth=3;" parent="1" vertex="1">
          <mxGeometry x="7470" y="2548.75" width="183.75" height="40" as="geometry" />
        </mxCell>
        <mxCell id="io7zwHNE9pA3boUVpFcz-169" value="&lt;span style=&quot;border-color: var(--border-color); text-align: left;&quot;&gt;&lt;b style=&quot;&quot;&gt;&lt;font style=&quot;border-color: var(--border-color); font-size: 19px;&quot;&gt;port: 3040&lt;/font&gt;&lt;/b&gt;&lt;/span&gt;" style="html=1;rounded=0;strokeWidth=3;" parent="1" vertex="1">
          <mxGeometry x="7460" y="2775" width="183.75" height="40" as="geometry" />
        </mxCell>
        <mxCell id="io7zwHNE9pA3boUVpFcz-170" value="&lt;span style=&quot;border-color: var(--border-color); text-align: left;&quot;&gt;&lt;b style=&quot;&quot;&gt;&lt;font style=&quot;border-color: var(--border-color); font-size: 19px;&quot;&gt;port: 443&lt;/font&gt;&lt;/b&gt;&lt;/span&gt;" style="html=1;rounded=0;strokeWidth=3;" parent="1" vertex="1">
          <mxGeometry x="6256.25" y="2765" width="183.75" height="40" as="geometry" />
        </mxCell>
        <mxCell id="io7zwHNE9pA3boUVpFcz-171" value="&lt;span style=&quot;border-color: var(--border-color); text-align: left;&quot;&gt;&lt;b style=&quot;&quot;&gt;&lt;font style=&quot;border-color: var(--border-color); font-size: 19px;&quot;&gt;port: 1883&lt;/font&gt;&lt;/b&gt;&lt;/span&gt;" style="html=1;rounded=0;strokeWidth=3;" parent="1" vertex="1">
          <mxGeometry x="7460" y="3010" width="183.75" height="40" as="geometry" />
        </mxCell>
        <mxCell id="io7zwHNE9pA3boUVpFcz-172" value="&lt;span style=&quot;border-color: var(--border-color); text-align: left;&quot;&gt;&lt;b style=&quot;&quot;&gt;&lt;font style=&quot;border-color: var(--border-color); font-size: 19px;&quot;&gt;port: 5432&lt;/font&gt;&lt;/b&gt;&lt;/span&gt;" style="html=1;rounded=0;strokeWidth=3;" parent="1" vertex="1">
          <mxGeometry x="7460" y="3215" width="183.75" height="40" as="geometry" />
        </mxCell>
        <mxCell id="io7zwHNE9pA3boUVpFcz-113" value="" style="outlineConnect=0;dashed=0;verticalLabelPosition=bottom;verticalAlign=top;align=center;html=1;shape=mxgraph.aws3.internet_3;fillColor=#D2D3D3;gradientColor=none;" parent="1" vertex="1">
          <mxGeometry x="6070" y="2030.25" width="89.5" height="60.25" as="geometry" />
        </mxCell>
        <mxCell id="io7zwHNE9pA3boUVpFcz-68" value="" style="outlineConnect=0;dashed=0;verticalLabelPosition=bottom;verticalAlign=top;align=center;html=1;shape=mxgraph.aws3.internet_3;fillColor=#D2D3D3;gradientColor=none;" parent="1" vertex="1">
          <mxGeometry x="5390" y="2030.25" width="89.5" height="60.25" as="geometry" />
        </mxCell>
        <mxCell id="io7zwHNE9pA3boUVpFcz-174" value="b" style="rounded=0;whiteSpace=wrap;html=1;dashed=1;dashPattern=1 1;strokeWidth=8;strokeColor=#999999;fillColor=#E6E6E6;" parent="1" vertex="1">
          <mxGeometry x="7690" y="2180.25" width="1070" height="1280" as="geometry" />
        </mxCell>
        <mxCell id="io7zwHNE9pA3boUVpFcz-175" value="&lt;span style=&quot;font-size: 30px;&quot;&gt;&lt;b&gt;UVC 홈페이지 서버&lt;/b&gt;&lt;/span&gt;" style="text;strokeColor=none;align=center;fillColor=none;html=1;verticalAlign=middle;whiteSpace=wrap;rounded=0;" parent="1" vertex="1">
          <mxGeometry x="7770" y="2205.5" width="420" height="30" as="geometry" />
        </mxCell>
        <mxCell id="io7zwHNE9pA3boUVpFcz-176" value="" style="image;html=1;image=img/lib/clip_art/computers/Virtual_Machine_128x128.png" parent="1" vertex="1">
          <mxGeometry x="7720" y="2190.5" width="50" height="60" as="geometry" />
        </mxCell>
        <mxCell id="io7zwHNE9pA3boUVpFcz-178" value="" style="rounded=0;whiteSpace=wrap;html=1;fillColor=#99CCFF;fontColor=#ffffff;strokeColor=#006EAF;strokeWidth=0;" parent="1" vertex="1">
          <mxGeometry x="7720" y="2472.5" width="1010" height="437.75" as="geometry" />
        </mxCell>
        <mxCell id="io7zwHNE9pA3boUVpFcz-180" value="&lt;font style=&quot;&quot;&gt;&lt;span style=&quot;font-size: 24px;&quot;&gt;Apache Server2.4&lt;/span&gt;&lt;/font&gt;" style="rounded=1;whiteSpace=wrap;html=1;fillColor=#1ba1e2;fontColor=#ffffff;strokeColor=#006EAF;" parent="1" vertex="1">
          <mxGeometry x="8271.25" y="2740.25" width="387.5" height="130" as="geometry" />
        </mxCell>
        <mxCell id="io7zwHNE9pA3boUVpFcz-181" value="" style="endArrow=none;html=1;rounded=0;align=center;verticalAlign=top;endFill=0;labelBackgroundColor=none;endSize=2;strokeWidth=3;" parent="1" edge="1">
          <mxGeometry relative="1" as="geometry">
            <mxPoint x="8658.75" y="2805" as="targetPoint" />
            <mxPoint x="8658.75" y="2805" as="sourcePoint" />
          </mxGeometry>
        </mxCell>
        <mxCell id="io7zwHNE9pA3boUVpFcz-182" value="&lt;font style=&quot;&quot;&gt;&lt;span style=&quot;font-size: 24px;&quot;&gt;Windows_exporter&lt;/span&gt;&lt;/font&gt;&lt;font style=&quot;font-size: 20px;&quot;&gt;&lt;span style=&quot;border-color: var(--border-color); color: rgb(0, 0, 0); text-align: left;&quot;&gt;&lt;br&gt;&lt;/span&gt;&lt;/font&gt;" style="rounded=1;whiteSpace=wrap;html=1;fillColor=#1ba1e2;fontColor=#ffffff;strokeColor=#006EAF;" parent="1" vertex="1">
          <mxGeometry x="8271.25" y="2510.25" width="387.5" height="130" as="geometry" />
        </mxCell>
        <mxCell id="io7zwHNE9pA3boUVpFcz-183" value="" style="endArrow=none;html=1;rounded=0;align=center;verticalAlign=top;endFill=0;labelBackgroundColor=none;endSize=2;strokeWidth=3;" parent="1" edge="1">
          <mxGeometry relative="1" as="geometry">
            <mxPoint x="8658.75" y="2570" as="targetPoint" />
            <mxPoint x="8658.75" y="2570" as="sourcePoint" />
          </mxGeometry>
        </mxCell>
        <mxCell id="io7zwHNE9pA3boUVpFcz-184" value="&lt;font color=&quot;#ffffff&quot; style=&quot;font-size: 17px;&quot;&gt;v0.22.0&lt;/font&gt;" style="text;strokeColor=none;align=left;fillColor=none;html=1;verticalAlign=middle;whiteSpace=wrap;rounded=0;" parent="1" vertex="1">
          <mxGeometry x="8590" y="2510.25" width="80" height="40" as="geometry" />
        </mxCell>
        <mxCell id="io7zwHNE9pA3boUVpFcz-185" value="" style="endArrow=none;html=1;rounded=0;align=center;verticalAlign=top;endFill=0;labelBackgroundColor=none;endSize=2;strokeWidth=3;" parent="1" edge="1">
          <mxGeometry relative="1" as="geometry">
            <mxPoint x="8660" y="2578.75" as="targetPoint" />
            <mxPoint x="8660" y="2578.75" as="sourcePoint" />
          </mxGeometry>
        </mxCell>
        <mxCell id="io7zwHNE9pA3boUVpFcz-186" value="" style="endArrow=none;html=1;rounded=0;align=center;verticalAlign=top;endFill=0;labelBackgroundColor=none;endSize=2;strokeWidth=3;" parent="1" edge="1">
          <mxGeometry relative="1" as="geometry">
            <mxPoint x="8717.5" y="2577.59375" as="sourcePoint" />
            <mxPoint x="8660" y="2576.78515625" as="targetPoint" />
          </mxGeometry>
        </mxCell>
        <mxCell id="io7zwHNE9pA3boUVpFcz-187" value="" style="endArrow=none;html=1;rounded=0;align=center;verticalAlign=top;endFill=0;labelBackgroundColor=none;endSize=2;strokeWidth=3;" parent="1" edge="1">
          <mxGeometry relative="1" as="geometry">
            <mxPoint x="8658.75" y="2805" as="targetPoint" />
            <mxPoint x="8658.75" y="2805" as="sourcePoint" />
          </mxGeometry>
        </mxCell>
        <mxCell id="io7zwHNE9pA3boUVpFcz-188" value="" style="endArrow=none;html=1;rounded=0;align=center;verticalAlign=top;endFill=0;labelBackgroundColor=none;endSize=2;strokeWidth=3;" parent="1" edge="1">
          <mxGeometry relative="1" as="geometry">
            <mxPoint x="8716.25" y="2803.84375" as="sourcePoint" />
            <mxPoint x="8658.75" y="2803.03515625" as="targetPoint" />
          </mxGeometry>
        </mxCell>
        <mxCell id="io7zwHNE9pA3boUVpFcz-189" value="&lt;font color=&quot;#ffffff&quot; style=&quot;font-size: 17px;&quot;&gt;2.4&lt;/font&gt;" style="text;strokeColor=none;align=center;fillColor=none;html=1;verticalAlign=middle;whiteSpace=wrap;rounded=0;" parent="1" vertex="1">
          <mxGeometry x="8590" y="2740.25" width="80" height="40" as="geometry" />
        </mxCell>
        <mxCell id="io7zwHNE9pA3boUVpFcz-191" value="" style="rounded=0;whiteSpace=wrap;html=1;fillColor=#99CCFF;fontColor=#ffffff;strokeColor=#006EAF;strokeWidth=0;" parent="1" vertex="1">
          <mxGeometry x="7720" y="2956.38" width="1010" height="437.75" as="geometry" />
        </mxCell>
        <mxCell id="io7zwHNE9pA3boUVpFcz-194" value="" style="endArrow=none;html=1;rounded=0;align=center;verticalAlign=top;endFill=0;labelBackgroundColor=none;endSize=2;strokeWidth=3;" parent="1" edge="1">
          <mxGeometry relative="1" as="geometry">
            <mxPoint x="8132.5" y="2795" as="targetPoint" />
            <mxPoint x="8132.5" y="2795" as="sourcePoint" />
          </mxGeometry>
        </mxCell>
        <mxCell id="io7zwHNE9pA3boUVpFcz-195" value="" style="endArrow=none;html=1;rounded=0;align=center;verticalAlign=top;endFill=0;labelBackgroundColor=none;endSize=2;strokeWidth=3;" parent="1" edge="1">
          <mxGeometry relative="1" as="geometry">
            <mxPoint x="8132.5" y="2795" as="targetPoint" />
            <mxPoint x="8132.5" y="2795" as="sourcePoint" />
          </mxGeometry>
        </mxCell>
        <mxCell id="io7zwHNE9pA3boUVpFcz-199" value="" style="endArrow=none;html=1;rounded=0;align=center;verticalAlign=top;endFill=0;labelBackgroundColor=none;endSize=2;strokeWidth=3;" parent="1" edge="1">
          <mxGeometry relative="1" as="geometry">
            <mxPoint x="8658.75" y="3045" as="targetPoint" />
            <mxPoint x="8658.75" y="3045" as="sourcePoint" />
          </mxGeometry>
        </mxCell>
        <mxCell id="io7zwHNE9pA3boUVpFcz-200" value="" style="endArrow=none;html=1;rounded=0;align=center;verticalAlign=top;endFill=0;labelBackgroundColor=none;endSize=2;strokeWidth=3;" parent="1" edge="1">
          <mxGeometry relative="1" as="geometry">
            <mxPoint x="8658.75" y="3045" as="targetPoint" />
            <mxPoint x="8658.75" y="3045" as="sourcePoint" />
          </mxGeometry>
        </mxCell>
        <mxCell id="io7zwHNE9pA3boUVpFcz-203" value="" style="endArrow=none;html=1;rounded=0;align=center;verticalAlign=top;endFill=0;labelBackgroundColor=none;endSize=2;strokeWidth=3;" parent="1" edge="1">
          <mxGeometry relative="1" as="geometry">
            <mxPoint x="8658.75" y="3245" as="targetPoint" />
            <mxPoint x="8658.75" y="3245" as="sourcePoint" />
          </mxGeometry>
        </mxCell>
        <mxCell id="io7zwHNE9pA3boUVpFcz-204" value="" style="endArrow=none;html=1;rounded=0;align=center;verticalAlign=top;endFill=0;labelBackgroundColor=none;endSize=2;strokeWidth=3;" parent="1" edge="1">
          <mxGeometry relative="1" as="geometry">
            <mxPoint x="8658.75" y="3245" as="targetPoint" />
            <mxPoint x="8658.75" y="3245" as="sourcePoint" />
          </mxGeometry>
        </mxCell>
        <mxCell id="io7zwHNE9pA3boUVpFcz-207" value="&lt;div style=&quot;font-size: 20px;&quot;&gt;&lt;div&gt;&lt;b&gt;&lt;br&gt;&lt;/b&gt;&lt;/div&gt;&lt;ol&gt;&lt;li&gt;&lt;b&gt;CPU: Xeon(R) CPU E5-2690&lt;/b&gt;&lt;/li&gt;&lt;li&gt;&lt;b&gt;RAM: 128GiB&lt;/b&gt;&lt;/li&gt;&lt;li&gt;&lt;b&gt;OS: Windows Server2012&lt;/b&gt;&lt;/li&gt;&lt;li&gt;&lt;b&gt;공인IP: 220.90.135.178&lt;/b&gt;&lt;/li&gt;&lt;/ol&gt;&lt;/div&gt;" style="rounded=0;whiteSpace=wrap;html=1;align=left;fillColor=#E6E6E6;" parent="1" vertex="1">
          <mxGeometry x="7720" y="2270" width="350" height="170" as="geometry" />
        </mxCell>
        <mxCell id="io7zwHNE9pA3boUVpFcz-208" value="&lt;span style=&quot;border-color: var(--border-color); text-align: left;&quot;&gt;&lt;b style=&quot;&quot;&gt;&lt;font style=&quot;border-color: var(--border-color); font-size: 19px;&quot;&gt;port: 9182&lt;/font&gt;&lt;/b&gt;&lt;/span&gt;" style="html=1;rounded=0;strokeWidth=3;" parent="1" vertex="1">
          <mxGeometry x="8720" y="2555.25" width="183.75" height="40" as="geometry" />
        </mxCell>
        <mxCell id="io7zwHNE9pA3boUVpFcz-209" value="&lt;span style=&quot;border-color: var(--border-color); text-align: left;&quot;&gt;&lt;b style=&quot;&quot;&gt;&lt;font style=&quot;border-color: var(--border-color); font-size: 19px;&quot;&gt;port: 443&lt;br&gt;&lt;/font&gt;&lt;/b&gt;&lt;/span&gt;" style="html=1;rounded=0;strokeWidth=3;" parent="1" vertex="1">
          <mxGeometry x="8718" y="2780.25" width="183.75" height="40" as="geometry" />
        </mxCell>
      </root>
    </mxGraphModel>
  </diagram>
</mxfile>
